<svg xmlns="http://www.w3.org/2000/svg" width="44" height="44" viewBox="0 0 44 44">
  <g id="Group_1195" data-name="Group 1195" transform="translate(-939 -441)">
    <circle id="Ellipse_205" data-name="Ellipse 205" cx="22" cy="22" r="22" transform="translate(939 441)" fill="#ee0051"/>
    <path id="Path_2670" data-name="Path 2670" d="M16.5-15.244a23.868,23.868,0,0,1,4.107,3.09,5.932,5.932,0,0,1,1.924,4.532A7.423,7.423,0,0,1,19.7-1.462,11.127,11.127,0,0,1,12.58.777a12.494,12.494,0,0,1-4.5-.722A23.985,23.985,0,0,0,3.811-1.11q-.037-1.332-.037-3.552T3.663-8.584q0-.111.315-.2a1.955,1.955,0,0,1,.536-.093,1.689,1.689,0,0,1,.5.074q.241.074.278.222A10.314,10.314,0,0,0,8.233-3.145,6.458,6.458,0,0,0,12.58-1a4.248,4.248,0,0,0,3.09-.943,3.475,3.475,0,0,0,.944-2.571,4.031,4.031,0,0,0-1.924-3.367q-1.924-1.369-4.144-2.664a23.083,23.083,0,0,1-4.181-3.071A5.71,5.71,0,0,1,4.44-17.982a7.488,7.488,0,0,1,2.609-5.79,10.307,10.307,0,0,1,7.16-2.35,11.028,11.028,0,0,1,3.515.5,24.906,24.906,0,0,0,3.182.832q.037,1.332.129,3.33t.24,3.293q0,.111-.314.2a1.885,1.885,0,0,1-.5.093,1.878,1.878,0,0,1-.518-.074.5.5,0,0,1-.333-.222A11.139,11.139,0,0,0,17.538-22.7a4.219,4.219,0,0,0-3.367-1.647,3.874,3.874,0,0,0-2.738.925,3.041,3.041,0,0,0-1,2.331A3.808,3.808,0,0,0,12.3-17.927Q14.171-16.613,16.5-15.244Z" transform="translate(948 476.123)" fill="#fff"/>
  </g>
</svg>
