<svg xmlns="http://www.w3.org/2000/svg" width="375.515" height="442.244" viewBox="0 0 375.515 442.244">
  <g id="Group_1125" data-name="Group 1125" transform="translate(-0.868 -6381.246)">
    <g id="Path_1789" data-name="Path 1789" transform="translate(1411 6456.672)" fill="#081b2c">
      <path d="M -1035.1171875 366.3183898925781 L -1409.6318359375 366.3183898925781 L -1409.6318359375 103.1986389160156 C -1408.19970703125 102.4140090942383 -1400.751831054688 98.46327209472656 -1389.129638671875 94.55887603759766 C -1381.5458984375 92.01110076904297 -1373.694580078125 89.98120880126953 -1365.793823242188 88.52554321289062 C -1355.9208984375 86.70648956298828 -1345.942626953125 85.78415679931641 -1336.135864257812 85.78415679931641 C -1320.062744140625 85.78415679931641 -1304.240234375 88.25515747070312 -1289.107543945312 93.1285400390625 C -1280.497680664062 95.90126800537109 -1271.973999023438 99.50160217285156 -1263.773193359375 103.8294296264648 C -1254.934326171875 108.4939880371094 -1246.237426757812 114.1269912719727 -1237.923950195312 120.5719299316406 C -1232.105346679688 125.0826568603516 -1226.376342773438 129.0652160644531 -1220.895629882812 132.4090423583984 C -1215.509643554688 135.6950378417969 -1210.207275390625 138.4595489501953 -1205.1357421875 140.6257171630859 C -1200.155883789062 142.7527618408203 -1195.253540039062 144.3648223876953 -1190.565063476562 145.4170379638672 C -1185.96630859375 146.4492034912109 -1181.439086914062 146.9728240966797 -1177.109130859375 146.9734954833984 C -1177.106811523438 146.9734954833984 -1177.103637695312 146.9734954833984 -1177.101196289062 146.9734954833984 C -1171.497924804688 146.9734954833984 -1166.032958984375 146.0973052978516 -1160.856689453125 144.3689270019531 C -1155.847900390625 142.6964874267578 -1150.95751953125 140.1749877929688 -1146.321411132812 136.8745422363281 C -1141.8603515625 133.6986541748047 -1137.494384765625 129.7012176513672 -1133.344848632812 124.9931564331055 C -1129.370971679688 120.4845428466797 -1125.465942382812 115.1767654418945 -1121.738159179688 109.2172088623047 C -1118.189208984375 103.5436019897461 -1114.68017578125 97.08554077148438 -1111.308227539062 90.02237701416016 C -1108.124633789062 83.35371398925781 -1104.948120117188 75.90321350097656 -1101.866821289062 67.87787628173828 C -1096.33544921875 53.47093200683594 -1090.889404296875 36.70226669311523 -1085.217651367188 16.61365509033203 C -1079.955688476562 -2.023289680480957 -1074.520385742188 -18.05406761169434 -1069.0625 -31.03334617614746 C -1064.44677734375 -42.01017761230469 -1059.757568359375 -50.94656753540039 -1055.125122070312 -57.59434509277344 C -1051.433349609375 -62.89223480224609 -1047.775390625 -66.74912261962891 -1044.252807617188 -69.05779266357422 C -1041.161499023438 -71.08378601074219 -1038.760375976562 -71.50907135009766 -1037.290405273438 -71.50907135009766 C -1036.220336914062 -71.50907135009766 -1035.4794921875 -71.28941345214844 -1035.1171875 -71.15003204345703 L -1035.1171875 366.3183898925781 Z" stroke="none"/>
      <path d="M -1037.290405273438 -71.00906372070312 C -1040.232421875 -71.00894165039062 -1046.408203125 -69.22891235351562 -1054.71484375 -57.30841064453125 C -1059.327270507812 -50.68939208984375 -1063.999389648438 -41.78396606445312 -1068.6015625 -30.83944702148438 C -1074.051513671875 -17.87905883789062 -1079.480102539062 -1.8677978515625 -1084.736450195312 16.74954223632812 C -1090.412231445312 36.85237121582031 -1095.862915039062 53.63493347167969 -1101.400146484375 68.05615234375 C -1104.486083984375 76.0933837890625 -1107.667846679688 83.55577087402344 -1110.857055664062 90.23599243164062 C -1114.237060546875 97.31587219238281 -1117.75537109375 103.7904357910156 -1121.314331054688 109.4798278808594 C -1125.056396484375 115.462158203125 -1128.977905273438 120.7918243408203 -1132.9697265625 125.3208160400391 C -1137.14453125 130.0574340820312 -1141.539184570312 134.0807647705078 -1146.031494140625 137.2789916992188 C -1150.707885742188 140.6083221435547 -1155.642456054688 143.1526031494141 -1160.6982421875 144.8412170410156 C -1165.927856445312 146.5878753662109 -1171.449340820312 147.4734954833984 -1177.109130859375 147.4734954833984 C -1181.4755859375 147.4734954833984 -1186.039672851562 146.9461059570312 -1190.674560546875 145.9059906005859 C -1195.392578125 144.8472595214844 -1200.324096679688 143.2257080078125 -1205.332275390625 141.08642578125 C -1210.425415039062 138.9108276367188 -1215.749389648438 136.1350402832031 -1221.156127929688 132.8362121582031 C -1226.65234375 129.4827117919922 -1232.396850585938 125.4893798828125 -1238.230224609375 120.9671020507812 C -1246.520874023438 114.5398254394531 -1255.193237304688 108.9226531982422 -1264.006591796875 104.2716064453125 C -1272.181762695312 99.95726013183594 -1280.678588867188 96.36831665039062 -1289.260864257812 93.6044921875 C -1304.343872070312 88.74703979492188 -1320.114868164062 86.28414916992188 -1336.135864257812 86.28414916992188 C -1345.906005859375 86.28414916992188 -1355.847534179688 87.20254516601562 -1365.684326171875 89.01376342773438 C -1373.558471679688 90.46359252929688 -1381.3837890625 92.485595703125 -1388.942749023438 95.02348327636719 C -1399.962890625 98.72354125976562 -1407.219360351562 102.4658508300781 -1409.1318359375 103.4960632324219 L -1409.1318359375 365.818359375 L -1035.6171875 365.818359375 L -1035.6171875 -70.790283203125 C -1035.987548828125 -70.89718627929688 -1036.5517578125 -71.00909423828125 -1037.290405273438 -71.00906372070312 M -1037.290405273438 -72.00906372070312 C -1035.555297851562 -72.00912475585938 -1034.6171875 -71.4736328125 -1034.6171875 -71.4736328125 L -1034.6171875 366.818359375 L -1410.1318359375 366.818359375 L -1410.1318359375 102.9043273925781 C -1410.1318359375 102.9043273925781 -1379.290283203125 85.28416442871094 -1336.135864257812 85.28416442871094 C -1307.010375976562 85.28416442871094 -1272.283325195312 93.30247497558594 -1237.617553710938 120.1767730712891 C -1214.08349609375 138.4213104248047 -1194.179321289062 146.4734802246094 -1177.109130859375 146.4734802246094 C -1131.778930664062 146.4734802246094 -1106.383911132812 89.74136352539062 -1085.698852539062 16.47781372070312 C -1063.025634765625 -63.82766723632812 -1044.072143554688 -72.00881958007812 -1037.290405273438 -72.00906372070312 Z" stroke="none" fill="#081b2c"/>
    </g>
    <g id="Group_1112" data-name="Group 1112" transform="translate(-777 -123.82)">
      <path id="Path_2404" data-name="Path 2404" d="M72.623-319.339c-7.106.979-6.448,11.084-8.982,21.96-1.985,8.521-3.805,8.513-4.076,12.841-.19,3.046-1.771,9.177,0,14.122C61.288-265.6,65.355-260.6,68-259.776c8.991,2.785,8.257,8.754,11.269,8.754s3.714-6.553,6.8-8.754c5.771-4.117,9.708-7.226,10.038-12.544,1.027-16.536-4.671-26.4-8.74-34.159C84.291-312.352,79.457-320.28,72.623-319.339Z" transform="translate(795.508 6824.482)" fill="#163d6d" fill-rule="evenodd"/>
      <path id="Path_2405" data-name="Path 2405" d="M136.709-268.218c1.76,5.868-4.089,8.75-7.191,18.372-2.431,7.538-1.067,8.307-2.853,11.822-1.258,2.473-2,5.89-5.593,9.02-3.5,3.045-7.87,4.622-10.226,4.139-8-1.642-12.067,6.053-14.318,4.77s.234-6.728-1.062-9.773c-2.423-5.692-1.135-9.905,1.062-14.222a49.428,49.428,0,0,1,24.545-23.3C127.96-270.337,136.287-269.626,136.709-268.218Z" transform="translate(787.371 6813.001)" fill="#092056" fill-rule="evenodd"/>
      <path id="Path_2406" data-name="Path 2406" d="M75.562-140.777c-1.248-1.564,1.48-6.457-7.488-6.808-9.221-.36-11.7,2.535-13.482,4.512-1.539,1.708-1.059,5.379.455,6.522s6.109.565,9.082,0c3-.57,7.008-3.144,8.913-3.419,1.02-.147,2.1,1.9,2.52,1.77S76.1-140.1,75.562-140.777Z" transform="translate(796.676 6785.018)" fill="#163d6d" fill-rule="evenodd"/>
      <path id="Path_2407" data-name="Path 2407" d="M61.7-209.29c.188-.8-2.167-1.923-4.151-3.849-2.2-2.134-6.217-3.427-8.446-4.108-5.395-1.648-15.371-2.08-21.989-1.652A56.163,56.163,0,0,0,9.4-214.679c-3.56,1.642-8.79,6.408-9.357,7.889s4.15.735,5.851,1.216c3.282.928,9.5,4.393,14.572,4.393,5.883,0,13.89-.659,21.021-3.821,3.351-1.487,7.2-4.592,9.812-5.352,1.808-.527,4.495-.741,5.656,0C57.932-209.734,61.545-208.615,61.7-209.29Z" transform="translate(809 6801.428)" fill="#0e3760" fill-rule="evenodd"/>
      <path id="Path_2408" data-name="Path 2408" d="M97.413-176.593c1.526-2.164,4.781-6.315,14-10.745,5.908-2.839,14.376-5.115,21.466-6.262,6.933-1.122,16.66-1.32,21.07-.62,2.394.38,5.722,3.674,5.39,4.821s-5.142.838-7.379,2.061a71.67,71.67,0,0,0-8.271,5.014c-2.975,2.208-5.337,4.708-7.764,5.732-3.869,1.632-8.311,1.608-12.553,1.317-12.361-.847-11.762-2.66-15.865-2.66-3.356,0-6.927,2.383-8.751,2.66C98.131-175.181,97.053-176.083,97.413-176.593Z" transform="translate(786.639 6795.817)" fill="#0e3760" fill-rule="evenodd"/>
      <path id="Path_2409" data-name="Path 2409" d="M72.453-169.709c-1.2-2.164-3.616-8.375-10.836-12.806A55.606,55.606,0,0,0,44.6-189.4a50.138,50.138,0,0,0-16.3,0c-1.875.381-4.408,4.031-4.351,6.882.245,12.358,18.922,14.414,22.246,14.123,9.682-.847,15.14-2.661,18.353-2.661,2.628,0,5.426,2.384,6.855,2.661C71.891-168.3,72.735-169.2,72.453-169.709Z" transform="translate(803.499 6794.769)" fill="#092056" fill-rule="evenodd"/>
      <path id="Path_2410" data-name="Path 2410" d="M84.639-122.381c.708-12.783,1.493-25.562,2.124-38.349.645-13.069,1.746-28.93,1.746-40.063,0-8.93-1.3-17.814-1.746-26.734-.195-3.939-1.812-10.031-2.124-16.852-.722-15.782-.2-34.736,0-34.736s.345,19.058,1.453,34.736c.495,7,2.127,12.875,2.416,16.852.625,8.582,1.47,17.38,1.764,25.752q.43,12.234,0,24.481c-.294,8.428-1.484,17.375-1.764,26.085-.294,9.153.645,24.023,0,28.828-.169,1.262-2.579,0-3.869,0" transform="translate(789.643 6815.225)" fill="#0c0d18" fill-rule="evenodd"/>
      <path id="Path_2411" data-name="Path 2411" d="M123.734-258.051c-6.946,8.17-16.082,17.809-20.839,24.512-3.381,4.765-5.675,10.861-7.7,15.709a130.366,130.366,0,0,0-4.458,13.381c-.258.946-.4,3.835,0,2.937.987-2.23,3.576-11.025,5.924-16.318a102.36,102.36,0,0,1,8.282-15.709c4.512-6.7,12.528-16.342,18.792-24.512" transform="translate(788.214 6810.386)" fill="#0c0d18" fill-rule="evenodd"/>
      <path id="Path_2412" data-name="Path 2412" d="M90.734-171.249c3.252-2.456,13.919-10.108,19.513-12.724,4.341-2.03,7.647-2.507,11.083-3.281,2.188-.494,7.3-.869,9.533-1.111,4.324-.468,19.314-.451,19.314-.254s-12.865.637-19.314,1.182c-6.665.565-14.2,1.839-20.616,4.746-6.688,3.033-16.261,11.577-19.513,13.452C90.09-168.867,90.142-170.8,90.734-171.249Z" transform="translate(788.264 6794.466)" fill="#0c0d18" fill-rule="evenodd"/>
      <path id="Path_2413" data-name="Path 2413" d="M72.857-205.1c-2.642-1.494-10.284-6.007-15.85-6.846s-11.774.711-17.548,1.816c-5.96,1.141-19.669,1.052-19.669,1.262s13.709.839,19.669,0c5.806-.816,13.5-2.649,17.548-1.262,1.032.354,6.411,2,7.4,2.449,2.642,1.191,6.3,4.079,8.445,4.694C73.542-202.794,73.476-204.753,72.857-205.1Z" transform="translate(804.454 6799.851)" fill="#0c0d18" fill-rule="evenodd"/>
      <path id="Path_2414" data-name="Path 2414" d="M79.653-165.827C76.6-167.7,67.162-173.7,61.34-175.278c-5.343-1.446-16.62-.165-16.62,0s11.345-.715,16.62.986c5.822,1.876,15.261,8.864,18.313,10.274C80.206-163.762,80.172-165.508,79.653-165.827Z" transform="translate(798.727 6791.528)" fill="#0c0d18" fill-rule="evenodd"/>
      <path id="Path_2415" data-name="Path 2415" d="M81.742-136.128c-.659-.441-2.668-.823-4.212-2.055-2.049-1.635-3.807-4.161-5.667-4.4a22.77,22.77,0,0,0-9.571,1.3c-.979.382-5.048,2.488-4.914,2.488s3.953-1.45,5.122-1.818c2.032-.639,6.581-1.507,9.363-1.045,1.738.288,3.4,2.86,5.085,4.438A8.864,8.864,0,0,0,79.67-135.9c.69.393,1.726,1.216,2.071,1.179S82.134-135.865,81.742-136.128Z" transform="translate(795.82 6783.887)" fill="#0c0d18" fill-rule="evenodd"/>
    </g>
  </g>
</svg>
