<svg xmlns="http://www.w3.org/2000/svg" xmlns:xlink="http://www.w3.org/1999/xlink" width="498.947" height="632.592" viewBox="0 0 498.947 632.592">
  <defs>
    <clipPath id="clip-path">
      <path id="Path_2540" data-name="Path 2540" d="M0,0H498.947V632.592H0Z" transform="translate(1026 59)" fill="#fff" stroke="#707070" stroke-width="1"/>
    </clipPath>
    <clipPath id="clip-path-2">
      <path id="Path_2430" data-name="Path 2430" d="M151.927-238.2c-2.956-6.26-14.469,6.582-17.74,10.6-3.773,4.634-11.309,27.693-8.352,33.952s26.092,3.61,26.092,3.61S154.884-231.936,151.927-238.2Z" transform="translate(-125.163 239.888)" fill="none"/>
    </clipPath>
    <clipPath id="clip-path-3">
      <path id="Path_2434" data-name="Path 2434" d="M230.981-233.914s17.245-10.39,12.049-24.055c-1.271-3.341-.487-8.328-5.561-11.728-27.191-18.221-31.5-11.978-64.009,7.43-19.388,11.575-46.616,103.278-43.945,124.6,1.75,13.975,43.945,7.088,43.945,7.088Z" transform="translate(-129.333 280.55)" fill="none"/>
    </clipPath>
    <clipPath id="clip-path-4">
      <path id="Path_2437" data-name="Path 2437" d="M210.081-235.673c2.258-9.469-14.957-22.267-24.661-26.265-8.443-3.477-21.72-3.105-25.794,0-1.746,1.33-4.771,4.089-5.578,3.034a3.181,3.181,0,0,1,.842-3.034c2.907-2.511,11.627-8.242,17.447-11.458,5.586-3.088,12.325-6.53,17.474-7.837a24.913,24.913,0,0,1,13.414,0c6.789,2.157,22.189,6.99,28.415,19.3,8.207,16.216,1.888,20.307,1.888,20.307S208.717-229.946,210.081-235.673Z" transform="translate(-153.916 282.155)" fill="none"/>
    </clipPath>
    <clipPath id="clip-path-5">
      <path id="Path_2451" data-name="Path 2451" d="M234.383-238.034c.062-1.4.362-15.449,4.366-18.468,4.037-3.045,4.453-5.6,4.438-6.048-.132-3.938-3.83-4.832-4.468-4.995a5.34,5.34,0,0,0-4.265.618c-1.6,1.093-2.736,3.728-3.758,5.4-1.9,3.089-3.86,5.419-3.3,9.208.608,4.1-4.123,7.751-7.1,8.489a11.337,11.337,0,0,1-6.5,0,8.582,8.582,0,0,0,4.891-3c1.346-1.429,1.394-3.048,1.92-4.952,1.093-3.962.4-8.1,2.623-11.722a35.99,35.99,0,0,0,2.928-4.9c.04-.092.081-.192.111-.284,1.54-4.072.518-8.631,1.348-12.845a17.921,17.921,0,0,1,5.532-9.979c2.006-1.8,4.407-3.151,6.2-5.168,1.377-1.539,2.42-3.413,4.4-4.255,1.9-.809,4.356-.627,6.372-.729,1.762-.09,4.7-2.111,12.947-1.854,2.755.087,9.17,1.639,12.389,7.2,1.589,2.744,4.2,4.215,7.032,5.208,4.822,1.7,8.742,2.633,11.933,6.878.092.121.182.243.274.374.025.074.052.148.077.222a26.322,26.322,0,0,1,3.018,5.573c.922,2.32,3.955,6.86,6.68,6.14,4.379-1.157,5.674-5.033,6.922-6.14.4-.354.966,6.6-1.145,12.043-1.9,4.888-6.325,8.767-6.643,9.05-3.679,3.267-6.564,3.626-9.037,3a9.157,9.157,0,0,1-6.69-6.007c-.386-.922-1.423-6.357-5.856-9.34-2.678-1.8-2.66,1.552-9.763-1.277a18.521,18.521,0,0,1-5.8-4.825c-1.59-2.218-5.467-2.222-8.829,3.5-1.287,2.187-4.464,4.083-8.784,5.48-2.881.932-1.985,5.431-2.715,7.812a20.054,20.054,0,0,0-4.641,9.929c-.03.182-.243,4.324.537,6.412,0,.01.01.01.01.021,1.277,3.413,3.83,6.027,6.616,8.681,1.469,1.4,3,2.807,4.458,4.336a.432.432,0,0,0,.071.08,23.4,23.4,0,0,0,10.5,6.484c.274.092.556.172.84.263.1.03.213.05.324.092.648.182,1.337.364,2.077.536a1.323,1.323,0,0,0,.192.052c.618.151,1.277.293,1.965.435.457.1.923.192,1.408.294.061.019.121.019.173.04a1.9,1.9,0,0,1,.324.121,4.769,4.769,0,0,1,1.914,1.479l.025.03a10.793,10.793,0,0,1,1.342,2.067c.092.152.163.315.244.466,1.327,2.746.547,5.521-.982,8.014-.416.7-.882,1.357-1.358,2.006-.942,1.3-1.965,2.522-2.949,3.808-.861,1.145-2.836,4.286-4.032,5.026-2.067,1.256-7.983-1.216-8.286-1.419a23.6,23.6,0,0,1-6.4-6.311,8.983,8.983,0,0,1-.527-.871c-4.336-7.962-8.4-8.652-12.117-13.444-.192-.232-.364-.465-.537-.7-.4-.516-.769-1.024-1.124-1.54a30.924,30.924,0,0,1-1.013-4.265c-.061-.324-.111-.648-.161-.982-.031-.182-.061-.364-.081-.547a2.436,2.436,0,0,1-.04-.274c-.031-.212-.061-.425-.092-.638-.111-.851-.2-1.732-.274-2.623-.03-.426-.061-.842-.081-1.266A47.181,47.181,0,0,1,234.383-238.034Z" transform="translate(-213.784 303.542)" fill="none"/>
    </clipPath>
    <clipPath id="clip-path-6">
      <path id="Path_2455" data-name="Path 2455" d="M234.223-45.7c1.657,7.106-6.518,15.742-11.565,18.072-7.18,3.313,31.618,17.219,29.907,12.241-1.648-4.8-1.858-16.776,1.836-23.283C257.147-43.5,233.04-50.767,234.223-45.7Z" transform="translate(-221.77 47.422)" fill="none"/>
    </clipPath>
    <clipPath id="clip-path-7">
      <path id="Path_2458" data-name="Path 2458" d="M262.714-215.1s36.429,18.03,55.456,23.9c7.165,2.212,12.124,2.449,22.889,3.049a191.034,191.034,0,0,0,23.275.155c3.852-.256,28.351-1.477,33.779-.022,3.74,1,5.3,6.39,6.248,11.7a52.23,52.23,0,0,1,.833,8.322c.031,3.259-.42,5.671-1.545,5.694-1.991.043-4.79-13.03-8.588-14.016s-3.1,6.721-9.918,7.048c-1.951.1-6.834-7.473-10.815-7.048-9.266.987-28.953,14.4-44.777,12.97C307.983-165.3,246.018-188,246.018-188Z" transform="translate(-246.017 215.103)" fill="none"/>
    </clipPath>
    <clipPath id="clip-path-8">
      <path id="Path_2461" data-name="Path 2461" d="M229.3-235.1c7.206,11.842,49.349,23.929,48.967,30.541-.6,10.42-11.6,17.277-14.876,22.725-5.061,8.406-36.83-14.071-42.657-22.725S224.732-242.594,229.3-235.1Z" transform="translate(-218.935 236.308)" fill="none"/>
    </clipPath>
    <clipPath id="clip-path-9">
      <path id="Path_2464" data-name="Path 2464" d="M239.474-206.028s17.393,3.355,21.347,4.506c8.667,2.522,26.744,8.362,39.744,13.549,13.709,5.468,29.848,15.706,42.506,19.264,10.754,3.024,23.853,3.959,31.73,2.231,4.459-.978,12.336-3.527,16.656-2.231s9.15,7.087,10.982,9.875c1.253,1.91,1.542,6.606,0,6.854-1.01.161-1.732-1.874-3.83-3.648-1.107-.936-3.279-1.624-4.6-2.264-1.562-.757-4.172-1.477-5.826-.942-2.779.894-7.887,6.319-11.669,6.854s-7.2-3.036-11.025-3.648c-5.575-.9-14.935-1.367-22.423-1.722-11.275-.534-45.227-1.484-45.227-1.484s-27.6-1.59-37.024-3.795c-7.027-1.644-17.011-7-21.347-10.065-3.015-2.132-11.892-10.29-11.892-10.29Z" transform="translate(-227.582 206.028)" fill="none"/>
    </clipPath>
    <clipPath id="clip-path-10">
      <path id="Path_2469" data-name="Path 2469" d="M231.487-255.75c3.526-1.025,11.706,3.529,18.659,9.921,9.412,8.65,13.444,13.132,13.873,14.684,1.031,3.736.312,7.837,0,10.711-.9,8.312-3.9,16.718-2.428,22.5,1.549,6.067,18.169,13.379,25.433,16.943,8.967,4.4-13.13,37.223-17.469,31.126-4.225-5.94-21.187-8.588-21.187-8.588s3.148,19.119,2.318,28.179c-1.564,17.08-7.462,27.571-7.462,27.571s-23.157,1.743-32.362,6.224c-9.837,4.788-17.243,14.551-24.124,20.735-5.507,4.949-13.957,16.29-15.3,15.709-9.05-3.907-17-27.876-17.44-36.444-1.308-25.269,6.387-42.033,10.191-63.043,3.688-20.366,8.375-50.361,15.585-62.794C193.92-246.724,217.041-251.547,231.487-255.75Z" transform="translate(-153.846 255.895)" fill="none"/>
    </clipPath>
    <clipPath id="clip-path-11">
      <path id="Path_2473" data-name="Path 2473" d="M265.426-60.655c4.268,4.333,4.455,15.316,1.877,19.167-3.666,5.478,27.73-2.787,24.349-5.584-3.258-2.7-8.616-11.123-8.818-17.358C282.685-69.061,262.382-63.745,265.426-60.655Z" transform="translate(-265.115 66.247)" fill="none"/>
    </clipPath>
    <clipPath id="clip-path-12">
      <path id="Path_2476" data-name="Path 2476" d="M202.756-146.05s13.7-3.558,42.08-9.486c14.5-3.03,34.5-10.244,42.907-4.225,6.771,4.848,8.745,18.89,15.528,32.769C321.385-89.931,322.363-37.431,324.562-18.3c.386,3.351-5.582,5.631-8.1,6.069-2.4.418-11.028,1.55-13.194-2.357C296.5-26.783,290.78-58.106,275.877-85.4c-4.638-8.5-9.51-15.418-14.311-18.97-20.232-14.963-79.69,0-79.69,0Z" transform="translate(-181.881 162.087)" fill="none"/>
    </clipPath>
    <clipPath id="clip-path-13">
      <path id="Path_2480" data-name="Path 2480" d="M229.972-153.909s-1.188.006-14.406,3.255c-8.394,2.064-17.194,7.378-22.179,10.158-5.856,3.265-7.63,14.022-15.45,17.663a40.628,40.628,0,0,1-18.388,3.369s3.736,10.52,16.842,14.678c17.089,5.421,46.063,5.146,56.634,5.777,16.088.962,43.119,2.358,52.824,3.435,4.82.536,8.485,2.293,7.652,7.069-3.048,17.49-30.048,72.7-30.586,90.389-.281,9.231,18.832,18.446,25.121,11.683C302.67-2.171,341.3-70.646,350.716-92.547c3.428-7.971.308-19.519-6.172-25.291-8.412-7.492-29.071-14.275-44.3-19.668C283.837-143.312,229.972-153.909,229.972-153.909Z" transform="translate(-159.55 153.909)" fill="none"/>
    </clipPath>
    <clipPath id="clip-path-14">
      <path id="Path_2483" data-name="Path 2483" d="M233.2-39.053c.555.042-.979,1.167-1.046,1.934-.135,1.564,3.659,5.476,6.221,6.483,6.943,2.73,11.571,3.162,14.123,2.624,1.188-.25,1.055-3.964,1.417-3.589a36.09,36.09,0,0,1,3.323,3.589c3.787,4.821,7.28,12.536,11.819,17.258,7.137,7.426,24.917,17.518,27.4,23.365,1.028,2.424-2.375,6.04-5.007,6.11-9.392.249-24.5-5.228-42.684-13.9C245,3.028,222-11.4,218.729-16.365c-2.858-4.336-1.8-12.5,0-15.581S229.479-39.332,233.2-39.053Z" transform="translate(-216.961 39.066)" fill="none"/>
    </clipPath>
    <clipPath id="clip-path-15">
      <path id="Path_2486" data-name="Path 2486" d="M268.855-52.306c.685-.275-.118,1.467,1.363,2.066,2.233.9,7.051.806,9.257,0,3.086-1.128,5.973-1.625,7.175-5.47.314-1-.833-2.569,0-2.511,4.918.343,8.719,3.993,14.2,5.915,3.708,1.3,15.438,1.764,21.582,2.066,4.894.24,3.508,4.7,3.381,5.565-.287,1.951-18.869,6.625-27.188,8.939-7.468,2.077-17.356,4.594-22.726,4.942-3.3.214-7.752-.219-9.491-2.853s-1.354-9.838-.947-12.948C265.751-48.79,267.415-51.728,268.855-52.306Z" transform="translate(-265.116 58.222)" fill="none"/>
    </clipPath>
    <clipPath id="clip-path-16">
      <path id="Path_2492" data-name="Path 2492" d="M150.478-189.723c.871-3.666,12.05-2.382,17.863-2.728,13.4-.8,62.929-4.79,62.929-4.79s1.919,1.725,2.929,2.481c1.064.8,3.458,2.293,3.458,2.293s-54.974,8.275-69.635,10.4c-6.1.886-17.4,2.046-18.042-1.293a14.589,14.589,0,0,1,.5-6.368Z" transform="translate(-149.805 197.242)" fill="none"/>
    </clipPath>
    <clipPath id="clip-path-17">
      <path id="Path_2491" data-name="Path 2491" d="M151.52-192.522s1.295,3.042,3.277,3.172c6.292.413,38.494-.592,45.245-2.269,2.789-.692,7.579-6.14,7.579-6.14Z" transform="translate(-151.52 197.759)" fill="none"/>
    </clipPath>
    <clipPath id="clip-path-18">
      <path id="Path_2498" data-name="Path 2498" d="M170.96-244.28c.9,1.515,5.011,2.017,9.285,2.994,13.513,3.089,42.678,10.122,51.425,15.167,9.363,5.4,20.641,18.28,21.54,23.856,0,.016.049,1.224.21,1.308.766.4,1.608-.818,1.991-1.41,1.272-1.965.648-8.122-.513-10.143-3.036-5.286-9.137-15.617-18.362-20.9-8.64-4.947-38.025-11.139-51.127-13.732-3.929-.778-8.153-3.712-10.562-3.237C172.484-249.907,170.061-245.8,170.96-244.28Z" transform="translate(-170.768 250.426)" fill="none"/>
    </clipPath>
    <clipPath id="clip-path-19">
      <path id="Path_2497" data-name="Path 2497" d="M174.67-251.314s-2.061,3.108-.367,3.771c7.638,2.984,47.149,12.479,58.421,18.98,6.28,3.622,13.762,12.177,17.956,18.729,1.6,2.494,2.215,7.239,1.367,9.111-.456,1,.867.608,1.324.806,3.634,1.573,3.866-19.948,3.866-19.948l-24.513-21.887Z" transform="translate(-173.635 251.314)" fill="none"/>
    </clipPath>
    <clipPath id="clip-path-20">
      <path id="Path_2502" data-name="Path 2502" d="M298.887-260.61a12.33,12.33,0,0,0-6.229,6.082,45.542,45.542,0,0,0-2.919,14.982c.007,8.158-3.088,6.013-4.526,6.122a5.261,5.261,0,0,0-4.987,5.024c-.12,1.13-1.358,1.133-1.67,2.024-.345.984.253,1.639,0,2.614a9.218,9.218,0,0,1-2.048,3.2c-1.568,1.672-15.021,10.745-15.021,10.745L244.614-228.4s-9,6.362-7.224,15.9-2.954,6.424-5.009,5.106c-5.191-3.329-23.216-19.866-25.524-26.025a4.221,4.221,0,0,1,0-2.589s14.1-1.667,22.513-22.547c1.286-3.191,4.154-5.94,4.783-10.421,3.41-24.281,21-27.448,21-27.448s12.3-5.307,31.521,12.241S298.887-260.61,298.887-260.61Z" transform="translate(-206.647 297.183)" fill="none"/>
    </clipPath>
    <clipPath id="clip-path-22">
      <path id="Path_2511" data-name="Path 2511" d="M148.95-211.927l3.965-17.558c.087-.456.7-.676,1.292-.465a1.166,1.166,0,0,1,.744,1.432l-4.163,17.486s-.953-.408-1.194-.539C149.388-211.681,148.95-211.927,148.95-211.927Z" transform="translate(-148.95 230.031)" fill="none"/>
    </clipPath>
    <clipPath id="clip-path-23">
      <path id="Path_2514" data-name="Path 2514" d="M152.28-227.71a7.494,7.494,0,0,1,0-2.738,8.289,8.289,0,0,1,2.107-2.907,4.855,4.855,0,0,1,2.209-.435s-.792.186-1.728,1.83c-.843,1.478-.655,2.4-1.087,3.107a4.949,4.949,0,0,1-1.5,1.144" transform="translate(-152.138 233.791)" fill="none"/>
    </clipPath>
    <clipPath id="clip-path-24">
      <path id="Path_2517" data-name="Path 2517" d="M150.944-212.185l3.7-14.024c.087-.456.7-.676,1.292-.465a1.166,1.166,0,0,1,.744,1.432l-4.227,13.518-.784-.222C151.449-212.009,150.944-212.185,150.944-212.185Z" transform="translate(-150.944 226.755)" fill="none"/>
    </clipPath>
    <clipPath id="clip-path-25">
      <path id="Path_2520" data-name="Path 2520" d="M153.844-225.152s.1-4.6.685-5.075,2.947.593,3.079,1.442-2.508,4.429-2.508,4.429a.959.959,0,0,1-.907-.093.664.664,0,0,1-.349-.7Z" transform="translate(-153.835 230.344)" fill="none"/>
    </clipPath>
    <clipPath id="clip-path-26">
      <path id="Path_2523" data-name="Path 2523" d="M147.248-214.956l1.725-12.035c.087-.456.7-.676,1.292-.463a1.164,1.164,0,0,1,.744,1.431l-2.215,12.3a8.578,8.578,0,0,1-.979-.692C147.571-214.629,147.248-214.956,147.248-214.956Z" transform="translate(-147.248 227.536)" fill="none"/>
    </clipPath>
    <clipPath id="clip-path-27">
      <path id="Path_2526" data-name="Path 2526" d="M149.309-224.665a7.469,7.469,0,0,0,1.772-2.086,8.292,8.292,0,0,0,.277-3.579c-.154-.734-1.4-1.762-1.4-1.762s.484.654.133,2.514c-.314,1.672-1.053,2.252-1.184,3.071a4.962,4.962,0,0,0,.4,1.842" transform="translate(-148.892 232.092)" fill="none"/>
    </clipPath>
  </defs>
  <g id="header" transform="translate(-1026 -59)" clip-path="url(#clip-path)">
    <g id="Group_1113" data-name="Group 1113">
      <path id="Path_1709" data-name="Path 1709" d="M-10477.668-6647.191s-3.583,93.881-125.158,171.589,10.9,327.846-174.686,327.846-275.971,133.641-275.971,133.641l-48.2-631.2Z" transform="translate(12020 6647)" fill="#081b2c"/>
      <path id="Path_1763" data-name="Path 1763" d="M381.776,369.495q.359.406.718.809Z" transform="translate(956.594 -65.983)" fill="#53a3a0"/>
      <path id="Path_1783" data-name="Path 1783" d="M424.511,450.333l.617.883Z" transform="translate(1009.402 33.909)" fill="#121324"/>
      <g id="Group_1100" data-name="Group 1100" transform="translate(-865 69)">
        <path id="Path_2425" data-name="Path 2425" d="M305.388-166.394s52.438-4.123,68.143-4.833c8.875-.4,26.654,0,26.654,0L387-163.064Z" transform="translate(1948.559 530.806)" fill="#bebebe" fill-rule="evenodd"/>
        <path id="Path_2426" data-name="Path 2426" d="M305.282-142.847h85.727l30.87-77.759,3.835,2.756-31.286,79.489H309C306.658-138.361,305.282-142.847,305.282-142.847Z" transform="translate(1948.509 507.216)" fill="#d8d8d8" fill-rule="evenodd"/>
        <path id="Path_2427" data-name="Path 2427" d="M396.842-218.7l-31.335,79.347,11.54-10.384,12.928-30.594Z" transform="translate(1977.384 508.128)" fill="#bebebe" fill-rule="evenodd"/>
        <path id="Path_2428" data-name="Path 2428" d="M151.927-238.2c-2.956-6.26-14.469,6.582-17.74,10.6-3.773,4.634-11.309,27.693-8.352,33.952s26.092,3.61,26.092,3.61S154.884-231.936,151.927-238.2Z" transform="translate(1862.148 497.971)" fill="#660e0e" fill-rule="evenodd"/>
        <g id="Group_1073" data-name="Group 1073" transform="translate(1987.311 258.083)" clip-path="url(#clip-path-2)">
          <path id="Path_2429" data-name="Path 2429" d="M148.607-228.179c-4.512-.826-13.286,27.88-27.073,24.927-5.743-1.229,11.837,13.049,11.837,13.049l15.236-8.093S153.12-227.354,148.607-228.179Z" transform="translate(-127.455 245.493)" fill="#480a0a" fill-rule="evenodd"/>
        </g>
        <path id="Path_2431" data-name="Path 2431" d="M144.937-225.1s-.47-1.561-5.751-2.219c-7.775-.969-8.735,6.378-9.35,6.6s-1.474.672-2-.614c-1.074-2.653,4.487-11.719,8.542-14.987S151.1-241.9,151.1-241.9s-2.233,5.6-3.261,8.4S144.937-225.1,144.937-225.1Z" transform="translate(1863.367 497.007)" fill="#8d1515" fill-rule="evenodd"/>
        <path id="Path_2432" data-name="Path 2432" d="M230.981-233.914s17.245-10.39,12.049-24.055c-1.271-3.341-.487-8.328-5.561-11.728-27.191-18.221-31.5-11.978-64.009,7.43-19.388,11.575-46.616,103.278-43.945,124.6,1.75,13.975,43.945,7.088,43.945,7.088Z" transform="translate(1864.147 478.475)" fill="#250505" fill-rule="evenodd"/>
        <g id="Group_1074" data-name="Group 1074" transform="translate(1993.48 197.925)" clip-path="url(#clip-path-3)">
          <path id="Path_2433" data-name="Path 2433" d="M183.781-261.046c24.571-11.069,45.5,36.023,45.5,36.023L179.638-133.64s-47.849,8.238-49.21-13.922a17.057,17.057,0,0,1,.034-2.48C132.925-179.13,159.21-249.977,183.781-261.046Z" transform="translate(-128.821 289.094)" fill="#480a0a" fill-rule="evenodd"/>
        </g>
        <path id="Path_2435" data-name="Path 2435" d="M210.081-235.673c2.258-9.469-14.957-22.267-24.661-26.265-8.443-3.477-21.72-3.105-25.794,0-1.746,1.33-4.771,4.089-5.578,3.034a3.181,3.181,0,0,1,.842-3.034c2.907-2.511,11.627-8.242,17.447-11.458,5.586-3.088,12.325-6.53,17.474-7.837a24.913,24.913,0,0,1,13.414,0c6.789,2.157,22.189,6.99,28.415,19.3,8.207,16.216,1.888,20.307,1.888,20.307S208.717-229.946,210.081-235.673Z" transform="translate(1875.934 477.705)" fill="#8d1515" fill-rule="evenodd"/>
        <g id="Group_1075" data-name="Group 1075" transform="translate(2029.85 195.55)" clip-path="url(#clip-path-4)">
          <path id="Path_2436" data-name="Path 2436" d="M153.3-266.245c5.381-2.113,11.026-8.44,25.635-6.085,5.394.87,12.185,2.846,17.959,7.638,32.727,27.158,1.191,33.275,7.894,34.794,2.119.481,2.274-5.5,2.274-5.5L151.5-259.021S150.992-265.338,153.3-266.245Z" transform="translate(-155.097 286.618)" fill="#660e0e" fill-rule="evenodd"/>
        </g>
        <path id="Path_2438" data-name="Path 2438" d="M174.484-274.009c1.231-.253,3.592-2.413,2.426-2.883-1.192-.481-7.242-.481-9.578,0a12.482,12.482,0,0,0-5.2,2.883c-.87.923-1.028,2.373-.571,2.557.482.2,2.8-1.565,4.974-1.962C169.715-273.994,173.1-273.723,174.484-274.009Z" transform="translate(1879.479 480.056)" fill="#250505" fill-rule="evenodd"/>
        <path id="Path_2439" data-name="Path 2439" d="M180.753-278.369c1.089-.225,3.178-2.136,2.147-2.552-1.055-.426-6.412-.426-8.479,0a11.052,11.052,0,0,0-4.606,2.552c-.771.817-.91,2.1-.506,2.264.428.173,2.483-1.386,4.4-1.737C176.531-278.356,179.522-278.116,180.753-278.369Z" transform="translate(1883.209 478.144)" fill="#250505" fill-rule="evenodd"/>
        <path id="Path_2440" data-name="Path 2440" d="M132.673-200.888a10.111,10.111,0,0,0-2.515,1.812A12.673,12.673,0,0,0,128.8-193.6c.149.938,2.574,1.318,2.574,1.318l1.3-4.916" transform="translate(1863.881 516.67)" fill="#250505" fill-rule="evenodd"/>
        <path id="Path_2441" data-name="Path 2441" d="M150.527-252.976a24.636,24.636,0,0,0-3.943,2.024,9.906,9.906,0,0,0-1.9,4.614c0,.9,1.911,1.854,1.911,1.854l3.347-5.116" transform="translate(1871.507 491.696)" fill="#250505" fill-rule="evenodd"/>
        <path id="Path_2442" data-name="Path 2442" d="M146.511-221.421l8.72,7.008s-2.9,1.971-6.273,9.045c-1.891,3.966-4.722,19.329-4.722,19.329s.3-16.314.581-21.381C145.079-212.114,146.511-221.421,146.511-221.421Z" transform="translate(1871.293 506.825)" fill="#250505" fill-rule="evenodd"/>
        <path id="Path_2443" data-name="Path 2443" d="M145.762-221.389c.2-.5,6.771,2.938,10.414,4.125,3.579,1.164,11.648,2.494,11.447,2.994s-5.119,1.954-12.652,0S145.56-220.889,145.762-221.389Z" transform="translate(1872.018 506.817)" fill="#8d1515" fill-rule="evenodd"/>
        <path id="Path_2444" data-name="Path 2444" d="M154.327-210.8l4.48-16.715.578-.254,6.436,1.741L161.133-210.8l-.414.275-.2.145Z" transform="translate(1876.131 503.783)" fill="#d05337" fill-rule="evenodd"/>
        <path id="Path_2445" data-name="Path 2445" d="M153.909-210.709l5.067-16.881,6.436,1.741-4.68,15.385s-1.787.164-3.194.124a32.943,32.943,0,0,1-3.629-.369Z" transform="translate(1875.931 503.868)" fill="#feb062" fill-rule="evenodd"/>
        <path id="Path_2446" data-name="Path 2446" d="M234.383-238.034c.062-1.4.362-15.449,4.366-18.468,4.037-3.045,4.453-5.6,4.438-6.048-.132-3.938-3.83-4.832-4.468-4.995a5.34,5.34,0,0,0-4.265.618c-1.6,1.093-2.736,3.728-3.758,5.4-1.9,3.089-3.86,5.419-3.3,9.208.608,4.1-4.123,7.751-7.1,8.489a11.337,11.337,0,0,1-6.5,0,8.582,8.582,0,0,0,4.891-3c1.346-1.429,1.394-3.048,1.92-4.952,1.093-3.962.4-8.1,2.623-11.722a35.99,35.99,0,0,0,2.928-4.9c.04-.092.081-.192.111-.284,1.54-4.072.518-8.631,1.348-12.845a17.921,17.921,0,0,1,5.532-9.979c2.006-1.8,4.407-3.151,6.2-5.168,1.377-1.539,2.42-3.413,4.4-4.255,1.9-.809,4.356-.627,6.372-.729,1.762-.09,4.7-2.111,12.947-1.854,2.755.087,9.17,1.639,12.389,7.2,1.589,2.744,4.2,4.215,7.032,5.208,4.822,1.7,8.742,2.633,11.933,6.878.092.121.182.243.274.374.025.074.052.148.077.222a26.322,26.322,0,0,1,3.018,5.573c.922,2.32,3.955,6.86,6.68,6.14,4.379-1.157,5.674-5.033,6.922-6.14.4-.354.966,6.6-1.145,12.043-1.9,4.888-6.325,8.767-6.643,9.05-3.679,3.267-6.564,3.626-9.037,3a9.157,9.157,0,0,1-6.69-6.007c-.386-.922-1.423-6.357-5.856-9.34-2.678-1.8-2.66,1.552-9.763-1.277a18.521,18.521,0,0,1-5.8-4.825c-1.59-2.218-5.467-2.222-8.829,3.5-1.287,2.187-4.464,4.083-8.784,5.48-2.881.932-1.985,5.431-2.715,7.812a20.054,20.054,0,0,0-4.641,9.929c-.03.182-.243,4.324.537,6.412,0,.01.01.01.01.021,1.277,3.413,3.83,6.027,6.616,8.681,1.469,1.4,3,2.807,4.458,4.336a.432.432,0,0,0,.071.08,23.4,23.4,0,0,0,10.5,6.484c.274.092.556.172.84.263.1.03.213.05.324.092.648.182,1.337.364,2.077.536a1.323,1.323,0,0,0,.192.052c.618.151,1.277.293,1.965.435.457.1.923.192,1.408.294.061.019.121.019.173.04a1.9,1.9,0,0,1,.324.121,4.769,4.769,0,0,1,1.914,1.479l.025.03a10.793,10.793,0,0,1,1.342,2.067c.092.152.163.315.244.466,1.327,2.746.547,5.521-.982,8.014-.416.7-.882,1.357-1.358,2.006-.942,1.3-1.965,2.522-2.949,3.808-.861,1.145-2.836,4.286-4.032,5.026-2.067,1.256-7.983-1.216-8.286-1.419a23.6,23.6,0,0,1-6.4-6.311,8.983,8.983,0,0,1-.527-.871c-4.336-7.962-8.4-8.652-12.117-13.444-.192-.232-.364-.465-.537-.7-.4-.516-.769-1.024-1.124-1.54a30.924,30.924,0,0,1-1.013-4.265c-.061-.324-.111-.648-.161-.982-.031-.182-.061-.364-.081-.547a2.436,2.436,0,0,1-.04-.274c-.031-.212-.061-.425-.092-.638-.111-.851-.2-1.732-.274-2.623-.03-.426-.061-.842-.081-1.266A47.181,47.181,0,0,1,234.383-238.034Z" transform="translate(1904.639 467.451)" fill="#0d2945" fill-rule="evenodd"/>
        <g id="Group_1076" data-name="Group 1076" transform="translate(2118.423 163.909)" clip-path="url(#clip-path-5)">
          <path id="Path_2447" data-name="Path 2447" d="M267.726-292.16s6.076,10.7,5.8,14.58c-.238,3.379-.473,5.7-3.5,7.7-3.776,2.5-5.052,8.238-5.052,8.238l14.836,8.585,19.3-34.9Z" transform="translate(-189.239 309)" fill="#00497c" fill-rule="evenodd"/>
          <path id="Path_2448" data-name="Path 2448" d="M276.484-295.56a14.959,14.959,0,0,0-9.2-2.114c-4.771.694-9.722,1.761-10.58,3.255-1.729,3.012-3.364,5.9-7.448,6.754s-5,6.745-5.354,9.26c-.337,2.382-3.554,7.23-2.758,11.648.145.8,1.959,2.428,1.993,2.672.9,6.493-13.342,23.145-13.342,23.145l-13.532,1.34-5.342-4.863,29.276-62.7,31.925,2.6Z" transform="translate(-215.154 301.807)" fill="#0c0d18" fill-rule="evenodd"/>
          <path id="Path_2449" data-name="Path 2449" d="M227.476-259.089s.735,6.016,2.719,8.057c3.637,3.743,18.291,14.685,18.291,14.685s12.435,12.129,11.089,17.215-9.68,0-9.68,0l-11.9-7.937-10.513-15.2Z" transform="translate(-207.219 324.856)" fill="#0c0d18" fill-rule="evenodd"/>
          <path id="Path_2450" data-name="Path 2450" d="M236.974-277.151c.257-.04,1.937,2.67,1.071,4.379-.555,1.1-2.392,3.141-3.824,5.263a27.062,27.062,0,0,0-3.083,6.007c-1,3.273-4.557,18.177-5.163,18.274s1.614-23.216,1.614-23.216S236.366-277.053,236.974-277.151Z" transform="translate(-207.99 316.196)" fill="#0c0d18" fill-rule="evenodd"/>
        </g>
        <path id="Path_2452" data-name="Path 2452" d="M234.223-45.7c1.657,7.106-6.518,15.742-11.565,18.072-7.18,3.313,31.618,17.219,29.907,12.241-1.648-4.8-1.858-16.776,1.836-23.283C257.147-43.5,233.04-50.767,234.223-45.7Z" transform="translate(1908.468 590.252)" fill="#ed9ea2" fill-rule="evenodd"/>
        <g id="Group_1077" data-name="Group 1077" transform="translate(2130.238 542.83)" clip-path="url(#clip-path-6)">
          <path id="Path_2453" data-name="Path 2453" d="M242.962-43.228s-1.9,12.942-5.177,17.326-14.508,8.98-14.508,8.98l-7.14-17.347L234.33-52.313Z" transform="translate(-224.471 45.077)" fill="#c25367" fill-rule="evenodd"/>
          <path id="Path_2454" data-name="Path 2454" d="M244.357-40.828c-2.265.334-2.86,7.115-3.431,10.516s-1.059,7.164,0,9.89a32.348,32.348,0,0,0,3.431,5.476l7.243-18.36S246.622-41.163,244.357-40.828Z" transform="translate(-212.885 50.578)" fill="#c25367" fill-rule="evenodd"/>
        </g>
        <path id="Path_2456" data-name="Path 2456" d="M262.714-215.1s36.429,18.03,55.456,23.9c7.165,2.212,12.124,2.449,22.889,3.049a191.034,191.034,0,0,0,23.275.155c3.852-.256,28.351-1.477,33.779-.022,3.74,1,5.3,6.39,6.248,11.7a52.23,52.23,0,0,1,.833,8.322c.031,3.259-.42,5.671-1.545,5.694-1.991.043-4.79-13.03-8.588-14.016s-3.1,6.721-9.918,7.048c-1.951.1-6.834-7.473-10.815-7.048-9.266.987-28.953,14.4-44.777,12.97C307.983-165.3,246.018-188,246.018-188Z" transform="translate(1920.093 509.855)" fill="#ed9ea2" fill-rule="evenodd"/>
        <g id="Group_1078" data-name="Group 1078" transform="translate(2166.11 294.752)" clip-path="url(#clip-path-7)">
          <path id="Path_2457" data-name="Path 2457" d="M258.982-209.477c4.823,1.071,13.833,5.4,21.724,9.813,5.8,3.242,13.354,10.065,20.17,12.82,17.758,7.183,24.645,9.045,33.8,10.975,12.509,2.635,29.04-3.975,37.436-4.77,4.289-.4,10.7,2.3,15.111,2.3,3.866,0,5.117-5.381,11.368-2.3,7.027,3.466,7.64,15.307,7.64,16.33,0,1.935-21.181-4.718-21.181-4.718l-41.786,7.153-78.4-21.168-24.74-13.824S252.933-210.821,258.982-209.477Z" transform="translate(-248.843 217.757)" fill="#c25367" fill-rule="evenodd"/>
        </g>
        <path id="Path_2459" data-name="Path 2459" d="M229.3-235.1c7.206,11.842,49.349,23.929,48.967,30.541-.6,10.42-11.6,17.277-14.876,22.725-5.061,8.406-36.83-14.071-42.657-22.725S224.732-242.594,229.3-235.1Z" transform="translate(1907.108 499.687)" fill="#e9c7c7" fill-rule="evenodd"/>
        <g id="Group_1079" data-name="Group 1079" transform="translate(2126.043 263.379)" clip-path="url(#clip-path-8)">
          <path id="Path_2460" data-name="Path 2460" d="M225.636-222.632c3.589.649,10.816,14.191,17.653,15.844,5.631,1.361,11.719,3,17.214,4.8,7.68,2.518,14.2,5.36,16.666,8.23,6.378,7.414-14.167,5.385-14.167,5.385L222.835-210.34S217.8-224.05,225.636-222.632Z" transform="translate(-217.828 242.817)" fill="#d3a6a6" fill-rule="evenodd"/>
        </g>
        <path id="Path_2462" data-name="Path 2462" d="M239.474-206.028s17.393,3.355,21.347,4.506c8.667,2.522,26.744,8.362,39.744,13.549,13.709,5.468,29.848,15.706,42.506,19.264,10.754,3.024,23.853,3.959,31.73,2.231,4.459-.978,12.336-3.527,16.656-2.231s9.15,7.087,10.982,9.875c1.253,1.91,1.542,6.606,0,6.854-1.01.161-1.732-1.874-3.83-3.648-1.107-.936-3.279-1.624-4.6-2.264-1.562-.757-4.172-1.477-5.826-.942-2.779.894-7.887,6.319-11.669,6.854s-7.2-3.036-11.025-3.648c-5.575-.9-14.935-1.367-22.423-1.722-11.275-.534-45.227-1.484-45.227-1.484s-27.6-1.59-37.024-3.795c-7.027-1.644-17.011-7-21.347-10.065-3.015-2.132-11.892-10.29-11.892-10.29Z" transform="translate(1911.254 514.206)" fill="#ed9ea2" fill-rule="evenodd"/>
        <g id="Group_1080" data-name="Group 1080" transform="translate(2138.836 308.178)" clip-path="url(#clip-path-9)">
          <path id="Path_2463" data-name="Path 2463" d="M240.8-190.6s17.681.849,26.237,3.284c9.068,2.582,17.687,11.278,28.17,12.207,11.553,1.024,27.314,5.478,38.607,6.955,10.013,1.308,20.547.428,29.148,1.9,7.255,1.243,18.112-2.153,23.127,0,3.679,1.579,7.591,9.424,7.591,9.424l-120.229-3.378L231.76-173.742Z" transform="translate(-225.579 213.424)" fill="#c25367" fill-rule="evenodd"/>
        </g>
        <path id="Path_2465" data-name="Path 2465" d="M231.487-255.75c3.526-1.025,11.706,3.529,18.659,9.921,9.412,8.65,13.444,13.132,13.873,14.684,1.031,3.736.312,7.837,0,10.711-.9,8.312-3.9,16.718-2.428,22.5,1.549,6.067,18.169,13.379,25.433,16.943,8.967,4.4-13.13,37.223-17.469,31.126-4.225-5.94-21.187-8.588-21.187-8.588s3.148,19.119,2.318,28.179c-1.564,17.08-7.462,27.571-7.462,27.571s-23.157,1.743-32.362,6.224c-9.837,4.788-17.243,14.551-24.124,20.735-5.507,4.949-13.957,16.29-15.3,15.709-9.05-3.907-17-27.876-17.44-36.444-1.308-25.269,6.387-42.033,10.191-63.043,3.688-20.366,8.375-50.361,15.585-62.794C193.92-246.724,217.041-251.547,231.487-255.75Z" transform="translate(1875.901 490.297)" fill="#efefef" fill-rule="evenodd"/>
        <g id="Group_1081" data-name="Group 1081" transform="translate(2029.747 234.402)" clip-path="url(#clip-path-10)">
          <path id="Path_2466" data-name="Path 2466" d="M262.74-175.941a81.13,81.13,0,0,0-15.312-7c-9.716-3.119-21.912-5.233-28.438-8.547-9.415-4.779-28.916-21.381-28.916-21.381l14.712,34.724,46.585,12.454Z" transform="translate(-136.477 276.526)" fill="#d3a6a6" fill-rule="evenodd"/>
          <path id="Path_2467" data-name="Path 2467" d="M248.043-254.989s-9.7,2.456-16.355,6.591c-7.087,4.4-10.8,14.056-14.046,19.783-5.749,10.133-19.317,14.444-22.883,25.231-3.423,10.353-3,21.631-6.93,31.8-4.283,11.071-15.784,33.291-17.907,45.724s2.907,33.113,4.191,42.427c.877,6.365,7.88,24.611,7.88,30.472S154.335-74.37,154.335-74.37l-13.5-92.27,33.28-90.836Z" transform="translate(-160.086 255.136)" fill="#e9c7c7" fill-rule="evenodd"/>
          <path id="Path_2468" data-name="Path 2468" d="M195.717-190.145c-2.687,9.328-14.132,23.753-16.12,32.939-1.59,7.353,4.193,14.653,4.193,22.176,0,8.124-6.961,34.278-6.961,34.278h6.961l57.461-20.5,3.321-42.993-7.249-14.488s-14.317-5.431-19.388-11.4c-5.135-6.05-22.217-23.031-22.217-23.031S197.842-197.522,195.717-190.145Z" transform="translate(-142.827 276.377)" fill="#e9c7c7" fill-rule="evenodd"/>
        </g>
        <path id="Path_2470" data-name="Path 2470" d="M265.426-60.655c4.268,4.333,4.455,15.316,1.877,19.167-3.666,5.478,27.73-2.787,24.349-5.584-3.258-2.7-8.616-11.123-8.818-17.358C282.685-69.061,262.382-63.745,265.426-60.655Z" transform="translate(1929.25 581.225)" fill="#ed9ea2" fill-rule="evenodd"/>
        <g id="Group_1082" data-name="Group 1082" transform="translate(2194.365 514.978)" clip-path="url(#clip-path-11)">
          <path id="Path_2471" data-name="Path 2471" d="M273.186-63.3s4.279,10.029,3.851,14.574-6.413,12.695-6.413,12.695L258-45.269l5.1-20.743Z" transform="translate(-268.524 66.36)" fill="#c25367" fill-rule="evenodd"/>
          <path id="Path_2472" data-name="Path 2472" d="M276.974-64.113c-1.466,1.223,1.059,6.3,2.13,8.971s.9,7.852-1.123,8.833c-1.616.783,10.245.6,10.245.6l-2.834-16.2S278.438-65.335,276.974-64.113Z" transform="translate(-259.643 67.144)" fill="#c25367" fill-rule="evenodd"/>
        </g>
        <path id="Path_2474" data-name="Path 2474" d="M202.756-146.05s13.7-3.558,42.08-9.486c14.5-3.03,34.5-10.244,42.907-4.225,6.771,4.848,8.745,18.89,15.528,32.769C321.385-89.931,322.363-37.431,324.562-18.3c.386,3.351-5.582,5.631-8.1,6.069-2.4.418-11.028,1.55-13.194-2.357C296.5-26.783,290.78-58.106,275.877-85.4c-4.638-8.5-9.51-15.418-14.311-18.97-20.232-14.963-79.69,0-79.69,0Z" transform="translate(1889.342 535.274)" fill="#d05337" fill-rule="evenodd"/>
        <g id="Group_1083" data-name="Group 1083" transform="translate(2071.223 373.187)" clip-path="url(#clip-path-12)">
          <path id="Path_2475" data-name="Path 2475" d="M226.174-142.822c2.157.067,6.953-1.6,14.568-3.3,3.518-.784,9.656-5.788,13.231-3.9,11.312,5.976,18.353,19.677,22.4,33.482,4.483,15.271,8.137,53.07,11.223,77.141.342,2.663,3.412,8.089,3.663,10.286.33,2.858-.678,7.543,0,9.783,1.226,4.052,2.576,2.7,0,3.22L282.4-13.887,242.82-85.36S223.019-142.92,226.174-142.822Z" transform="translate(-160.807 167.671)" fill="#811d12" fill-rule="evenodd"/>
        </g>
        <path id="Path_2477" data-name="Path 2477" d="M229.972-153.909s-1.188.006-14.406,3.255c-8.394,2.064-17.194,7.378-22.179,10.158-5.856,3.265-7.63,14.022-15.45,17.663a40.628,40.628,0,0,1-18.388,3.369s3.736,10.52,16.842,14.678c17.089,5.421,46.063,5.146,56.634,5.777,16.088.962,43.119,2.358,52.824,3.435,4.82.536,8.485,2.293,7.652,7.069-3.048,17.49-30.048,72.7-30.586,90.389-.281,9.231,18.832,18.446,25.121,11.683C302.67-2.171,341.3-70.646,350.716-92.547c3.428-7.971.308-19.519-6.172-25.291-8.412-7.492-29.071-14.275-44.3-19.668C283.837-143.312,229.972-153.909,229.972-153.909Z" transform="translate(1878.635 539.195)" fill="#d05337" fill-rule="evenodd"/>
        <g id="Group_1084" data-name="Group 1084" transform="translate(2038.185 385.286)" clip-path="url(#clip-path-13)">
          <path id="Path_2478" data-name="Path 2478" d="M174.589-132.075c8.254,0,21.205,8.892,32.476,10.23,14.352,1.706,41.327-.87,53.629,0,6.933.491,13.466,3.452,20.186,5.227,7.34,1.938,19.877,1.917,23.853,6.406s2,13.987,0,20.529c-1.508,4.916-1.738,14.9-5.19,23.071-2.457,5.816-7.369,9.934-10.489,15.169-4.058,6.81-4.29,15.561-6.2,20.2-3.012,7.308-10.26,15.63-10.806,20.873-.38,3.634,3.2,5.659,4.125,7.816.459,1.07,0,4.046,0,4.046l-22.64-11.861L277.6-85.609l-115.894-17.4-15.08-29.067Z" transform="translate(-165.747 164.378)" fill="#811d12" fill-rule="evenodd"/>
          <path id="Path_2479" data-name="Path 2479" d="M313.137-128.956s-6.243,23.913-11.691,32.152c-6.508,9.841-17.586,28.507-24.692,40.557-7.488,12.7-15.31,24.128-20.239,35.643-3.6,8.42-10.006,19.339-12.007,24.715-.876,2.355,0,2.615,0,2.615l56.939-51.289,31.4-73.77s-13.141-2.159-19.711-5.7" transform="translate(-119.003 165.873)" fill="#811d12" fill-rule="evenodd"/>
        </g>
        <path id="Path_2481" data-name="Path 2481" d="M233.2-39.053c.555.042-.979,1.167-1.046,1.934-.135,1.564,3.659,5.476,6.221,6.483,6.943,2.73,11.571,3.162,14.123,2.624,1.188-.25,1.055-3.964,1.417-3.589a36.09,36.09,0,0,1,3.323,3.589c3.787,4.821,7.28,12.536,11.819,17.258,7.137,7.426,24.917,17.518,27.4,23.365,1.028,2.424-2.375,6.04-5.007,6.11-9.392.249-24.5-5.228-42.684-13.9C245,3.028,222-11.4,218.729-16.365c-2.858-4.336-1.8-12.5,0-15.581S229.479-39.332,233.2-39.053Z" transform="translate(1906.162 594.258)" fill="#00497c" fill-rule="evenodd"/>
        <g id="Group_1085" data-name="Group 1085" transform="translate(2123.122 555.192)" clip-path="url(#clip-path-14)">
          <path id="Path_2482" data-name="Path 2482" d="M238.2-38.169c3.076,2.32-8.149,13.108-5.357,19.1,3.03,6.511,14.42,15.2,23.538,19.963C267.609,6.773,283,17.715,300.238,16.182c3.764-.335-3.523,9.2-7.27,8.7-12.309-1.633-53.487-8.855-66.585-18.5-11.047-8.134-13.968-31.941-12-39.366S235.121-40.488,238.2-38.169Z" transform="translate(-218.469 38.853)" fill="#0d2945" fill-rule="evenodd"/>
        </g>
        <path id="Path_2484" data-name="Path 2484" d="M268.855-52.306c.685-.275-.118,1.467,1.363,2.066,2.233.9,7.051.806,9.257,0,3.086-1.128,5.973-1.625,7.175-5.47.314-1-.833-2.569,0-2.511,4.918.343,8.719,3.993,14.2,5.915,3.708,1.3,15.438,1.764,21.582,2.066,4.894.24,3.508,4.7,3.381,5.565-.287,1.951-18.869,6.625-27.188,8.939-7.468,2.077-17.356,4.594-22.726,4.942-3.3.214-7.752-.219-9.491-2.853s-1.354-9.838-.947-12.948C265.751-48.79,267.415-51.728,268.855-52.306Z" transform="translate(1929.251 585.073)" fill="#00497c" fill-rule="evenodd"/>
        <g id="Group_1086" data-name="Group 1086" transform="translate(2194.367 526.851)" clip-path="url(#clip-path-15)">
          <path id="Path_2485" data-name="Path 2485" d="M272.924-52.842c.049.067,1.3-.07,1.25,0-1.371,1.782-2.329,5.7-1.25,8.171,1.607,3.688,5.622,5.324,12.51,4.1,6.869-1.216,14.886.239,21.753-1.227,11.54-2.463,21.1-5.864,25.287-8.522,5.264-3.339,8.328,16.612,2.459,19.594-9.383,4.768-47.677,12.523-58.76,9.011-5.1-1.615-12.189-10.8-13.354-18.856-.723-4.991,3.5-12.983,6.724-14.975C271.19-56.559,272.211-53.825,272.924-52.842Z" transform="translate(-266.257 59.401)" fill="#0d2945" fill-rule="evenodd"/>
        </g>
        <path id="Path_2487" data-name="Path 2487" d="M150.478-189.723c.871-3.666,12.05-2.382,17.863-2.728,13.4-.8,62.929-4.79,62.929-4.79s1.919,1.725,2.929,2.481c1.064.8,3.458,2.293,3.458,2.293s-54.974,8.275-69.635,10.4c-6.1.886-17.4,2.046-18.042-1.293a14.589,14.589,0,0,1,.5-6.368Z" transform="translate(1873.963 518.418)" fill="#480a0a" fill-rule="evenodd"/>
        <g id="Group_1088" data-name="Group 1088" transform="translate(2023.768 321.176)" clip-path="url(#clip-path-16)">
          <path id="Path_2488" data-name="Path 2488" d="M169.016-191.048l-3.426,9.6H147.707l1.369-11.79L168.5-194.8Z" transform="translate(-150.811 198.411)" fill="#250505" fill-rule="evenodd"/>
          <path id="Path_2489" data-name="Path 2489" d="M151.52-192.522s1.295,3.042,3.277,3.172c6.292.413,38.494-.592,45.245-2.269,2.789-.692,7.579-6.14,7.579-6.14Z" transform="translate(-148.983 196.994)" fill="#8d1515" fill-rule="evenodd"/>
          <g id="Group_1087" data-name="Group 1087" transform="translate(2.537 -0.765)" clip-path="url(#clip-path-17)">
            <path id="Path_2490" data-name="Path 2490" d="M172.045-193.806s-5,5.149-8.189,5.751-11.164-2.182-11.164-2.182l-2.123-6.155Z" transform="translate(-151.976 198.414)" fill="#660e0e" fill-rule="evenodd"/>
          </g>
        </g>
        <path id="Path_2493" data-name="Path 2493" d="M170.96-244.28c.9,1.515,5.011,2.017,9.285,2.994,13.513,3.089,42.678,10.122,51.425,15.167,9.363,5.4,20.641,18.28,21.54,23.856,0,.016.049,1.224.21,1.308.766.4,1.608-.818,1.991-1.41,1.272-1.965.648-8.122-.513-10.143-3.036-5.286-9.137-15.617-18.362-20.9-8.64-4.947-38.025-11.139-51.127-13.732-3.929-.778-8.153-3.712-10.562-3.237C172.484-249.907,170.061-245.8,170.96-244.28Z" transform="translate(1884.014 492.919)" fill="#480a0a" fill-rule="evenodd"/>
        <g id="Group_1090" data-name="Group 1090" transform="translate(2054.782 242.493)" clip-path="url(#clip-path-18)">
          <path id="Path_2494" data-name="Path 2494" d="M207.341-243.289l-8.812,6.761-30.987-5.462,9.362-9.923Z" transform="translate(-172.315 249.713)" fill="#250505" fill-rule="evenodd"/>
          <path id="Path_2495" data-name="Path 2495" d="M174.67-251.314s-2.061,3.108-.367,3.771c7.638,2.984,47.149,12.479,58.421,18.98,6.28,3.622,13.762,12.177,17.956,18.729,1.6,2.494,2.215,7.239,1.367,9.111-.456,1,.867.608,1.324.806,3.634,1.573,3.866-19.948,3.866-19.948l-24.513-21.887Z" transform="translate(-169.394 250)" fill="#8d1515" fill-rule="evenodd"/>
          <g id="Group_1089" data-name="Group 1089" transform="translate(4.242 -1.314)" clip-path="url(#clip-path-19)">
            <path id="Path_2496" data-name="Path 2496" d="M208.015-242.767c-5.456-1.691-5.19,4.1-8.11,3.619-5.714-.938-29.336-8.319-29.336-8.319l5.888-5.224S211.376-241.725,208.015-242.767Z" transform="translate(-175.106 250.654)" fill="#660e0e" fill-rule="evenodd"/>
          </g>
        </g>
        <path id="Path_2499" data-name="Path 2499" d="M298.887-260.61a12.33,12.33,0,0,0-6.229,6.082,45.542,45.542,0,0,0-2.919,14.982c.007,8.158-3.088,6.013-4.526,6.122a5.261,5.261,0,0,0-4.987,5.024c-.12,1.13-1.358,1.133-1.67,2.024-.345.984.253,1.639,0,2.614a9.218,9.218,0,0,1-2.048,3.2c-1.568,1.672-15.021,10.745-15.021,10.745L244.614-228.4s-9,6.362-7.224,15.9-2.954,6.424-5.009,5.106c-5.191-3.329-23.216-19.866-25.524-26.025a4.221,4.221,0,0,1,0-2.589s14.1-1.667,22.513-22.547c1.286-3.191,4.154-5.94,4.783-10.421,3.41-24.281,21-27.448,21-27.448s12.3-5.307,31.521,12.241S298.887-260.61,298.887-260.61Z" transform="translate(1901.217 470.5)" fill="#ed9ea2" fill-rule="evenodd"/>
        <g id="Group_1091" data-name="Group 1091" transform="translate(2107.864 173.317)" clip-path="url(#clip-path-20)">
          <path id="Path_2500" data-name="Path 2500" d="M246.778-280.281a26.507,26.507,0,0,0-4.708,6.735c-5.529,10.9-5.31,15.977-10.725,24.238-2.444,3.73-15.085,6.455-17.344,15.638-1.553,6.311-13.064-.9-12.956-7.866.077-5.042,8.156-12.259,8.156-12.259l30.11-28.969Z" transform="translate(-209.333 304.097)" fill="#c25367" fill-rule="evenodd"/>
          <path id="Path_2501" data-name="Path 2501" d="M270.051-269.685c-2.916,3.089-9.112,7.3-12,13.849-3.273,7.425-5.215,28.645-5.215,28.645l22.713-9.887s2.064-28.921,0-37.294C275.175-275.9,272.336-272.107,270.051-269.685Z" transform="translate(-184.501 307.952)" fill="rgba(219,218,218,0.42)" fill-rule="evenodd"/>
        </g>
        <path id="Path_2503" data-name="Path 2503" d="M234.383-238.034c.062-1.4.362-15.449,4.366-18.468,4.037-3.045,4.453-5.6,4.438-6.048-.132-3.938-3.83-4.832-4.468-4.995a5.34,5.34,0,0,0-4.265.618c-1.6,1.093-2.736,3.728-3.758,5.4-1.9,3.089-3.86,5.419-3.3,9.208.608,4.1-4.123,7.751-7.1,8.489a11.337,11.337,0,0,1-6.5,0,8.582,8.582,0,0,0,4.891-3c1.346-1.429,1.394-3.048,1.92-4.952,1.093-3.962.4-8.1,2.623-11.722a35.99,35.99,0,0,0,2.928-4.9c.04-.092.081-.192.111-.284,1.54-4.072.518-8.631,1.348-12.845a17.921,17.921,0,0,1,5.532-9.979c2.006-1.8,4.407-3.151,6.2-5.168,1.377-1.539,2.42-3.413,4.4-4.255,1.9-.809,4.356-.627,6.372-.729,1.762-.09,4.7-2.111,12.947-1.854,2.755.087,9.17,1.639,12.389,7.2,1.589,2.744,4.2,4.215,7.032,5.208,4.822,1.7,8.742,2.633,11.933,6.878.092.121.182.243.274.374.025.074.052.148.077.222a26.322,26.322,0,0,1,3.018,5.573c.922,2.32,3.955,6.86,6.68,6.14,4.379-1.157,5.674-5.033,6.922-6.14.4-.354.966,6.6-1.145,12.043-1.9,4.888-6.325,8.767-6.643,9.05-3.679,3.267-6.564,3.626-9.037,3a9.157,9.157,0,0,1-6.69-6.007c-.386-.922-1.423-6.357-5.856-9.34-2.678-1.8-2.66,1.552-9.763-1.277a18.521,18.521,0,0,1-5.8-4.825c-1.59-2.218-5.467-2.222-8.829,3.5-1.287,2.187-4.464,4.083-8.784,5.48-2.881.932-1.985,5.431-2.715,7.812a20.054,20.054,0,0,0-4.641,9.929c-.03.182-.243,4.324.537,6.412,0,.01.01.01.01.021,1.277,3.413,3.83,6.027,6.616,8.681,1.469,1.4,3,2.807,4.458,4.336a.432.432,0,0,0,.071.08,23.4,23.4,0,0,0,10.5,6.484c.274.092.556.172.84.263.1.03.213.05.324.092.648.182,1.337.364,2.077.536a1.323,1.323,0,0,0,.192.052c.618.151,1.277.293,1.965.435.457.1.923.192,1.408.294.061.019.121.019.173.04a1.9,1.9,0,0,1,.324.121,4.769,4.769,0,0,1,1.914,1.479l.025.03a10.793,10.793,0,0,1,1.342,2.067c.092.152.163.315.244.466,1.327,2.746.547,5.521-.982,8.014-.416.7-.882,1.357-1.358,2.006-.942,1.3-1.965,2.522-2.949,3.808-.861,1.145-2.836,4.286-4.032,5.026-2.067,1.256-7.983-1.216-8.286-1.419a23.6,23.6,0,0,1-6.4-6.311,8.983,8.983,0,0,1-.527-.871c-4.336-7.962-8.4-8.652-12.117-13.444-.192-.232-.364-.465-.537-.7-.4-.516-.769-1.024-1.124-1.54a30.924,30.924,0,0,1-1.013-4.265c-.061-.324-.111-.648-.161-.982-.031-.182-.061-.364-.081-.547a2.436,2.436,0,0,1-.04-.274c-.031-.212-.061-.425-.092-.638-.111-.851-.2-1.732-.274-2.623-.03-.426-.061-.842-.081-1.266A47.181,47.181,0,0,1,234.383-238.034Z" transform="translate(1904.639 467.451)" fill="#0d2945" fill-rule="evenodd"/>
        <g id="Group_1092" data-name="Group 1092" transform="translate(2118.423 163.909)" clip-path="url(#clip-path-5)">
          <path id="Path_2504" data-name="Path 2504" d="M267.726-292.16s6.076,10.7,5.8,14.58c-.238,3.379-.473,5.7-3.5,7.7-3.776,2.5-5.052,8.238-5.052,8.238l14.836,8.585,19.3-34.9Z" transform="translate(-189.239 309)" fill="#00497c" fill-rule="evenodd"/>
          <path id="Path_2505" data-name="Path 2505" d="M276.484-295.56a14.959,14.959,0,0,0-9.2-2.114c-4.771.694-9.722,1.761-10.58,3.255-1.729,3.012-3.364,5.9-7.448,6.754s-5,6.745-5.354,9.26c-.337,2.382-3.554,7.23-2.758,11.648.145.8,1.959,2.428,1.993,2.672.9,6.493-13.342,23.145-13.342,23.145l-13.532,1.34-5.342-4.863,29.276-62.7,31.925,2.6Z" transform="translate(-215.154 301.807)" fill="#0c0d18" fill-rule="evenodd"/>
          <path id="Path_2506" data-name="Path 2506" d="M227.476-259.089s.735,6.016,2.719,8.057c3.637,3.743,18.291,14.685,18.291,14.685s12.435,12.129,11.089,17.215-9.68,0-9.68,0l-11.9-7.937-10.513-15.2Z" transform="translate(-207.219 324.856)" fill="#0c0d18" fill-rule="evenodd"/>
          <path id="Path_2507" data-name="Path 2507" d="M236.974-277.151c.257-.04,1.475,2.56.61,4.268-.555,1.1-2.509,2.977-3.941,5.1a26.221,26.221,0,0,0-3.015,6.085c-1,3.274-4.046,18.372-4.653,18.47s1.614-23.216,1.614-23.216S236.366-277.053,236.974-277.151Z" transform="translate(-207.99 316.196)" fill="#0c0d18" fill-rule="evenodd"/>
        </g>
        <path id="Path_2509" data-name="Path 2509" d="M148.95-211.927l3.965-17.558c.087-.456.7-.676,1.292-.465a1.166,1.166,0,0,1,.744,1.432l-4.163,17.486s-.953-.408-1.194-.539C149.388-211.681,148.95-211.927,148.95-211.927Z" transform="translate(1873.553 502.697)" fill="#250000" fill-rule="evenodd"/>
        <g id="Group_1093" data-name="Group 1093" transform="translate(2022.503 272.667)" clip-path="url(#clip-path-22)">
          <path id="Path_2510" data-name="Path 2510" d="M154.3-230.068l-4.45,19.054.62.308,4.66-18.421-.83-.941" transform="translate(-148.52 230.013)" fill="#8d1515" fill-rule="evenodd"/>
        </g>
        <path id="Path_2512" data-name="Path 2512" d="M152.28-227.71a7.494,7.494,0,0,1,0-2.738,8.289,8.289,0,0,1,2.107-2.907,4.855,4.855,0,0,1,2.209-.435s-.792.186-1.728,1.83c-.843,1.478-.655,2.4-1.087,3.107a4.949,4.949,0,0,1-1.5,1.144" transform="translate(1875.082 500.894)" fill="#e9c7c7" fill-rule="evenodd"/>
        <g id="Group_1094" data-name="Group 1094" transform="translate(2027.22 267.103)" clip-path="url(#clip-path-23)">
          <path id="Path_2513" data-name="Path 2513" d="M156.553-233.8a7.633,7.633,0,0,0-2.228,1.411,11.652,11.652,0,0,0-1.169,2.832c-.28.669-.939,1.869-.939,1.869l2.108-.488Z" transform="translate(-152.101 233.789)" fill="#efefef" fill-rule="evenodd"/>
        </g>
        <path id="Path_2515" data-name="Path 2515" d="M150.944-212.185l3.7-14.024c.087-.456.7-.676,1.292-.465a1.166,1.166,0,0,1,.744,1.432l-4.227,13.518-.784-.222C151.449-212.009,150.944-212.185,150.944-212.185Z" transform="translate(1874.509 504.268)" fill="#250000" fill-rule="evenodd"/>
        <g id="Group_1095" data-name="Group 1095" transform="translate(2025.453 277.513)" clip-path="url(#clip-path-24)">
          <path id="Path_2516" data-name="Path 2516" d="M151.526-211.539l4.8-15.422,1.481,1.318-5.681,14.811Z" transform="translate(-150.665 226.656)" fill="#8d1515" fill-rule="evenodd"/>
        </g>
        <path id="Path_2518" data-name="Path 2518" d="M153.844-225.152s.1-4.6.685-5.075,2.947.593,3.079,1.442-2.508,4.429-2.508,4.429a.959.959,0,0,1-.907-.093.664.664,0,0,1-.349-.7Z" transform="translate(1875.895 502.547)" fill="#e9c7c7" fill-rule="evenodd"/>
        <g id="Group_1096" data-name="Group 1096" transform="translate(2029.731 272.202)" clip-path="url(#clip-path-25)">
          <path id="Path_2519" data-name="Path 2519" d="M154.526-230.451s1.969.732,1.935,1.561c-.043,1.067-2.193,4.847-2.193,4.847l1.335.291,2.48-5.7-3.557-1" transform="translate(-153.627 230.293)" fill="#efefef" fill-rule="evenodd"/>
        </g>
        <path id="Path_2521" data-name="Path 2521" d="M147.248-214.956l1.725-12.035c.087-.456.7-.676,1.292-.463a1.164,1.164,0,0,1,.744,1.431l-2.215,12.3a8.578,8.578,0,0,1-.979-.692C147.571-214.629,147.248-214.956,147.248-214.956Z" transform="translate(1872.737 503.893)" fill="#250000" fill-rule="evenodd"/>
        <g id="Group_1097" data-name="Group 1097" transform="translate(2019.985 276.357)" clip-path="url(#clip-path-26)">
          <path id="Path_2522" data-name="Path 2522" d="M150.157-227.719s.525-.1.5,0a9.273,9.273,0,0,0,.507,2l-2.647,12.393-.624-.178Z" transform="translate(-146.939 227.427)" fill="#8d1515" fill-rule="evenodd"/>
        </g>
        <path id="Path_2524" data-name="Path 2524" d="M149.309-224.665a7.469,7.469,0,0,0,1.772-2.086,8.292,8.292,0,0,0,.277-3.579c-.154-.734-1.4-1.762-1.4-1.762s.484.654.133,2.514c-.314,1.672-1.053,2.252-1.184,3.071a4.962,4.962,0,0,0,.4,1.842" transform="translate(1873.526 501.709)" fill="#e9c7c7" fill-rule="evenodd"/>
        <g id="Group_1098" data-name="Group 1098" transform="translate(2022.418 269.617)" clip-path="url(#clip-path-27)">
          <path id="Path_2525" data-name="Path 2525" d="M149.83-232.094a7.638,7.638,0,0,1,.783,2.518,11.621,11.621,0,0,1-.942,2.915c-.22.691-.494,2.033-.494,2.033l2.66-1.3v-4.712Z" transform="translate(-148.757 232.091)" fill="#efefef" fill-rule="evenodd"/>
        </g>
      </g>
      <g id="Group_1104" data-name="Group 1104" transform="translate(941.475 396.983) rotate(-4.012)">
        <path id="Path_2528" data-name="Path 2528" d="M96.486-157.072c-9.81-1.092-12.9,13.95-20.536,28.985-5.979,11.778-8.39,11.121-10.448,17.366-1.448,4.4-5.952,12.819-5.545,20.695.4,7.663,3.826,16.446,7.015,18.587,10.832,7.278,7.515,15.764,11.51,16.834s7.5-8.281,12.457-10.412c9.271-3.98,15.714-7.137,18.24-14.811,7.855-23.865,4.168-40.338,1.819-53.157C109.22-142.686,105.921-156.023,96.486-157.072Z" transform="translate(37.209)" fill="#163d6d" fill-rule="evenodd"/>
        <path id="Path_2529" data-name="Path 2529" d="M144.35-114.416c.029,9.224-8.861,11.368-16.753,24.364-6.184,10.181-4.676,11.793-8.426,16.307-2.639,3.178-4.961,7.922-10.96,11.228-5.837,3.218-12.253,3.976-15.189,2.431-9.971-5.25-18.382,4.581-20.865,1.9s2.952-9.776,2.428-14.7c-.979-9.2,2.384-14.915,6.993-20.46,14.332-17.246,30.8-23.423,41.7-25.411C133.577-120.632,144.342-116.631,144.35-114.416Z" transform="translate(47.995 35.314)" fill="#092056" fill-rule="evenodd"/>
        <path id="Path_2530" data-name="Path 2530" d="M67.713-43.927c-1.041-2.735,4.5-8.936-7.26-12.637-12.09-3.8-16.515-.444-19.654,1.818-2.712,1.955-3.516,7.506-1.957,9.718s7.882,3,12.047,3.228c4.2.231,10.53-2.116,13.165-1.841,1.411.147,2.037,3.538,2.647,3.49S68.163-42.747,67.713-43.927Z" transform="translate(16.818 92.128)" fill="#163d6d" fill-rule="evenodd"/>
        <path id="Path_2531" data-name="Path 2531" d="M102.953-77.36c.562-1.1-2.12-3.588-4-7.115-2.078-3.909-6.9-7.231-9.59-9.021-6.509-4.331-19.573-8.51-28.518-10.236-8.194-1.578-18.535-1.519-25.153-.112C30.33-102.7,21.523-97.579,20.188-95.61s5.216,2.551,7.284,3.861c3.989,2.526,10.88,9.814,17.6,11.616,7.8,2.091,18.683,3.972,29.383,1.871,5.028-.987,11.355-4.168,15.116-4.355,2.605-.129,6.252.513,7.5,2.01C98.124-79.353,102.477-76.428,102.953-77.36Z" transform="translate(0 48.673)" fill="#0e3760" fill-rule="evenodd"/>
        <path id="Path_2532" data-name="Path 2532" d="M66.7-61.505c2.874-2.628,8.82-7.554,22.786-10.77,8.952-2.061,21.077-2.384,30.931-1.545,9.638.821,22.618,3.986,28.192,6.58,3.028,1.408,6.148,7.417,5.257,8.98s-7.151-.6-10.6.4a97.07,97.07,0,0,0-12.939,4.407c-4.814,2.179-8.928,5-12.548,5.639-5.773,1.017-11.654-.6-17.168-2.531-16.063-5.634-14.557-8.078-20-9.536-4.451-1.193-10.124,1.031-12.652.788C67.1-59.181,66.025-60.885,66.7-61.505Z" transform="translate(43.322 77.249)" fill="#0e3760" fill-rule="evenodd"/>
        <path id="Path_2533" data-name="Path 2533" d="M88.738-43.23c-.737-3.6-1.507-13.557-9.345-22.615C74.369-71.65,66.851-78.212,59.521-81.977A62.4,62.4,0,0,0,37.9-87.77c-2.637-.11-7.429,4.339-8.473,8.537-4.527,18.195,19.44,27.845,23.962,28.6,13.175,2.2,21.126,1.483,25.389,2.625,3.486.934,6.261,5.421,8.048,6.334C87.438-41.361,88.912-42.381,88.738-43.23Z" transform="translate(8.25 64.645)" fill="#092056" fill-rule="evenodd"/>
        <path id="Path_2534" data-name="Path 2534" d="M44.931,97.173C50.889,78.694,56.947,60.249,62.8,41.736c5.986-18.92,13.674-41.77,18.045-58.083,3.506-13.084,5.263-26.566,8.181-39.791,1.288-5.842,1.535-15.342,3.8-25.448,5.239-23.382,13.369-50.97,13.638-50.9S99.442-104.437,94.757-81.07c-2.091,10.429-2.234,19.621-3.411,25.553-2.54,12.8-4.873,25.988-7.77,38.36Q79.342.92,73.963,18.715c-3.7,12.245-8.791,24.932-12.582,37.6-3.981,13.3-8.576,35.428-11.318,42.239-.72,1.789-3.421-.917-5.132-1.375" transform="translate(23.228 22.971)" fill="#0c0d18" fill-rule="evenodd"/>
        <path id="Path_2535" data-name="Path 2535" d="M131.308-113.25c-12.422,9.5-28.324,20.38-37.265,28.512-6.356,5.78-11.791,13.9-16.383,20.28-4.11,5.715-9.113,14.3-11.166,18.022-.714,1.293-2.032,5.477-1.153,4.3,2.185-2.917,9.072-14.884,14.264-21.8A161.4,161.4,0,0,1,96.759-84.011c8.617-8.218,23.033-19.492,34.549-29.239" transform="translate(41.979 40.898)" fill="#0c0d18" fill-rule="evenodd"/>
        <path id="Path_2536" data-name="Path 2536" d="M62.918-59.416C68.2-61.859,85.349-69.281,93.8-71.126c6.555-1.431,11.127-.955,15.988-.868,3.1.055,10.026,1.322,13.081,1.761,5.919.851,25.8,6.2,25.718,6.492S131.268-67.38,122.5-68.872c-9.061-1.542-19.562-2.355-29.208-.373C83.23-67.178,67.178-58.06,62.128-56.47,61.128-56.155,61.957-58.972,62.918-59.416Z" transform="translate(38.834 79.216)" fill="#0c0d18" fill-rule="evenodd"/>
        <path id="Path_2537" data-name="Path 2537" d="M100.189-75.687c-2.918-3.127-11.282-12.458-18.336-15.665s-15.9-3.143-23.989-3.576c-8.353-.446-26.5-5.448-26.585-5.14s17.855,6.1,26.089,6.991c8.022.867,18.954.918,23.772,4.386,1.23.886,7.718,5.211,8.86,6.221,3.037,2.683,6.756,8.216,9.359,9.879C100.192-72.06,100.873-74.954,100.189-75.687Z" transform="translate(10.503 53.171)" fill="#0c0d18" fill-rule="evenodd"/>
        <path id="Path_2538" data-name="Path 2538" d="M81.953-51.1c-3.312-3.835-13.476-15.98-20.581-20.358-6.519-4.017-21.981-6.148-22.045-5.907s15.328,2.985,21.658,7.352C67.971-65.2,77.748-51.606,81.243-48.454,81.876-47.882,82.516-50.453,81.953-51.1Z" transform="translate(18.004 74.324)" fill="#0c0d18" fill-rule="evenodd"/>
        <path id="Path_2539" data-name="Path 2539" d="M71.431-40.126c-.7-.881-3.215-2.155-4.78-4.508-2.076-3.123-3.416-7.45-5.788-8.466-4.159-1.781-10.2-1.937-13.205-1.5-1.448.212-7.673,1.852-7.5,1.9s5.812-.72,7.507-.843c2.946-.214,9.321.131,12.83,1.8,2.192,1.04,3.39,5.4,5,8.31.9,1.617,2.49,2.248,3.094,2.9.761.821,1.812,2.4,2.284,2.464S71.848-39.6,71.431-40.126Z" transform="translate(18.781 95.374)" fill="#0c0d18" fill-rule="evenodd"/>
      </g>
    </g>
  </g>
</svg>
