<svg xmlns="http://www.w3.org/2000/svg" width="601.5" height="446.7">
  <defs>
    <clipPath id="a">
      <path fill="#f1f2f7" d="M122-2.3C349.5-1 279.5 100.3 360 137c107.5 49 212.2-5.3 209.3 93.8.5 147.3-172.7 213.5-305.8 213.5s-268.7-120-290-233.8S-11.1-2.4 122-2.4z" data-name="Path 2692" opacity=".4" transform="translate(391 449)"/>
    </clipPath>
  </defs>
  <g data-name="Group 1204">
    <g data-name="Group 1201">
      <path fill="#f1f2f7" d="M154.2 0C381.7 1.4 311.6 102.7 392 139.4c107.6 49 212.3-5.3 209.3 93.8.6 147.4-172.7 213.5-305.8 213.5S26.9 326.7 5.6 213 21.1 0 154.2 0z" data-name="Path 2662" opacity=".4"/>
      <g clip-path="url(#a)" data-name="Mask Group 7" transform="translate(-358.8 -446.7)">
        <path fill="#d0d4e2" d="M395.9 820.9s121.9-10.5 194-10.8c28.7-.1 52.5 3.3 52.4 6.8-.3 12.5-65 8.1-44.3 17.1s141.2-4 146 12.4-67.4 13.4-58.2 25.1 114.7 12.3 98.3 26-199 28.7-199 28.7z" data-name="Path 2691" opacity=".3"/>
      </g>
      <g fill-rule="evenodd" data-name="Group 1110">
        <path fill="#00497c" d="M132 419.7a144 144 0 0 1 17.6-16.4 63.6 63.6 0 0 1 15.3-7c2.2-.7 7-1.2 7 0s-4.1 6.2-7 8c-2.9 2-7.1 2.5-10.5 4a66.4 66.4 0 0 0-9.8 5c-3 2-6 5.2-8.1 6.4-1.3.7-5.5 1.2-4.6 0z" data-name="Path 2416"/>
        <path fill="#00497c" d="M126.3 417.8A71.2 71.2 0 0 0 116 411a96.2 96.2 0 0 0-15.4-5.6 21 21 0 0 0-8.3 0c-5 1-7.4 3.6-7 5.6s5.8 5.7 9.6 6.7c4.2 1 11.1 0 15.6 0 3.8 0 8.8-.5 11.4 0 1.7.3 3.1 2.4 4.3 3 .8.3 2.7.4 2.7 0s-1.7-2.2-2.7-3z" data-name="Path 2417"/>
        <path fill="#092056" d="M129.2 418c1.5-5 8.4-20.9 12.1-30.3 3.5-8.8 6-20.7 10.2-26.3 3.2-4.4 6-8.6 14.6-8.1 7 .4 8.7 5.7 9.2 8s-3.8 5-6.1 7.2c-3 3-8.8 6.5-12.4 10.4a148.3 148.3 0 0 0-15.5 19.7c-3.7 6-6.8 16.2-8.8 19.5-.6 1-3.6 1-3.3 0z" data-name="Path 2418"/>
        <path fill="#00497c" d="M125.5 399.5c2-5.7 5.4-18.4 9.7-24.8a50.6 50.6 0 0 1 15.3-14.4c3.9-2.2 10-2.8 13.8-.8 2 1 3.4 4.6 2.2 6.5-1.8 2.6-7.9 6.1-12 9.4a147.9 147.9 0 0 0-13.2 11.7c-3.6 3.8-8.5 8.6-10.6 12.4-1.8 3-2.1 8.3-3.3 10-.6 1-3.3 1.2-3.5 0a29 29 0 0 1 1.6-10z" data-name="Path 2419"/>
        <path fill="#092056" d="M125.9 414c-.4-3.7-.5-13.4-2-18.2-1.3-4-5.9-6.3-7.3-10.2a65 65 0 0 1-4.6-23.4c.8-10.5 2.5-19 12-24.5a16 16 0 0 1 14.8 0c8.4 4.5 9.3 11.4 9.2 18-.1 6.4-1.9 14.1-3.2 19.4a47.5 47.5 0 0 1-4.8 12.2c-1.6 2.7-5.6 3.7-6.8 6.7-1.7 4-2.5 13.7-3 17.7-.3 2 .7 5.1 0 6.2s-3.6.6-4.3 0 0-2.6 0-3.9z" data-name="Path 2420"/>
        <path fill="#092056" d="M124.3 406.7A187 187 0 0 0 110 394c-5.2-4-8.3-7.8-21.3-10.1-4.5-.8-10.8-1-13.7 0-2.2.7-4.5 3.6-3.8 5.8.8 2.4 4.9 7 8.6 8.7 4.6 2 12.9 2 18.7 3.5a140.6 140.6 0 0 1 16 5c3.5 1.3 7.4 2.9 10 5 2.3 2.1 3.8 7.4 5 8s3.3-2.6 2.7-4c-.8-2.3-5-6.3-7.8-9z" data-name="Path 2421"/>
        <path fill="#00497c" d="M100.5 349.2c-1.7-1.6-6.3.1-6.5 2.4-.4 4.5.8 17 4.3 24.3s12 14.8 16.9 20.4c3.9 4.6 9.7 10 12.2 13.3 1.4 1.9 1.5 6.1 2.4 6.5s3.4-2.4 3.2-4.1a71 71 0 0 0-5.6-17.7c-3.5-7.2-13-19.7-16.8-25.2-1.9-2.8-7.1-17-10.1-20z" data-name="Path 2422"/>
        <path fill="#0e3760" d="M126.9 420.9c-1-2.1.7-12.1 0-17-.5-3.2-1.8-6.4-2.7-9.1-2.1-7.2-8.7-14.7-9-22-.5-18.3 8.2-21.6 13-22 10-.7 12.9 5.7 14.5 11a47.8 47.8 0 0 1 0 19.9c-1 4.8-5.5 8.3-6.8 13-.7 2.6-2.4 5.6-2.7 9.3-.4 4.5-.7 15-1.4 16.9-.6 1.5-4.3 1.5-5 0z" data-name="Path 2423"/>
        <path fill="#163d6d" d="M124.7 421.9s-7.6-8-8-13c-.4-5.1 1.4-14.2 5.6-17.7s15.6-4.6 19.6-3 4.9 7.8 3.9 11.9c-1 4.3-8.6 10.2-10.3 13.9-1.1 2.4 0 7.9 0 7.9z" data-name="Path 2424"/>
      </g>
      <g fill-rule="evenodd" data-name="Group 1115">
        <path fill="#163d6d" d="M178.8 126.7c-11 1.5-10 17.4-14 34.4-3.1 13.4-6 13.4-6.4 20.2-.3 4.7-2.8 14.4 0 22.1 2.7 7.5 9 15.4 13.2 16.7 14.1 4.4 13 13.7 17.7 13.7s5.8-10.3 10.6-13.7c9-6.5 15.2-11.3 15.8-19.7 1.6-25.9-7.4-41.4-13.7-53.5-4.9-9.2-12.4-21.7-23.2-20.2z" data-name="Path 2404"/>
        <path fill="#092056" d="M266.6 188.9c2.7 9.2-6.5 13.7-11.3 28.8-3.8 11.8-1.7 13-4.5 18.5-2 3.9-3.1 9.2-8.8 14.1-5.4 4.8-12.3 7.3-16 6.5-12.5-2.6-19 9.5-22.4 7.5s.3-10.6-1.7-15.3c-3.8-9-1.8-15.6 1.7-22.3a77.5 77.5 0 0 1 38.4-36.5c10.8-4.7 23.9-3.6 24.6-1.3z" data-name="Path 2405"/>
        <path fill="#163d6d" d="M185.3 344.8c-2-2.5 2.3-10.2-11.8-10.7-14.4-.6-18.3 4-21 7-2.5 2.7-1.7 8.5.6 10.3s9.6.9 14.3 0c4.7-1 11-5 14-5.4 1.5-.2 3.2 3 3.9 2.8s.8-3 0-4z" data-name="Path 2406"/>
        <path fill="#0e3760" d="M182.9 263c.3-1.2-3.4-3-6.5-6a35.2 35.2 0 0 0-13.3-6.4 118 118 0 0 0-34.4-2.6 88 88 0 0 0-27.8 6.6c-5.6 2.6-13.8 10-14.7 12.4s6.5 1.2 9.2 2c5.1 1.4 14.9 6.8 22.8 6.8 9.3 0 21.8-1 33-6 5.2-2.3 11.3-7.2 15.4-8.4 2.8-.8 7-1.1 8.8 0 1.6 1 7.2 2.7 7.5 1.7z" data-name="Path 2407"/>
        <path fill="#0e3760" d="M203.8 305.5c2.4-3.3 7.5-9.9 22-16.8a134 134 0 0 1 66.6-10.8c3.8.6 9 5.8 8.5 7.6s-8 1.3-11.6 3.2a112.4 112.4 0 0 0-13 7.9c-4.6 3.4-8.3 7.3-12.1 9-6 2.5-13 2.5-19.7 2-19.4-1.3-18.4-4.2-24.9-4.2-5.2 0-10.8 3.8-13.7 4.2-1 .2-2.7-1.3-2-2z" data-name="Path 2408"/>
        <path fill="#092056" d="M191.1 314.7c-1.9-3.4-5.7-13.1-17-20-7.2-4.5-17.5-9-26.7-10.9a78.6 78.6 0 0 0-25.5 0c-3 .6-7 6.4-6.8 10.8.4 19.4 29.6 22.6 34.8 22.2 15.2-1.4 23.8-4.2 28.8-4.2 4.1 0 8.5 3.7 10.8 4.2.7.1 2-1.3 1.6-2.1z" data-name="Path 2409"/>
        <path fill="#0c0d18" d="M188.5 421c1.1-20 2.3-40.1 3.3-60.2 1-20.4 2.8-45.3 2.8-62.8 0-14-2-27.9-2.8-41.9-.3-6.1-2.8-15.7-3.3-26.4-1.1-24.7-.3-54.4 0-54.4s.5 29.8 2.3 54.4c.7 11 3.3 20.2 3.8 26.4 1 13.5 2.3 27.3 2.7 40.4q.7 19.2 0 38.4c-.4 13.2-2.3 27.2-2.7 40.9-.5 14.3 1 37.6 0 45.2-.3 2-4 0-6.1 0" data-name="Path 2410"/>
        <path fill="#0c0d18" d="M247.5 200.7c-10.9 12.8-25.2 28-32.6 38.4-5.3 7.5-9 17-12.1 24.6a204.4 204.4 0 0 0-7 21c-.4 1.5-.6 6 0 4.6 1.6-3.5 5.6-17.3 9.3-25.6 3.7-8.3 7.8-16.9 13-24.6 7-10.5 19.6-25.6 29.4-38.4" data-name="Path 2411"/>
        <path fill="#0c0d18" d="M195.9 311.8c5-3.8 21.8-15.8 30.6-20 6.8-3.1 12-3.9 17.3-5 3.5-.9 11.5-1.4 15-1.8 6.8-.8 30.3-.7 30.3-.4s-20.2 1-30.3 1.8c-10.5 1-22.3 3-32.3 7.5-10.5 4.7-25.5 18.1-30.6 21-1 .6-1-2.4 0-3z" data-name="Path 2412"/>
        <path fill="#0c0d18" d="M193.2 267.2c-4.1-2.4-16-9.4-24.8-10.8s-18.5 1.2-27.5 2.9c-9.4 1.8-30.8 1.6-30.8 2s21.4 1.3 30.8 0c9-1.3 21.2-4.2 27.5-2 1.6.5 10 3.1 11.6 3.8 4.1 1.9 9.9 6.4 13.2 7.4 1.1.3 1-2.8 0-3.3z" data-name="Path 2413"/>
        <path fill="#0c0d18" d="M195 315.7c-4.9-3-19.7-12.3-28.8-14.8-8.4-2.3-26-.3-26 0s17.7-1.1 26 1.5c9.1 3 24 14 28.7 16.1.9.4.8-2.3 0-2.8z" data-name="Path 2414"/>
        <path fill="#0c0d18" d="M193.6 350.3c-1-.7-4.2-1.3-6.6-3.2-3.2-2.6-6-6.6-8.9-7a35.7 35.7 0 0 0-22.7 6c.3 0 6.2-2.3 8-2.9 3.3-1 10.4-2.3 14.8-1.6 2.7.5 5.3 4.5 8 7 1.4 1.3 3.3 1.5 4.2 2 1 .6 2.7 2 3.2 1.9s.6-1.8 0-2.2z" data-name="Path 2415"/>
      </g>
    </g>
    <path fill="#a4a8ba" d="M193.6 409.8c10.4 1.8 29.2 15 24.6 19.6s-26 4.4-36.4 2.7 1.4-24 11.8-22.3z" data-name="Path 2679"/>
    <path fill="#e7eaf0" d="M134.2 418.5c7.7-1.7 19.3 9 15.7 12.6s-20.6 3.6-29 2.2c-4.9-.8-1.4-7.7 2-11.4s8.2-2.7 11.3-3.4z" data-name="Path 2680"/>
    <path fill="#e7eaf0" d="M161.6 433.4c3.4-.8 8.6 4 7 5.7s-9.3 1.6-13 1c-2.2-.4-.6-3.5.8-5.2s3.8-1.2 5.2-1.5z" data-name="Path 2681"/>
    <path fill="#d3d9e3" d="M172.7 421.3c2-.4 5.1 2.4 4.2 3.4s-5.5 1-7.7.6c-1.3-.2-.4-2 .5-3s2.2-.8 3-1z" data-name="Path 2683"/>
    <path fill="#163d6d" fill-rule="evenodd" d="M216.5 428a87.8 87.8 0 0 1 5-12.2c2.4-4.5 7.4-19.6 15.7-14.2s-3.5 6.4-5.7 9.9c-2.4 3.6-6.8 7.9-9 10.8a79 79 0 0 0-3.9 6.9z" data-name="Path 2684"/>
    <path fill="#0e3760" fill-rule="evenodd" d="M219 427.9a82.7 82.7 0 0 0-1.5-13c-1.2-5-4-13.7-5.9-16.8s-4.8-3.5-5.3-1.8 1 8 2.2 11.8c1.4 4.1 4.6 9.4 6 12.8a74 74 0 0 1 2 7.6z" data-name="Path 2685"/>
    <path fill="#092056" fill-rule="evenodd" d="M218 427.9a84.5 84.5 0 0 0 2.4-9.2c.8-3.2 1.5-11.4 3.2-19.3s4-6.1 3.7-12.4c0-4.9-8.4-5.9-9.3 3.7-1 5.8.4 21-.3 26-.4 3.3-2.2 10.6-2.2 10.6z" data-name="Path 2686"/>
    <path fill="#0e3760" fill-rule="evenodd" d="M217.6 426.6s-3.6-3.1-6.2-4.1c-2.7-1-7.7-2.3-9.8-2s-3.7 2.7-3.2 3.9 3.8 2.5 6 3c2.4.6 6.1 0 8.2.2a23.2 23.2 0 0 1 4.2 1.5z" data-name="Path 2688"/>
    <path fill="#00497c" fill-rule="evenodd" d="M217.6 428s2.2-4.3 4.3-6.2c2.2-1.9 6.3-4.8 8.5-5.3s4.3 1.2 4.3 2.5-2.6 3.7-4.5 5c-2 1.3-5.7 2.1-7.6 3.1a23.2 23.2 0 0 0-3.4 2.9z" data-name="Path 2689"/>
    <path fill="#d3d9e3" d="M216.6 427.4c3.4-.8 8.6 4 7 5.7s-9.3 1.6-13 1c-2.2-.4-.6-3.5.8-5.2s3.8-1.2 5.2-1.5z" data-name="Path 2690"/>
    <path fill="#d3d9e3" d="M257.4 413.4c2.9-.7 7.2 3.3 5.9 4.7s-7.8 1.3-10.9.8c-1.8-.3-.5-2.9.7-4.3s3.1-1 4.3-1.2z" data-name="Path 2693" opacity=".4"/>
    <path fill="#c4ccd9" d="M208.3 379.3c1.5-.3 3.8 1.8 3 2.5s-4 .7-5.6.5c-1-.2-.3-1.6.3-2.3s1.7-.5 2.3-.7z" data-name="Path 2696" opacity=".4"/>
    <path fill="#d3d9e3" d="M159.5 386.3c1.4-.3 3.6 1.7 3 2.4s-4 .7-5.5.4c-1-.1-.3-1.4.3-2.1s1.6-.5 2.2-.7z" data-name="Path 2697" opacity=".4"/>
    <path fill="#d0d4e2" d="M302.9 431c2.5.8 5.5 4.8 4.1 6.2s-9.5 1.2-12.6.7c-1.8-.3-.5-2.9.7-4.3s5.2-3.5 7.8-2.6z" data-name="Path 2694" opacity=".3"/>
  </g>
</svg>