<svg xmlns="http://www.w3.org/2000/svg" width="601.486" height="446.721" viewBox="0 0 601.486 446.721">
  <g id="Group_1193" data-name="Group 1193" transform="translate(-612.845 -272.652)">
    <path id="Path_2662" data-name="Path 2662" d="M122.031-2.348C349.542-.915,279.452,100.336,359.942,137.061,467.5,186.138,572.227,131.768,569.27,230.9c.548,147.31-172.719,213.475-305.82,213.475S-5.239,324.323-26.518,210.588-11.07-2.348,122.031-2.348Z" transform="translate(645 275)" fill="#f1f2f7" opacity="0.416"/>
    <g id="Group_1110" data-name="Group 1110" transform="translate(-1188 92.18)">
      <path id="Path_2416" data-name="Path 2416" d="M96.225-60.2c2.224-2.682,12.192-12.53,17.687-16.424,4.559-3.229,11.609-5.73,15.3-6.941,2.222-.731,7.018-1.212,7.018,0s-4.191,6.194-7.018,8.023c-2.91,1.882-7.169,2.4-10.517,3.908a66.38,66.38,0,0,0-9.772,4.987c-3,2.013-6,5.272-8.151,6.447C99.439-59.472,95.259-59.033,96.225-60.2Z" transform="translate(1836.556 660.391)" fill="#00497c" fill-rule="evenodd"/>
      <path id="Path_2417" data-name="Path 2417" d="M112.322-66.584A71.173,71.173,0,0,0,102.11-73.21a96.153,96.153,0,0,0-15.369-5.628,21.04,21.04,0,0,0-8.334,0c-5.056.886-7.418,3.586-6.985,5.628s5.827,5.64,9.583,6.626c4.205,1.1,11.136,0,15.647,0,3.807,0,8.809-.49,11.421,0,1.693.318,3.1,2.45,4.249,2.94.819.348,2.669.49,2.669,0S113.385-65.795,112.322-66.584Z" transform="translate(1814.81 664.831)" fill="#00497c" fill-rule="evenodd"/>
      <path id="Path_2418" data-name="Path 2418" d="M94.71-42.008c1.468-5.064,8.418-20.933,12.132-30.385,3.44-8.753,6.024-20.725,10.154-26.322,3.236-4.384,6.1-8.59,14.661-8.086,7.043.415,8.659,5.68,9.173,8.086s-3.832,5.01-6.11,7.169c-3.093,2.929-8.769,6.441-12.444,10.407a148.343,148.343,0,0,0-15.433,19.677c-3.748,6.051-6.784,16.212-8.806,19.454C97.449-41.068,94.4-40.944,94.71-42.008Z" transform="translate(1835.33 640.554)" fill="#092056" fill-rule="evenodd"/>
      <path id="Path_2419" data-name="Path 2419" d="M93.53-62.965c1.972-5.675,5.446-18.41,9.691-24.813a50.6,50.6,0,0,1,15.28-14.4c3.907-2.183,10.111-2.758,13.83-.793,2.023,1.068,3.44,4.6,2.173,6.509-1.775,2.663-7.857,6.123-11.981,9.472a147.855,147.855,0,0,0-13.2,11.651c-3.633,3.8-8.443,8.639-10.611,12.372-1.764,3.037-2.1,8.356-3.24,10.027-.67.986-3.35,1.17-3.576,0C91.568-54.609,92.418-59.766,93.53-62.965Z" transform="translate(1832.806 642.908)" fill="#00497c" fill-rule="evenodd"/>
      <path id="Path_2420" data-name="Path 2420" d="M99.426-37.952c-.326-3.672-.419-13.427-1.954-18.162-1.291-3.982-5.863-6.3-7.257-10.25C88.237-71.97,85.05-81.823,85.6-89.75c.729-10.547,2.49-19.005,11.875-24.512,4.269-2.506,10.491-2.346,14.849,0,8.4,4.518,9.318,11.412,9.219,18.09-.1,6.313-1.873,14.056-3.194,19.3a47.543,47.543,0,0,1-4.74,12.179c-1.674,2.726-5.665,3.744-6.862,6.711-1.642,4.07-2.49,13.724-2.989,17.707-.256,2.048.722,5.159,0,6.191s-3.608.645-4.33,0S99.541-36.666,99.426-37.952Z" transform="translate(1827.275 632.423)" fill="#092056" fill-rule="evenodd"/>
      <path id="Path_2421" data-name="Path 2421" d="M117.078-67.324a187.054,187.054,0,0,0-14.449-12.853c-5.22-4.077-8.26-7.782-21.253-10.11-4.512-.809-10.837-.967-13.752,0-2.183.724-4.467,3.617-3.739,5.8.809,2.427,4.861,7.088,8.594,8.761,4.535,2.034,12.828,2.041,18.619,3.441a140.55,140.55,0,0,1,16.13,4.961c3.448,1.336,7.353,2.93,9.849,5.106,2.377,2.073,3.825,7.308,5.126,7.953s3.274-2.566,2.68-4.081C124.029-60.522,119.909-64.547,117.078-67.324Z" transform="translate(1808.1 654.537)" fill="#092056" fill-rule="evenodd"/>
      <path id="Path_2422" data-name="Path 2422" d="M82.484-108.716c-1.669-1.594-6.292.147-6.479,2.448-.363,4.461.775,16.884,4.3,24.325S92.325-67.2,97.174-61.589c3.939,4.557,9.78,10,12.226,13.305,1.38,1.864,1.519,6.121,2.448,6.513s3.32-2.438,3.127-4.163c-.408-3.643-2.876-12.132-5.575-17.7-3.481-7.176-13.033-19.621-16.736-25.134C90.738-91.631,85.5-105.838,82.484-108.716Z" transform="translate(1818.831 638.363)" fill="#00497c" fill-rule="evenodd"/>
      <path id="Path_2423" data-name="Path 2423" d="M98.937-38.066c-.9-2.081.736-12.067,0-16.909-.488-3.21-1.837-6.5-2.657-9.194C94.106-71.3,87.5-78.843,87.293-86.194c-.519-18.2,8.131-21.554,13.043-21.909,9.822-.713,12.772,5.7,14.39,10.925,1.679,5.421,1.126,14.436,0,19.937-.985,4.806-5.437,8.349-6.764,13.072-.7,2.5-2.442,5.567-2.747,9.194-.383,4.559-.691,14.981-1.4,16.909C103.256-36.539,99.58-36.572,98.937-38.066Z" transform="translate(1828.801 639.398)" fill="#0e3760" fill-rule="evenodd"/>
      <path id="Path_2424" data-name="Path 2424" d="M96.1-54.206s-7.605-7.941-8.014-13.022c-.411-5.115,1.353-14.207,5.546-17.668s15.688-4.578,19.611-3.1,4.935,7.9,3.931,11.975c-1.06,4.308-8.577,10.24-10.293,13.876-1.129,2.393,0,7.938,0,7.938Z" transform="translate(1829.467 656.58)" fill="#163d6d" fill-rule="evenodd"/>
    </g>
    <g id="Group_1115" data-name="Group 1115" transform="translate(-110 -6105.82)">
      <path id="Path_2404" data-name="Path 2404" d="M80.506-319.3c-11.14,1.535-10.108,17.376-14.08,34.424-3.112,13.357-5.965,13.345-6.389,20.13-.3,4.774-2.776,14.386,0,22.138,2.7,7.542,9.077,15.392,13.227,16.678C87.357-221.558,86.207-212.2,90.928-212.2s5.822-10.272,10.66-13.723c9.046-6.454,15.218-11.327,15.736-19.664,1.61-25.922-7.322-41.378-13.7-53.548C98.8-308.342,91.219-320.771,80.506-319.3Z" transform="translate(821.187 6824.482)" fill="#163d6d" fill-rule="evenodd"/>
      <path id="Path_2405" data-name="Path 2405" d="M160.861-267.526c2.759,9.2-6.409,13.717-11.273,28.8-3.811,11.817-1.672,13.022-4.473,18.531-1.972,3.877-3.13,9.234-8.768,14.14-5.487,4.773-12.337,7.246-16.031,6.488-12.546-2.574-18.915,9.488-22.445,7.478s.367-10.547-1.665-15.319c-3.8-8.922-1.779-15.527,1.665-22.294a77.483,77.483,0,0,1,38.476-36.517C147.147-270.849,160.2-269.733,160.861-267.526Z" transform="translate(828.537 6834.853)" fill="#092056" fill-rule="evenodd"/>
      <path id="Path_2406" data-name="Path 2406" d="M88-136.9c-1.956-2.451,2.32-10.122-11.738-10.672-14.456-.564-18.341,3.974-21.134,7.072-2.413,2.677-1.659,8.432.713,10.224s9.577.885,14.237,0c4.7-.894,10.985-4.929,13.972-5.359,1.6-.231,3.292,2.986,3.95,2.775S88.844-135.837,88-136.9Z" transform="translate(820.131 6860.13)" fill="#163d6d" fill-rule="evenodd"/>
      <path id="Path_2407" data-name="Path 2407" d="M96.726-203.748c.294-1.252-3.4-3.014-6.507-6.034-3.446-3.346-9.745-5.372-13.24-6.44-8.457-2.583-24.1-3.26-34.469-2.589-9.5.615-20.886,3.44-27.768,6.615C9.161-209.621.963-202.151.074-199.829s6.5,1.152,9.172,1.905c5.145,1.455,14.9,6.886,22.843,6.886,9.222,0,21.774-1.032,32.953-5.99,5.253-2.33,11.289-7.2,15.381-8.39,2.834-.826,7.046-1.162,8.866,0C90.814-204.445,96.478-202.69,96.726-203.748Z" transform="translate(809 6845.307)" fill="#0e3760" fill-rule="evenodd"/>
      <path id="Path_2408" data-name="Path 2408" d="M97.454-166.357c2.393-3.392,7.494-9.9,21.944-16.845,9.261-4.451,22.535-8.018,33.649-9.816,10.869-1.758,26.116-2.07,33.03-.972,3.753.6,8.969,5.76,8.449,7.558s-8.061,1.314-11.567,3.23a112.356,112.356,0,0,0-12.966,7.86c-4.663,3.462-8.367,7.38-12.17,8.985-6.065,2.559-13.028,2.52-19.679,2.065-19.377-1.327-18.438-4.169-24.87-4.169-5.261,0-10.859,3.736-13.719,4.169C98.579-164.144,96.889-165.556,97.454-166.357Z" transform="translate(829.198 6850.375)" fill="#0e3760" fill-rule="evenodd"/>
      <path id="Path_2409" data-name="Path 2409" d="M99.984-158.156C98.109-161.548,94.316-171.285,83-178.23c-7.254-4.451-17.483-8.99-26.678-10.788a78.6,78.6,0,0,0-25.55,0c-2.94.6-6.909,6.319-6.821,10.788.384,19.372,29.663,22.595,34.872,22.139,15.177-1.327,23.733-4.171,28.771-4.171,4.12,0,8.505,3.737,10.745,4.171C99.1-155.942,100.426-157.355,99.984-158.156Z" transform="translate(813.969 6851.322)" fill="#092056" fill-rule="evenodd"/>
      <path id="Path_2410" data-name="Path 2410" d="M84.849-33.42c1.11-20.039,2.34-40.071,3.329-60.116,1.011-20.486,2.736-45.351,2.736-62.8,0-14-2.046-27.926-2.736-41.907-.305-6.175-2.84-15.724-3.329-26.418-1.131-24.739-.318-54.452,0-54.452s.54,29.875,2.277,54.452c.775,10.969,3.334,20.182,3.788,26.418.98,13.453,2.3,27.245,2.766,40.369q.673,19.177,0,38.377c-.461,13.211-2.327,27.237-2.766,40.891-.461,14.347,1.011,37.658,0,45.19-.265,1.978-4.043,0-6.065,0" transform="translate(826.485 6832.844)" fill="#0c0d18" fill-rule="evenodd"/>
      <path id="Path_2411" data-name="Path 2411" d="M142.6-258.051c-10.889,12.808-25.21,27.917-32.668,38.425-5.3,7.47-8.9,17.026-12.072,24.626a204.362,204.362,0,0,0-6.988,20.975c-.4,1.483-.623,6.011,0,4.6,1.548-3.5,5.606-17.283,9.286-25.58,3.712-8.368,7.8-16.918,12.983-24.626,7.073-10.508,19.639-25.617,29.458-38.425" transform="translate(827.776 6837.215)" fill="#0c0d18" fill-rule="evenodd"/>
      <path id="Path_2412" data-name="Path 2412" d="M91-161.316c5.1-3.85,21.819-15.846,30.588-19.945,6.805-3.183,11.987-3.929,17.373-5.143,3.43-.774,11.446-1.362,14.944-1.741,6.778-.734,30.277-.706,30.277-.4s-20.168,1-30.277,1.854c-10.447.885-22.266,2.882-32.317,7.441C111.1-174.5,96.1-161.1,91-158.163,89.988-157.583,90.069-160.615,91-161.316Z" transform="translate(827.73 6851.595)" fill="#0c0d18" fill-rule="evenodd"/>
      <path id="Path_2413" data-name="Path 2413" d="M102.977-201.081c-4.141-2.341-16.121-9.417-24.846-10.732s-18.457,1.115-27.508,2.847c-9.343,1.788-30.833,1.649-30.833,1.979s21.49,1.315,30.833,0c9.1-1.28,21.17-4.153,27.508-1.979,1.618.554,10.05,3.137,11.608,3.839,4.141,1.867,9.876,6.395,13.238,7.358C104.051-197.461,103.948-200.533,102.977-201.081Z" transform="translate(813.106 6846.731)" fill="#0c0d18" fill-rule="evenodd"/>
      <path id="Path_2414" data-name="Path 2414" d="M99.481-160.076C94.7-163.018,79.9-172.422,70.773-174.892c-8.375-2.266-26.054-.258-26.054,0s17.784-1.121,26.054,1.546C79.9-170.4,94.7-159.451,99.481-157.24,100.348-156.84,100.294-159.576,99.481-160.076Z" transform="translate(818.279 6854.249)" fill="#0c0d18" fill-rule="evenodd"/>
      <path id="Path_2415" data-name="Path 2415" d="M95.572-132.4c-1.033-.692-4.182-1.291-6.6-3.222-3.212-2.562-5.968-6.523-8.884-6.9-5.112-.665-11.818.795-15,2.038-1.534.6-7.914,3.9-7.7,3.9s6.2-2.274,8.029-2.85c3.185-1,10.316-2.362,14.677-1.639,2.725.452,5.333,4.483,7.971,6.956,1.466,1.374,3.409,1.578,4.268,2.067,1.082.616,2.706,1.907,3.247,1.849S96.186-131.99,95.572-132.4Z" transform="translate(820.905 6861.151)" fill="#0c0d18" fill-rule="evenodd"/>
    </g>
  </g>
</svg>
