<svg xmlns="http://www.w3.org/2000/svg" width="1920" height="486.8">
  <g data-name="Group 1116">
    <path fill="#081b2c" d="M0 278.8s188 64 668 64c256.7 0 510.2-67.7 823.3-83.7s428.7 19.7 428.7 19.7v208H0z" data-name="Path 1790"/>
    <g fill-rule="evenodd" data-name="Group 1108">
      <path fill="#00497c" d="M1449.3 196.3c-8.6 3.3-9.2 12.4-7.5 17.3 3 8.6 10.9 7.5 15.6 5.7 4.3-1.7 11.1-6.6 8.2-14.9-2-5.3-8.2-11.3-16.3-8.1z" data-name="Path 2400"/>
      <path fill="#00497c" d="M1483.1 194c-9-1.5-14.2 6.2-15.1 11.2-1.7 9 5.7 12 10.7 12.7 4.5.8 12.9-.1 14.5-8.7 1-5.6-1.5-14-10-15.3z" data-name="Path 2401"/>
      <path fill="#00497c" d="M1496 242c-2.9-7.6-8.7-9.5-13-8-7.6 2.7-9 11-7.3 15.2 1.4 3.7 4.2 9.3 11.6 6.8 4.7-1.7 11.6-6.9 8.8-14z" data-name="Path 2402"/>
      <path fill="#0c0d18" d="M1455.9 217.4c2.2 6 9.8 25.7 12 36 2 8.7.8 22 1.7 26.5.3 1.2 3.6 1.2 3.9 0 .8-3.5.6-16.3 1.7-20.8.7-2.7 3.3-5.2 3.8-6.6.3-.8-.8-2.7-1.4-2.1a24.2 24.2 0 0 0-4.1 7.7c-1 4-1.9 17.8-2 16s-.5-17.7.7-26.5c1.4-10 7-27.7 7.7-33.3.2-1-2-1.2-2.3 0-1.1 5.6-7.4 36.4-8 36.4-.3 0-1.4-4-3.1-9.3-3-9.2-7.2-22-8.8-25-.6-1.4-2.3-.3-1.8 1z" data-name="Path 2403"/>
    </g>
    <g fill-rule="evenodd" data-name="Group 1110">
      <path fill="#00497c" d="M230.8 336.1a144 144 0 0 1 17.7-16.4 63.6 63.6 0 0 1 15.3-7c2.2-.7 7-1.2 7 0s-4.2 6.3-7 8c-3 2-7.2 2.5-10.5 4a66.4 66.4 0 0 0-9.8 5c-3 2-6 5.2-8.2 6.4-1.3.8-5.5 1.2-4.5 0z" data-name="Path 2416"/>
      <path fill="#00497c" d="M225.1 334.2a71.2 71.2 0 0 0-10.2-6.6 96.2 96.2 0 0 0-15.3-5.7 21 21 0 0 0-8.4 0c-5 1-7.4 3.6-7 5.7s5.9 5.6 9.6 6.6c4.2 1 11.2 0 15.7 0 3.8 0 8.8-.5 11.4 0 1.7.3 3 2.4 4.2 3 .9.3 2.7.4 2.7 0s-1.6-2.2-2.7-3z" data-name="Path 2417"/>
      <path fill="#092056" d="M228 334.5c1.5-5 8.5-21 12.2-30.4 3.4-8.8 6-20.7 10.1-26.3 3.3-4.4 6.1-8.6 14.7-8.1 7 .4 8.6 5.7 9.2 8s-3.9 5-6.2 7.2c-3 3-8.7 6.5-12.4 10.4a148.3 148.3 0 0 0-15.4 19.7c-3.8 6-6.8 16.2-8.8 19.5-.6 1-3.7 1-3.4 0z" data-name="Path 2418"/>
      <path fill="#00497c" d="M224.3 315.9c2-5.7 5.5-18.4 9.7-24.8a50.6 50.6 0 0 1 15.3-14.4c4-2.2 10.1-2.8 13.8-.8 2 1 3.5 4.6 2.2 6.5-1.8 2.6-7.8 6.1-12 9.5a147.9 147.9 0 0 0-13.2 11.6c-3.6 3.8-8.4 8.6-10.6 12.4-1.7 3-2 8.3-3.2 10-.7 1-3.4 1.2-3.6 0a29 29 0 0 1 1.6-10z" data-name="Path 2419"/>
      <path fill="#092056" d="M224.7 330.4c-.3-3.7-.4-13.4-2-18.2-1.2-4-5.8-6.3-7.2-10.2a65 65 0 0 1-4.6-23.4c.7-10.5 2.5-19 11.9-24.5a16 16 0 0 1 14.8 0c8.4 4.5 9.3 11.4 9.2 18 0 6.4-1.9 14.1-3.2 19.4a47.5 47.5 0 0 1-4.7 12.2c-1.7 2.7-5.7 3.7-6.9 6.7-1.6 4-2.5 13.7-3 17.7-.2 2 .8 5.1 0 6.2s-3.6.6-4.3 0 .1-2.6 0-3.9z" data-name="Path 2420"/>
      <path fill="#092056" d="M223.2 323.1a187 187 0 0 0-14.5-12.8c-5.2-4-8.2-7.8-21.2-10.1-4.5-.8-10.9-1-13.8 0-2.2.7-4.4 3.6-3.7 5.8.8 2.4 4.8 7 8.6 8.7 4.5 2 12.8 2 18.6 3.5a140.6 140.6 0 0 1 16.1 5c3.5 1.3 7.4 2.9 9.9 5 2.4 2.1 3.8 7.4 5.1 8s3.3-2.6 2.7-4c-.9-2.3-5-6.3-7.8-9z" data-name="Path 2421"/>
      <path fill="#00497c" d="M199.3 265.6c-1.7-1.6-6.3.1-6.5 2.4-.3 4.5.8 17 4.3 24.4s12 14.7 16.9 20.3c4 4.6 9.8 10 12.2 13.3 1.4 1.9 1.5 6.1 2.5 6.5s3.3-2.4 3.1-4.1a71 71 0 0 0-5.6-17.7c-3.5-7.2-13-19.7-16.7-25.2-2-2.8-7.2-17-10.2-20z" data-name="Path 2422"/>
      <path fill="#0e3760" d="M225.7 337.3c-.9-2.1.8-12.1 0-17-.5-3.2-1.8-6.4-2.6-9.1-2.2-7.2-8.8-14.7-9-22-.5-18.3 8.1-21.6 13-22 9.9-.7 12.8 5.7 14.4 11a47.8 47.8 0 0 1 0 19.9c-1 4.8-5.4 8.3-6.7 13-.7 2.6-2.5 5.6-2.8 9.3-.4 4.5-.7 15-1.4 16.9-.5 1.5-4.2 1.5-4.9 0z" data-name="Path 2423"/>
      <path fill="#163d6d" d="M223.6 338.3s-7.6-8-8-13c-.5-5.1 1.3-14.2 5.5-17.7s15.7-4.6 19.6-3 5 7.8 4 11.9c-1.1 4.3-8.6 10.2-10.4 13.9-1 2.4 0 8 0 8z" data-name="Path 2424"/>
    </g>
    <g fill-rule="evenodd" data-name="Group 1115">
      <path fill="#163d6d" d="M1788.7.1c-11.1 1.6-10.1 17.4-14 34.4-3.2 13.4-6 13.4-6.5 20.2-.3 4.7-2.8 14.4 0 22.1 2.7 7.5 9.1 15.4 13.3 16.7 14 4.4 12.9 13.7 17.6 13.7s5.8-10.3 10.7-13.7c9-6.5 15.2-11.3 15.7-19.7 1.6-25.9-7.3-41.3-13.7-53.5-4.8-9.2-12.4-21.7-23.1-20.2z" data-name="Path 2404"/>
      <path fill="#092056" d="M1876.4 62.3c2.8 9.2-6.4 13.7-11.3 28.8-3.8 11.8-1.6 13-4.4 18.5-2 3.9-3.2 9.2-8.8 14.1-5.5 4.8-12.4 7.3-16 6.5-12.6-2.6-19 9.5-22.5 7.5s.4-10.5-1.7-15.3c-3.8-9-1.7-15.5 1.7-22.3a77.5 77.5 0 0 1 38.5-36.5c10.8-4.7 23.8-3.5 24.5-1.3z" data-name="Path 2405"/>
      <path fill="#163d6d" d="M1795.1 218.2c-2-2.5 2.4-10.2-11.7-10.7-14.5-.6-18.3 4-21.1 7-2.5 2.7-1.7 8.5.7 10.3s9.5.9 14.2 0c4.7-1 11-5 14-5.4 1.6-.2 3.3 3 4 2.8s.8-3 0-4z" data-name="Path 2406"/>
      <path fill="#0e3760" d="M1792.7 136.5c.3-1.3-3.4-3-6.5-6a35.2 35.2 0 0 0-13.2-6.5 118 118 0 0 0-34.5-2.6 88 88 0 0 0-27.8 6.6c-5.5 2.6-13.7 10-14.6 12.4s6.5 1.2 9.1 2c5.2 1.4 15 6.8 22.9 6.8 9.2 0 21.8-1 33-6 5.2-2.3 11.2-7.2 15.3-8.4 2.9-.8 7-1.1 8.9 0 1.5 1 7.2 2.8 7.4 1.7z" data-name="Path 2407"/>
      <path fill="#0e3760" d="M1813.7 179c2.3-3.4 7.4-10 21.9-16.9a134 134 0 0 1 66.7-10.8c3.7.6 9 5.8 8.4 7.6s-8 1.3-11.5 3.2a112.4 112.4 0 0 0-13 7.9c-4.7 3.4-8.4 7.3-12.2 9-6 2.5-13 2.5-19.7 2-19.3-1.3-18.4-4.2-24.8-4.2-5.3 0-10.9 3.8-13.7 4.2-1 .2-2.7-1.2-2.1-2z" data-name="Path 2408"/>
      <path fill="#092056" d="M1801 188.1c-2-3.4-5.7-13.1-17-20-7.3-4.5-17.5-9-26.7-10.9a78.6 78.6 0 0 0-25.6 0c-2.9.6-6.9 6.4-6.8 10.8.4 19.4 29.7 22.6 34.9 22.2 15.2-1.4 23.7-4.2 28.8-4.2 4 0 8.5 3.7 10.7 4.2.8.1 2.1-1.3 1.7-2.1z" data-name="Path 2409"/>
      <path fill="#0c0d18" d="M1798.3 294.4c1.1-20 2.4-40.1 3.4-60.2 1-20.4 2.7-45.3 2.7-62.8 0-14-2-27.9-2.7-41.9-.3-6.1-2.9-15.7-3.4-26.4-1.1-24.7-.3-54.4 0-54.4s.6 29.8 2.3 54.4c.8 11 3.3 20.2 3.8 26.4 1 13.5 2.3 27.3 2.8 40.4q.6 19.2 0 38.4c-.5 13.2-2.4 27.2-2.8 40.9-.5 14.3 1 37.6 0 45.2-.3 2-4 0-6 0" data-name="Path 2410"/>
      <path fill="#0c0d18" d="M1857.4 74.1c-11 12.8-25.2 28-32.7 38.4-5.3 7.5-8.9 17-12 24.6a204.4 204.4 0 0 0-7 21c-.5 1.5-.7 6 0 4.6 1.5-3.5 5.6-17.3 9.2-25.6 3.7-8.3 7.8-16.9 13-24.6 7-10.5 19.7-25.6 29.5-38.4" data-name="Path 2411"/>
      <path fill="#0c0d18" d="M1805.7 185.2c5.1-3.8 21.8-15.8 30.6-20 6.8-3.1 12-3.9 17.4-5 3.4-.8 11.4-1.4 15-1.8 6.7-.8 30.2-.7 30.2-.4s-20.2 1-30.3 1.8c-10.4 1-22.2 3-32.3 7.5-10.5 4.7-25.5 18.1-30.6 21-1 .6-.9-2.4 0-3z" data-name="Path 2412"/>
      <path fill="#0c0d18" d="M1803 140.6c-4-2.4-16-9.4-24.8-10.7s-18.4 1-27.5 2.8c-9.3 1.8-30.8 1.6-30.8 2s21.5 1.3 30.8 0c9.1-1.3 21.2-4.2 27.5-2 1.7.6 10 3.1 11.6 3.8 4.2 1.9 10 6.4 13.3 7.4 1 .3 1-2.8 0-3.3z" data-name="Path 2413"/>
      <path fill="#0c0d18" d="M1804.8 189.1c-4.8-3-19.6-12.3-28.7-14.8-8.4-2.3-26.1-.3-26.1 0s17.8-1.1 26 1.5c9.2 3 24 14 28.8 16.1.8.4.8-2.3 0-2.8z" data-name="Path 2414"/>
      <path fill="#0c0d18" d="M1803.5 223.7c-1-.7-4.2-1.3-6.6-3.2-3.2-2.6-6-6.6-9-7a35.7 35.7 0 0 0-22.6 6c.2 0 6.2-2.3 8-2.8 3.2-1 10.3-2.4 14.7-1.7 2.7.5 5.3 4.5 8 7 1.4 1.3 3.4 1.5 4.2 2 1.1.7 2.7 2 3.3 1.9s.6-1.8 0-2.2z" data-name="Path 2415"/>
    </g>
  </g>
</svg>