<svg xmlns="http://www.w3.org/2000/svg" width="375.5" height="442.2">
  <g data-name="Group 1125">
    <g fill="#081b2c" data-name="Path 1789">
      <path d="M375 441.7H.5v-263c1.4-.9 8.9-4.8 20.5-8.7a170.6 170.6 0 0 1 53-8.8 153.2 153.2 0 0 1 72.4 18 178 178 0 0 1 25.8 16.8c5.8 4.5 11.6 8.5 17 11.8 5.4 3.3 10.7 6 15.8 8.3 5 2 9.9 3.7 14.6 4.7a51.2 51.2 0 0 0 44.2-8.5c4.5-3.2 8.8-7.2 13-11.9 4-4.5 7.9-9.8 11.6-15.8 3.5-5.6 7-12 10.4-19.2 3.2-6.6 6.4-14 9.5-22.1 5.5-14.4 11-31.2 16.6-51.3a419.2 419.2 0 0 1 16.2-47.6c4.6-11 9.3-20 14-26.6 3.6-5.3 7.3-9.1 10.8-11.4 3-2 5.5-2.5 7-2.5 1 0 1.8.2 2.1.4v437.4z"/>
      <path d="M372.8 4.4c-2.9 0-9 1.8-17.4 13.7-4.6 6.6-9.3 15.5-13.9 26.5-5.4 13-10.8 29-16.1 47.6a594.4 594.4 0 0 1-16.7 51.3c-3 8-6.2 15.5-9.4 22.2-3.4 7-7 13.5-10.5 19.2-3.7 6-7.6 11.3-11.6 15.8a77.7 77.7 0 0 1-13.1 12 51.7 51.7 0 0 1-31 10.2c-4.4 0-9-.5-13.6-1.6-4.8-1-9.7-2.6-14.7-4.8-5-2.2-10.4-5-15.8-8.2-5.5-3.4-11.3-7.4-17.1-12-8.3-6.3-17-12-25.8-16.6a152.7 152.7 0 0 0-101.7-15.3A170 170 0 0 0 1 179v262.3h373.5V4.6a6 6 0 0 0-1.7-.2m0-1c1.8 0 2.7.6 2.7.6v438.2H0V178.3s30.8-17.6 74-17.6c29.1 0 63.8 8 98.5 34.9 23.5 18.2 43.5 26.3 60.5 26.3 45.4 0 70.7-56.7 91.4-130 22.7-80.3 41.7-88.5 48.4-88.5z"/>
    </g>
    <g fill-rule="evenodd" data-name="Group 1112">
      <path fill="#163d6d" d="M90.3 0c-7.1 1-6.5 11.2-9 22-2 8.6-3.8 8.6-4.1 12.9-.2 3-1.8 9.2 0 14.1 1.7 4.8 5.8 9.8 8.4 10.6 9 2.8 8.3 8.8 11.3 8.8s3.7-6.6 6.8-8.8c5.8-4 9.7-7.2 10-12.5 1-16.5-4.6-26.4-8.7-34.2C102 7.1 97.1-.9 90.3.1z" data-name="Path 2404"/>
      <path fill="#092056" d="M146.2 39.7c1.8 5.9-4 8.8-7.2 18.4-2.4 7.5-1 8.3-2.8 11.8-1.3 2.5-2 5.9-5.6 9-3.5 3-7.9 4.7-10.3 4.2-8-1.7-12 6-14.3 4.7s.3-6.7-1-9.7c-2.5-5.7-1.2-10 1-14.3a49.4 49.4 0 0 1 24.6-23.3c6.9-2.9 15.2-2.2 15.6-.8z" data-name="Path 2405"/>
      <path fill="#163d6d" d="M94.4 139.2c-1.3-1.6 1.4-6.5-7.5-6.8-9.2-.4-11.7 2.5-13.5 4.5-1.5 1.7-1 5.4.5 6.5s6 .6 9 0 7-3.1 9-3.4c1-.2 2 1.9 2.5 1.8s.5-2 0-2.6z" data-name="Path 2406"/>
      <path fill="#0e3760" d="M92.8 87c.2-.7-2.1-1.9-4.1-3.8a22.5 22.5 0 0 0-8.5-4c-5.4-1.7-15.3-2.2-22-1.7a56.2 56.2 0 0 0-17.7 4.2c-3.5 1.6-8.8 6.4-9.3 7.9s4.1.7 5.8 1.2c3.3 1 9.5 4.4 14.6 4.4a53 53 0 0 0 21-3.8c3.4-1.5 7.2-4.6 9.8-5.4 1.8-.5 4.5-.7 5.7 0 1 .6 4.6 1.7 4.7 1z" data-name="Path 2407"/>
      <path fill="#0e3760" d="M106.2 114.2a33 33 0 0 1 14-10.8 85.6 85.6 0 0 1 42.5-6.9c2.4.4 5.7 3.7 5.4 4.9s-5.1.8-7.4 2a71.7 71.7 0 0 0-8.2 5c-3 2.2-5.4 4.7-7.8 5.8a27.6 27.6 0 0 1-12.6 1.3c-12.3-.9-11.7-2.7-15.8-2.7-3.4 0-7 2.4-8.8 2.7-.6 0-1.7-.8-1.3-1.3z" data-name="Path 2408"/>
      <path fill="#092056" d="M98 120c-1.1-2.2-3.5-8.4-10.8-12.8a55.6 55.6 0 0 0-17-6.9 50.1 50.1 0 0 0-16.3 0c-1.8.4-4.4 4-4.3 6.9.2 12.3 18.9 14.4 22.2 14.1 9.7-.8 15.2-2.7 18.4-2.7 2.6 0 5.4 2.4 6.8 2.7.5.1 1.4-.8 1-1.3z" data-name="Path 2409"/>
      <path fill="#0c0d18" d="M96.4 187.8l2.1-38.4c.7-13 1.8-28.9 1.8-40 0-9-1.3-17.8-1.8-26.8-.2-4-1.8-10-2-16.8-.8-15.8-.3-34.8 0-34.8s.3 19.1 1.4 34.8c.5 7 2 12.9 2.4 16.8.6 8.6 1.5 17.4 1.7 25.8q.5 12.2 0 24.5c-.2 8.4-1.4 17.3-1.7 26-.3 9.2.6 24 0 28.9-.2 1.2-2.6 0-3.9 0" data-name="Path 2410"/>
      <path fill="#0c0d18" d="M134 47.3c-6.9 8.1-16 17.8-20.8 24.5-3.3 4.7-5.6 10.8-7.7 15.7a130.4 130.4 0 0 0-4.4 13.4c-.3 1-.4 3.8 0 3 1-2.3 3.6-11.1 6-16.4a102.4 102.4 0 0 1 8.2-15.7c4.5-6.7 12.5-16.4 18.8-24.5" data-name="Path 2411"/>
      <path fill="#0c0d18" d="M101.1 118.2c3.3-2.5 14-10.2 19.5-12.8 4.4-2 7.7-2.5 11.1-3.3 2.2-.4 7.3-.8 9.6-1 4.3-.5 19.3-.5 19.3-.3s-12.9.6-19.3 1.2c-6.7.5-14.2 1.8-20.7 4.7-6.6 3-16.2 11.6-19.5 13.5-.6.3-.6-1.6 0-2z" data-name="Path 2412"/>
      <path fill="#0c0d18" d="M99.4 89.7c-2.6-1.5-10.2-6-15.8-6.9s-11.8.7-17.6 1.9c-6 1.1-19.6 1-19.6 1.2s13.7.9 19.6 0c5.9-.8 13.5-2.6 17.6-1.2L91 87c2.6 1.2 6.3 4 8.4 4.7.7.2.7-1.8 0-2.1z" data-name="Path 2413"/>
      <path fill="#0c0d18" d="M100.5 120.6c-3-1.8-12.5-7.8-18.3-9.4-5.3-1.5-16.6-.2-16.6 0s11.3-.7 16.6 1c5.8 1.8 15.3 8.8 18.3 10.2.6.3.5-1.4 0-1.8z" data-name="Path 2414"/>
      <path fill="#0c0d18" d="M99.7 142.7c-.7-.4-2.7-.8-4.2-2-2-1.7-3.8-4.2-5.7-4.5a22.8 22.8 0 0 0-9.6 1.3l-4.9 2.5 5.2-1.8c2-.6 6.5-1.5 9.3-1 1.8.3 3.4 2.8 5.1 4.4a8.9 8.9 0 0 0 2.7 1.3c.7.4 1.7 1.2 2 1.2s.5-1.1 0-1.4z" data-name="Path 2415"/>
    </g>
  </g>
</svg>