<svg xmlns="http://www.w3.org/2000/svg" width="500" height="610">
  <defs>
    <clipPath id="a">
      <path fill="#fff" stroke="#707070" d="M0 0h500v610H0z" data-name="Rectangle 829" transform="translate(1025.7 59)"/>
    </clipPath>
    <clipPath id="b">
      <path fill="none" d="M149.4-238.4c-2.7-5.6-13.1 6-16 9.6-3.5 4.2-10.3 25-7.6 30.7s23.6 3.2 23.6 3.2 2.7-37.8 0-43.5z" clip-rule="evenodd" data-name="Path 2430" transform="translate(-125.2 239.9)"/>
    </clipPath>
    <clipPath id="c">
      <path fill="none" d="M221.3-238.4s15.6-9.4 11-21.8c-1.2-3-.5-7.5-5.1-10.5-24.6-16.5-28.5-10.9-58 6.7-17.5 10.4-42.1 93.2-39.7 112.5 1.6 12.6 39.8 6.4 39.8 6.4z" clip-rule="evenodd" data-name="Path 2434" transform="translate(-129.3 280.6)"/>
    </clipPath>
    <clipPath id="d">
      <path fill="none" d="M204.7-240.2c2-8.5-13.5-20-22.3-23.7-7.6-3.1-19.6-2.8-23.3 0-1.6 1.2-4.3 3.7-5 2.7a2.9 2.9 0 0 1 .7-2.7 129 129 0 0 1 15.8-10.3c5-2.8 11.1-6 15.8-7.1a22.6 22.6 0 0 1 12.1 0c6.2 2 20.1 6.3 25.8 17.4 7.4 14.6 1.7 18.3 1.7 18.3s-22.5 10.6-21.3 5.4z" clip-rule="evenodd" data-name="Path 2437" transform="translate(-154 282.2)"/>
    </clipPath>
    <clipPath id="e">
      <path fill="none" d="M232.4-244.4c0-1.2.4-14 4-16.7 3.6-2.7 4-5 4-5.4-.1-3.6-3.5-4.4-4-4.5a4.8 4.8 0 0 0-4 .5c-1.4 1-2.4 3.4-3.3 5-1.7 2.7-3.5 4.8-3 8.2.5 3.7-3.7 7-6.4 7.7a10.3 10.3 0 0 1-6 0 7.8 7.8 0 0 0 4.5-2.7c1.2-1.3 1.3-2.8 1.7-4.5 1-3.6.4-7.3 2.4-10.6a32.5 32.5 0 0 0 2.7-4.4v-.3c1.5-3.6.5-7.8 1.3-11.6a16.2 16.2 0 0 1 5-9c1.8-1.6 4-2.8 5.6-4.6 1.3-1.4 2.2-3.1 4-3.9 1.7-.7 4-.6 5.8-.6 1.5-.1 4.2-2 11.7-1.7 2.5 0 8.3 1.5 11.2 6.5a11.1 11.1 0 0 0 6.3 4.7c4.4 1.5 8 2.4 10.8 6.2l.3.3v.2a23.8 23.8 0 0 1 2.8 5c.8 2.2 3.6 6.3 6 5.6 4-1 5.2-4.5 6.3-5.5.4-.4.9 6-1 10.8a23.9 23.9 0 0 1-6 8.2c-3.4 3-6 3.3-8.2 2.7a8.3 8.3 0 0 1-6-5.4c-.4-.8-1.4-5.7-5.4-8.4-2.4-1.7-2.4 1.4-8.8-1.2a16.8 16.8 0 0 1-5.3-4.3c-1.4-2-5-2-8 3.1-1.1 2-4 3.7-7.9 5-2.6.8-1.8 4.9-2.5 7a18.1 18.1 0 0 0-4.2 9 18.3 18.3 0 0 0 .5 5.8c1.2 3 3.5 5.4 6 7.8l4 4a.4.4 0 0 0 .1 0 21.2 21.2 0 0 0 9.5 5.9l.8.2.3.1 1.9.5a1.2 1.2 0 0 0 .1 0l1.8.4 1.3.3h.1a1.7 1.7 0 0 1 .3.1 4.3 4.3 0 0 1 1.8 1.4 9.7 9.7 0 0 1 1.2 1.9l.2.4c1.2 2.5.5 5-.9 7.2-.3.7-.8 1.3-1.2 1.8l-2.7 3.5c-.7 1-2.5 3.8-3.6 4.5-1.9 1.1-7.2-1-7.5-1.3a21.3 21.3 0 0 1-5.8-5.7 8.1 8.1 0 0 1-.5-.8c-4-7.1-7.6-7.8-11-12l-.4-.7-1-1.4a27.9 27.9 0 0 1-1-3.9 26 26 0 0 1-.2-1.3 2.2 2.2 0 0 1 0-.3l-.1-.6a49 49 0 0 1-.3-2.3v-1.2a48 48 0 0 1 0-4.7z" clip-rule="evenodd" data-name="Path 2451" transform="translate(-213.8 303.5)"/>
    </clipPath>
    <clipPath id="f">
      <path fill="none" d="M233-45.9c1.5 6.5-5.9 14.3-10.4 16.4-6.5 3 28.6 15.5 27 11a32.3 32.3 0 0 1 1.7-21c2.5-4.4-19.3-11-18.3-6.4z" clip-rule="evenodd" data-name="Path 2455" transform="translate(-221.8 47.4)"/>
    </clipPath>
    <clipPath id="g">
      <path fill="none" d="M261.1-215.1s33 16.3 50.2 21.6c6.5 2 11 2.2 20.7 2.7a173.2 173.2 0 0 0 21 .2c3.6-.2 25.7-1.3 30.7 0 3.3.9 4.8 5.7 5.6 10.5a47 47 0 0 1 .8 7.5c0 3-.4 5.2-1.4 5.2-1.8 0-4.4-11.8-7.8-12.7s-2.8 6.1-9 6.4c-1.7 0-6.2-6.8-9.8-6.4-8.4 1-26.2 13-40.5 11.7-19.5-1.7-75.6-22.2-75.6-22.2z" clip-rule="evenodd" data-name="Path 2458" transform="translate(-246 215.1)"/>
    </clipPath>
    <clipPath id="h">
      <path fill="none" d="M228.3-235.2c6.5 10.7 44.7 21.6 44.3 27.6-.5 9.4-10.5 15.6-13.4 20.5-4.6 7.6-33.4-12.7-38.6-20.5s3.6-34.4 7.7-27.6z" clip-rule="evenodd" data-name="Path 2461" transform="translate(-219 236.3)"/>
    </clipPath>
    <clipPath id="i">
      <path fill="none" d="M238.3-206s15.8 3 19.4 4c7.8 2.3 24.2 7.6 36 12.3 12.3 5 27 14.2 38.4 17.4a67.8 67.8 0 0 0 28.7 2c4-.9 11.2-3.2 15-2s8.4 6.4 10 8.9c1.2 1.7 1.4 6 0 6.2-.9.1-1.5-1.7-3.4-3.3a22 22 0 0 0-4.2-2c-1.4-.7-3.8-1.4-5.3-1-2.5.9-7.1 5.8-10.5 6.3s-6.6-2.8-10-3.3c-5-.8-13.5-1.3-20.3-1.6-10.2-.5-41-1.3-41-1.3s-25-1.4-33.4-3.4a69.3 69.3 0 0 1-19.4-9.1c-2.7-2-10.7-9.3-10.7-9.3z" clip-rule="evenodd" data-name="Path 2464" transform="translate(-227.6 206)"/>
    </clipPath>
    <clipPath id="j">
      <path fill="none" d="M224.1-255.8c3.2-.9 10.6 3.2 16.9 9a61.5 61.5 0 0 1 12.5 13.3c1 3.3.3 7 0 9.6-.8 7.5-3.5 15.1-2.2 20.3 1.4 5.5 16.5 12.1 23 15.3 8.2 4-11.8 33.7-15.7 28.2-3.9-5.4-19.2-7.8-19.2-7.8s2.8 17.3 2 25.5c-1.3 15.4-6.7 24.9-6.7 24.9s-21 1.5-29.3 5.6c-8.9 4.3-15.6 13.1-21.8 18.7-5 4.5-12.6 14.7-13.8 14.2-8.2-3.5-15.4-25.2-15.8-33-1.2-22.7 5.8-37.9 9.2-56.9 3.3-18.4 7.6-45.4 14.1-56.7 12.8-22 33.7-26.4 46.8-30.2z" clip-rule="evenodd" data-name="Path 2469" transform="translate(-153.8 255.9)"/>
    </clipPath>
    <clipPath id="k">
      <path fill="none" d="M265.4-61.2c3.9 4 4 13.8 1.7 17.3-3.3 5 25-2.5 22-5a27 27 0 0 1-8-15.7c0-4.2-18.5.6-15.7 3.4z" clip-rule="evenodd" data-name="Path 2473" transform="translate(-265.1 66.2)"/>
    </clipPath>
    <clipPath id="l">
      <path fill="none" d="M200.8-147.6s12.4-3.2 38-8.6c13.2-2.7 31.3-9.2 38.9-3.8 6.1 4.4 7.9 17 14 29.6C308.1-96.9 309-49.5 311-32.2c.3 3-5 5-7.3 5.5-2.2.3-10 1.4-12-2.2-6-11-11.3-39.3-24.8-64-4.2-7.6-8.6-13.9-12.9-17-18.3-13.6-72.1 0-72.1 0z" clip-rule="evenodd" data-name="Path 2476" transform="translate(-181.9 162)"/>
    </clipPath>
    <clipPath id="m">
      <path fill="none" d="M223.3-154s-1.1.1-13 3c-7.7 1.9-15.6 6.7-20.1 9.2-5.3 3-7 12.7-14 16a36.8 36.8 0 0 1-16.6 3s3.3 9.5 15.2 13.3c15.5 4.9 41.7 4.6 51.2 5.2 14.6.8 39 2.1 47.8 3 4.4.6 7.7 2.1 7 6.5C278-79 253.6-29.2 253-13.2c-.3 8.3 17 16.7 22.7 10.5 13.3-14.2 48.2-76 56.7-95.8 3.1-7.2.3-17.6-5.5-22.8-7.7-6.8-26.4-13-40.1-17.8a792.4 792.4 0 0 0-63.6-14.8z" clip-rule="evenodd" data-name="Path 2480" transform="translate(-159.6 154)"/>
    </clipPath>
    <clipPath id="n">
      <path fill="none" d="M231.7-39c.5 0-1 1-1 1.7-.1 1.4 3.3 5 5.6 5.8 6.3 2.5 10.5 2.9 12.8 2.4 1-.2 1-3.6 1.3-3.2a32.6 32.6 0 0 1 3 3.2c3.4 4.4 6.6 11.3 10.7 15.6 6.5 6.7 22.5 15.8 24.8 21.1 1 2.2-2.2 5.5-4.5 5.5-8.5.3-22.2-4.7-38.7-12.5-3.4-1.6-24.2-14.7-27.1-19.2-2.6-3.9-1.7-11.2 0-14s9.7-6.7 13-6.5z" clip-rule="evenodd" data-name="Path 2483" transform="translate(-217 39)"/>
    </clipPath>
    <clipPath id="o">
      <path fill="none" d="M268.5-52.9c.6-.2-.1 1.3 1.2 1.9a15.4 15.4 0 0 0 8.4 0c2.8-1 5.4-1.5 6.5-5 .3-.9-.8-2.3 0-2.2 4.5.3 7.9 3.6 12.9 5.3 3.3 1.2 14 1.6 19.5 1.9 4.4.2 3.2 4.2 3 5-.2 1.8-17 6-24.6 8a131 131 0 0 1-20.5 4.6c-3 .1-7-.2-8.6-2.6s-1.2-9-.9-11.7c.3-2 1.8-4.7 3.1-5.2z" clip-rule="evenodd" data-name="Path 2486" transform="translate(-265.1 58.2)"/>
    </clipPath>
    <clipPath id="p">
      <path fill="none" d="M150.4-190.5c.8-3.3 11-2.1 16.2-2.4 12.1-.7 57-4.3 57-4.3l2.6 2.2 3.1 2-63 9.5c-5.5.8-15.8 1.8-16.3-1.2a13.2 13.2 0 0 1 .4-5.8z" clip-rule="evenodd" data-name="Path 2492" transform="translate(-149.8 197.2)"/>
    </clipPath>
    <clipPath id="q">
      <path fill="none" d="M151.5-193s1.2 2.7 3 2.8c5.7.4 34.8-.5 41-2 2.5-.6 6.8-5.6 6.8-5.6z" clip-rule="evenodd" data-name="Path 2491" transform="translate(-151.5 197.8)"/>
    </clipPath>
    <clipPath id="r">
      <path fill="none" d="M171-244.9c.8 1.4 4.5 1.8 8.3 2.7 12.3 2.8 38.7 9.2 46.6 13.7 8.5 4.9 18.7 16.5 19.5 21.6 0 0 0 1 .2 1.2.7.3 1.4-.8 1.8-1.3 1.1-1.8.5-7.4-.5-9.2a50.3 50.3 0 0 0-16.6-18.9c-7.8-4.4-34.4-10-46.3-12.4-3.5-.7-7.4-3.3-9.5-2.9-2.2.4-4.4 4.2-3.6 5.5z" clip-rule="evenodd" data-name="Path 2498" transform="translate(-170.8 250.4)"/>
    </clipPath>
    <clipPath id="s">
      <path fill="none" d="M174.6-251.3s-1.9 2.8-.4 3.4c7 2.7 42.7 11.3 53 17.1a58 58 0 0 1 16.2 17c1.4 2.2 2 6.5 1.2 8.2-.4.9.8.5 1.2.7 3.3 1.4 3.5-18 3.5-18L227-242.7z" clip-rule="evenodd" data-name="Path 2497" transform="translate(-173.6 251.3)"/>
    </clipPath>
    <clipPath id="t">
      <path fill="none" d="M290.1-264.2a11.2 11.2 0 0 0-5.6 5.5 41 41 0 0 0-2.7 13.6c0 7.3-2.8 5.4-4 5.5a4.8 4.8 0 0 0-4.6 4.5c0 1-1.2 1-1.5 1.9-.3.9.2 1.4 0 2.3a8.3 8.3 0 0 1-1.8 3c-1.5 1.4-13.6 9.6-13.6 9.6L241-235s-8.1 5.8-6.5 14.4-2.7 5.8-4.6 4.6c-4.7-3-21-18-23-23.5a3.8 3.8 0 0 1 0-2.3s12.7-1.5 20.3-20.4c1.2-2.9 3.8-5.4 4.3-9.4 3.1-22 19-24.8 19-24.8s11.2-4.8 28.6 11 11 21.3 11 21.3z" clip-rule="evenodd" data-name="Path 2502" transform="translate(-206.6 297.2)"/>
    </clipPath>
    <clipPath id="u">
      <path fill="none" d="M149-213.7l3.5-15.8c.1-.5.7-.6 1.2-.5a1 1 0 0 1 .7 1.3l-3.8 15.8-1-.5c-.3 0-.7-.3-.7-.3z" clip-rule="evenodd" data-name="Path 2511" transform="translate(-149 230)"/>
    </clipPath>
    <clipPath id="v">
      <path fill="none" d="M152.3-228.3a6.8 6.8 0 0 1 0-2.5 7.5 7.5 0 0 1 1.9-2.6 4.4 4.4 0 0 1 2-.4s-.7.2-1.6 1.7c-.8 1.3-.6 2.1-1 2.8a4.5 4.5 0 0 1-1.3 1" clip-rule="evenodd" data-name="Path 2514" transform="translate(-152.1 233.8)"/>
    </clipPath>
    <clipPath id="w">
      <path fill="none" d="M151-213.6l3.3-12.7c0-.4.6-.6 1.2-.4a1 1 0 0 1 .6 1.3l-3.8 12.2-.7-.2-.7-.2z" clip-rule="evenodd" data-name="Path 2517" transform="translate(-151 226.8)"/>
    </clipPath>
    <clipPath id="x">
      <path fill="none" d="M153.8-225.7s.1-4.1.7-4.5 2.6.5 2.7 1.3-2.2 4-2.2 4a.9.9 0 0 1-.8-.1.6.6 0 0 1-.4-.7z" clip-rule="evenodd" data-name="Path 2520" transform="translate(-153.8 230.3)"/>
    </clipPath>
    <clipPath id="y">
      <path fill="none" d="M147.2-216.2l1.6-10.8c0-.5.6-.7 1.2-.5a1 1 0 0 1 .7 1.3l-2 11.1a7.8 7.8 0 0 1-1-.6l-.5-.5z" clip-rule="evenodd" data-name="Path 2523" transform="translate(-147.2 227.5)"/>
    </clipPath>
    <clipPath id="z">
      <path fill="none" d="M149.3-225.4a6.8 6.8 0 0 0 1.6-1.9 7.5 7.5 0 0 0 .2-3.2c-.1-.7-1.2-1.6-1.2-1.6s.4.6 0 2.3c-.2 1.5-.9 2-1 2.8a4.5 4.5 0 0 0 .4 1.6" clip-rule="evenodd" data-name="Path 2526" transform="translate(-148.9 232)"/>
    </clipPath>
  </defs>
  <g clip-path="url(#a)" data-name="Mask Group 1" transform="translate(-1025.7 -59)">
    <g data-name="Group 1113">
      <path fill="#081b2c" d="M1543.4-.2s-3.6 93.9-125.4 171.6 10.9 327.8-175 327.8S966.3 633 966.3 633L918.1 1.7z" data-name="Path 1709"/>
      <path fill="#53a3a0" d="M1339 303.5l.7.8-.7-.8z" data-name="Path 1763"/>
      <path fill="#121324" d="M1434.7 484.2l.6 1z" data-name="Path 1783"/>
      <g fill-rule="evenodd" data-name="Group 1104">
        <path fill="#163d6d" d="M1064 231c-9.9-.5-12 14.8-18.5 30.3-5.1 12.2-7.6 11.7-9.2 18-1.2 4.6-5 13.3-4.1 21.1 1 7.6 5 16.2 8.3 18 11.3 6.6 8.6 15.3 12.7 16s7-8.7 11.7-11.2c9-4.6 15.2-8.2 17.2-16 6.2-24.4 1.4-40.6-1.9-53.2-2.4-9.6-6.7-22.7-16.2-23z" data-name="Path 2528"/>
        <path fill="#092056" d="M1128.1 304.6c.7 9.3-8 12-15 25.5-5.5 10.6-3.9 12.1-7.3 16.9-2.4 3.4-4.4 8.3-10.2 12-5.6 3.6-12 4.8-15 3.5-10.3-4.6-18 5.8-20.7 3.3s2.3-10 1.4-14.8c-1.6-9.1 1.3-15 5.5-21a71.1 71.1 0 0 1 40-28.2c10.1-2.6 21.2.6 21.3 2.8z" data-name="Path 2529"/>
        <path fill="#163d6d" d="M1029.2 439.2c-1.2-2.6 4-9.2-8.1-12-12.4-3-16.5.7-19.5 3.1-2.6 2.2-3 7.8-1.3 9.9s8 2.4 12.3 2.3c4.2 0 10.4-2.8 13-2.7 1.4 0 2.3 3.4 2.9 3.3s1.3-2.7.7-3.9z" data-name="Path 2530"/>
        <path fill="#0e3760" d="M1042.3 361.2c.5-1.1-2.4-3.4-4.5-6.8a29.8 29.8 0 0 0-10.2-8.3 94.4 94.4 0 0 0-29.3-8.3c-8.3-1-18.6-.2-25.1 1.7-5.3 1.5-13.8 7.2-15 9.3s5.4 2.2 7.6 3.3c4.2 2.3 11.6 9 18.4 10.4a67 67 0 0 0 29.5-.2c5-1.3 11-5 14.8-5.4 2.6-.3 6.3 0 7.7 1.5 1.1 1.2 5.7 3.8 6 2.8z" data-name="Path 2531"/>
        <path fill="#0e3760" d="M1052.5 405c2.7-2.8 8.3-8 22-12.3a109.8 109.8 0 0 1 59.5 1c3.1 1.1 6.6 6.9 5.9 8.5s-7.2-.1-10.6 1.1a97.4 97.4 0 0 0-12.6 5.3c-4.7 2.5-8.6 5.7-12.2 6.5-5.7 1.5-11.7.3-17.3-1.3-16.5-4.5-15.2-7-20.7-8.1-4.5-.9-10 1.8-12.6 1.7-.9 0-2-1.7-1.4-2.3z" data-name="Path 2532"/>
        <path fill="#092056" d="M1039.8 411.6c-1-3.5-2.4-13.4-11-21.9a72.6 72.6 0 0 0-21-14.7 62.7 62.7 0 0 0-22-4.3c-2.6.1-7 4.9-7.8 9.2-3.3 18.4 21.4 26.4 26 26.8 13.3 1.3 21.2 0 25.5.9 3.6.7 6.7 5 8.5 5.7.7.3 2-.8 1.8-1.7z" data-name="Path 2533"/>
        <path fill="#0c0d18" d="M1018 512.2l14-56.6c4.6-19.3 10.7-42.6 13.9-59.2 2.6-13.3 3.4-26.9 5.4-40.3.8-6 .4-15.4 2-25.7 3.6-23.7 9.8-51.8 10-51.7s-5 28.5-8 52.1c-1.4 10.6-1 19.8-1.7 25.8-1.6 13-3 26.2-5 38.8q-3 18.3-7.1 36.5c-2.9 12.4-7 25.4-10 38.4-3 13.5-6 36-8.3 42.9-.6 1.8-3.5-.7-5.3-1" data-name="Path 2534"/>
        <path fill="#0c0d18" d="M1109.5 312.7c-11.7 10.4-26.8 22.3-35.2 31-6 6.3-10.8 14.8-15 21.5-3.7 6-8 14.9-9.9 18.7-.6 1.4-1.6 5.6-.8 4.4 2-3 8-15.5 12.7-22.7a161.5 161.5 0 0 1 15.7-21.3c8-8.8 21.7-21 32.5-31.6" data-name="Path 2535"/>
        <path fill="#0c0d18" d="M1044.5 409.7c5-2.8 21.7-11.4 30-13.9 6.5-1.8 11-1.7 16-2 3-.1 10 .7 13.2.9 6 .4 26.2 4.4 26.1 4.7s-17.5-2.4-26.4-3.3c-9.2-1-19.7-1-29.2 1.7-10 2.7-25.4 13-30.3 14.9-1 .4-.4-2.5.6-3z" data-name="Path 2536"/>
        <path fill="#0c0d18" d="M1050.4 366.8c-3-2.9-12.1-11.6-19.4-14.3s-16.1-2-24.2-1.9c-8.4.1-27-3.6-27-3.3s18.3 4.9 26.6 5.2c8 .3 19-.4 24 2.7 1.4.8 8.2 4.7 9.4 5.6 3.2 2.4 7.3 7.7 10 9.2.9.5 1.4-2.5.6-3.2z" data-name="Path 2537"/>
        <path fill="#0c0d18" d="M1043 413.2c-3.7-3.6-14.7-15-22-18.8-6.9-3.6-22.5-4.6-22.5-4.4s15.5 2 22.1 5.8c7.3 4.3 18 17.2 21.8 20.1.7.6 1.1-2 .5-2.7z" data-name="Path 2538"/>
        <path fill="#0c0d18" d="M1035.4 445.9c-.7-.8-3.3-2-5-4.2-2.4-3-4-7.2-6.5-8a28.7 28.7 0 0 0-20.6 1.8l7.4-1.3c3-.5 9.3-.6 13 .9 2.2.8 3.7 5.1 5.6 7.9 1 1.5 2.6 2 3.3 2.7.8.7 2 2.2 2.4 2.3s.9-1.6.4-2.1z" data-name="Path 2539"/>
      </g>
      <g fill-rule="evenodd" data-name="Group 1196" opacity=".4">
        <path fill="#163d6d" d="M1209.5 45.3c9.2-.7 10.9 17.5 16.7 35.9 4.6 14.4 7 13.8 8.3 21.4 1 5.3 4.5 15.7 3.5 25-1 9.1-5 19.4-8.1 21.7-10.8 8-8.4 18.3-12.2 19.3s-6.3-10.3-10.8-13.2c-8.3-5.3-14-9.5-15.8-18.8-5.3-29-.5-48.4 2.8-63.5 2.5-11.5 6.7-27.2 15.6-27.8z" data-name="Path 2528"/>
        <path fill="#092056" d="M1148.1 134.4c-.8 11 7.4 14.2 13.6 30.2 5 12.5 3.4 14.3 6.6 20 2.2 4 4 9.7 9.3 14 5.1 4.3 11 5.6 14 4 9.7-5.7 16.7 6.6 19.3 3.6s-2-11.9-1-17.7c1.6-10.9-1-18-4.9-24.9-12-21.4-26.8-29.9-36.8-33-9.5-2.9-19.9 1.2-20 3.8z" data-name="Path 2529"/>
        <path fill="#163d6d" d="M1238.2 293.2c1.2-3.1-3.4-10.9 7.9-14.5 11.6-3.8 15.4.5 18.2 3.4 2.3 2.5 2.6 9.2 1 11.7s-7.6 3-11.5 3c-4 0-9.7-3.1-12.2-3-1.3.1-2.2 4.1-2.8 4s-1.1-3.2-.6-4.6z" data-name="Path 2530"/>
        <path fill="#0e3760" d="M1228.4 200.4c-.4-1.4 2.3-4.2 4.4-8.2a32 32 0 0 1 9.7-10.2c6.4-4.7 19-8.8 27.5-10.3 7.8-1.4 17.4-.6 23.5 1.5 5 1.7 12.7 8.4 13.8 10.8s-5 2.7-7.1 4.2c-4 2.7-11 11-17.4 12.7-7.5 2-17.8 3.5-27.6.3-4.7-1.5-10.3-5.8-13.8-6.2-2.4-.3-5.9.2-7.2 1.9-1 1.4-5.4 4.6-5.8 3.5z" data-name="Path 2531"/>
        <path fill="#0e3760" d="M1217.1 252.9a41.1 41.1 0 0 0-20.4-14.3 80.6 80.6 0 0 0-55.6 2c-3 1.6-6.4 8.5-5.7 10.5s6.7-.3 9.9 1.1a78.3 78.3 0 0 1 11.7 6.1c4.3 3 8 6.6 11.2 7.6 5.3 1.6 11 0 16.3-2 15.5-5.6 14.3-8.6 19.5-10 4.2-1.1 9.4 1.9 11.7 1.8.8 0 2-2 1.4-2.8z" data-name="Path 2532"/>
        <path fill="#092056" d="M1228.8 260.5c1-4.2 2.6-16 10.6-26.4 5.2-6.5 12.8-13.9 20-17.9a48.8 48.8 0 0 1 20.7-5.5c2.4 0 6.5 5.7 7.2 10.8 2.7 22-20.5 31.9-24.8 32.5-12.5 1.7-19.9.4-24 1.5-3.3.8-6.3 6-8 7-.6.3-2-1-1.7-2z" data-name="Path 2533"/>
        <path fill="#0c0d18" d="M1247.5 380c-4-22.3-8.1-44.7-12-67.2-4-23-9.3-50.7-12-70.4-2.2-15.8-2.8-32-4.4-48-.7-7-.1-18.4-1.4-30.6-3-28.2-8.2-61.6-8.5-61.5s4.2 33.9 6.7 62c1 12.6.4 23.6 1 30.7 1.3 15.4 2.4 31.3 4 46.3q2.5 21.8 6 43.4c2.5 14.8 6.2 30.3 8.6 45.6 2.6 16.1 5 42.8 7 51.1.6 2.2 3.4-.9 5-1.3" data-name="Path 2534"/>
        <path fill="#0c0d18" d="M1165.4 143.7c10.8 12.2 24.7 26.2 32.4 36.4 5.5 7.3 9.9 17.4 13.6 25.3 3.4 7 7.3 17.6 9 22.2.5 1.6 1.4 6.7.7 5.2-1.8-3.6-7.3-18.3-11.5-27-4.3-8.6-9-17.4-14.4-25-7.3-10.3-19.9-24.7-29.8-37" data-name="Path 2535"/>
        <path fill="#0c0d18" d="M1224.5 258.3a177.5 177.5 0 0 0-27.9-16c-6-2.2-10.3-1.9-14.8-2.1-3-.1-9.5 1-12.4 1.2-5.6.7-24.6 5.8-24.6 6.1s16.5-3.2 24.8-4.4a60 60 0 0 1 27.3 1.5c9.3 3 23.5 15 28.1 17.2.9.5.4-3-.5-3.5z" data-name="Path 2536"/>
        <path fill="#0c0d18" d="M1219.7 207.2c3-3.5 11.6-14 18.4-17.5s15.2-2.7 22.8-2.6c7.8 0 25.2-4.8 25.2-4.4s-17.2 6-25 6.6c-7.5.5-17.7-.1-22.5 3.7-1.2 1-7.7 5.7-8.8 6.8-3 3-7 9.4-9.6 11.2-.8.5-1.2-3-.5-3.8z" data-name="Path 2537"/>
        <path fill="#0c0d18" d="M1225.9 262.5c3.4-4.4 14-18.2 21-23 6.4-4.3 21-5.9 21-5.6s-14.5 2.6-20.8 7.4c-7 5.3-17.2 20.8-20.8 24.4-.6.6-1-2.5-.4-3.2z" data-name="Path 2538"/>
        <path fill="#0c0d18" d="M1232.3 301.3c.7-1 3.2-2.4 4.9-5 2.2-3.7 3.8-8.7 6-9.8 4.1-1.8 9.8-1.6 12.5-1a63 63 0 0 1 6.9 2.8l-7-1.5c-2.7-.4-8.7-.4-12 1.3-2.2 1.1-3.7 6.3-5.5 9.6-1 1.9-2.5 2.5-3.1 3.3-.8 1-1.9 2.7-2.3 2.8s-.8-2-.4-2.5z" data-name="Path 2539"/>
      </g>
    </g>
    <g data-name="Group 1206">
      <path fill="#bebebe" fill-rule="evenodd" d="M1384 437.2s47.4-3.7 61.6-4.3c8-.4 24 0 24 0l-11.8 7.3z" data-name="Path 2425"/>
      <path fill="#d8d8d8" fill-rule="evenodd" d="M1383.8 437.2h77.5l28-70.2 3.5 2.5-28.4 71.7h-77.3c-2 0-3.3-4-3.3-4z" data-name="Path 2426"/>
      <path fill="#bebebe" fill-rule="evenodd" d="M1492.8 369.5l-28.4 71.7 10.4-9.4 11.7-27.6z" data-name="Path 2427"/>
      <path fill="#660e0e" fill-rule="evenodd" d="M1166.8 342.7c-2.6-5.6-13 6-16 9.6-3.4 4.2-10.3 25-7.6 30.7s23.6 3.2 23.6 3.2 2.7-37.8 0-43.5z" data-name="Path 2428"/>
      <g clip-path="url(#b)" data-name="Group 1073" transform="translate(1142.6 341.2)">
        <path fill="#480a0a" fill-rule="evenodd" d="M19.1 15.6c-4-.7-12 25.2-24.5 22.6C-10.6 37 5.4 49.9 5.4 49.9L19 42.6s4.1-26.2 0-27z" data-name="Path 2429"/>
      </g>
      <path fill="#8d1515" fill-rule="evenodd" d="M1161.6 353.7s-.4-1.4-5.2-2c-7-.9-7.9 5.7-8.5 6s-1.3.6-1.8-.6c-1-2.4 4.1-10.6 7.8-13.5s13.3-5 13.3-5l-3 7.5c-1 2.5-2.6 7.6-2.6 7.6z" data-name="Path 2431"/>
      <path fill="#250505" fill-rule="evenodd" d="M1240.2 329s15.6-9.4 10.9-21.7c-1.2-3-.5-7.6-5-10.6-24.7-16.5-28.6-10.8-58 6.7-17.5 10.4-42.2 93.3-39.7 112.5 1.5 12.6 39.7 6.4 39.7 6.4z" data-name="Path 2432"/>
      <g clip-path="url(#c)" data-name="Group 1074" transform="translate(1148.2 286.9)">
        <path fill="#480a0a" fill-rule="evenodd" d="M49.7 25.3C72 15.3 91 58 91 58l-45 82.5s-43.2 7.4-44.4-12.6a15.4 15.4 0 0 1 0-2.2c2.2-26.3 26-90.3 48.2-100.3z" data-name="Path 2433"/>
      </g>
      <path fill="#8d1515" fill-rule="evenodd" d="M1232 326.7c2-8.5-13.6-20.1-22.4-23.7-7.6-3.2-19.6-2.8-23.3 0-1.6 1.2-4.3 3.7-5 2.7a2.9 2.9 0 0 1 .7-2.7 129 129 0 0 1 15.8-10.4c5-2.8 11.1-5.9 15.8-7a22.6 22.6 0 0 1 12.1 0c6.2 2 20.1 6.3 25.7 17.4 7.5 14.6 1.8 18.3 1.8 18.3s-22.5 10.6-21.3 5.4z" data-name="Path 2435"/>
      <g clip-path="url(#d)" data-name="Group 1075" transform="translate(1181.1 284.7)">
        <path fill="#660e0e" fill-rule="evenodd" d="M-1.6 18.4c4.8-2 10-7.6 23.2-5.5a33.7 33.7 0 0 1 16.2 6.9c29.6 24.5 1.1 30 7.2 31.4 1.9.5 2-5 2-5L-3.3 25s-.4-5.7 1.7-6.5z" data-name="Path 2436"/>
      </g>
      <path fill="#250505" fill-rule="evenodd" d="M1203 294.2c1-.2 3.2-2.2 2.1-2.6-1-.4-6.5-.4-8.6 0a11.3 11.3 0 0 0-4.7 2.6c-.8.8-1 2.1-.6 2.3.5.2 2.6-1.4 4.5-1.8 3-.5 6-.2 7.2-.5z" data-name="Path 2438"/>
      <path fill="#250505" fill-rule="evenodd" d="M1212 288.5c1-.2 2.9-1.9 2-2.3-1-.3-5.9-.3-7.8 0a10 10 0 0 0-4.1 2.3c-.7.8-.8 2-.5 2 .4.2 2.3-1.2 4-1.5 2.6-.4 5.3-.2 6.4-.5z" data-name="Path 2439"/>
      <path fill="#250505" fill-rule="evenodd" d="M1151 393.3a9.1 9.1 0 0 0-2.3 1.6 11.4 11.4 0 0 0-1.2 5c.1.8 2.3 1.2 2.3 1.2l1.2-4.5" data-name="Path 2440"/>
      <path fill="#250505" fill-rule="evenodd" d="M1174 323.7a22.3 22.3 0 0 0-3.5 1.8 9 9 0 0 0-1.8 4.2c0 .8 1.8 1.7 1.8 1.7l3-4.6" data-name="Path 2441"/>
      <path fill="#250505" fill-rule="evenodd" d="M1170.2 365.9l7.9 6.3s-2.6 1.8-5.7 8.2c-1.7 3.6-4.2 17.4-4.2 17.4s.2-14.7.5-19.3c.2-4.2 1.5-12.6 1.5-12.6z" data-name="Path 2442"/>
      <path fill="#8d1515" fill-rule="evenodd" d="M1170.2 365.9c.2-.5 6.1 2.7 9.4 3.7 3.2 1 10.6 2.3 10.4 2.7s-4.7 1.8-11.5 0-8.5-6-8.3-6.4z" data-name="Path 2443"/>
      <path fill="#d05337" fill-rule="evenodd" d="M1181.7 372.7l4-15 .5-.3 5.9 1.6-4.3 13.7-.4.3-.1.1z" data-name="Path 2444"/>
      <path fill="#feb062" fill-rule="evenodd" d="M1181.1 372.9l4.6-15.3 5.8 1.6-4.2 13.9-3 .1a29.9 29.9 0 0 1-3.2-.3z" data-name="Path 2445"/>
      <path fill="#0d2945" fill-rule="evenodd" d="M1279.9 315.3c0-1.3.3-14 4-16.7 3.6-2.7 4-5 4-5.4-.1-3.6-3.5-4.4-4-4.5a4.8 4.8 0 0 0-4 .5c-1.4 1-2.4 3.4-3.3 4.9-1.7 2.8-3.5 4.9-3 8.3.5 3.7-3.8 7-6.4 7.7a10.3 10.3 0 0 1-6 0 7.8 7.8 0 0 0 4.5-2.7c1.2-1.3 1.3-2.8 1.7-4.5 1-3.6.4-7.3 2.4-10.6a32.5 32.5 0 0 0 2.7-4.4v-.3c1.4-3.7.5-7.8 1.3-11.6a16.2 16.2 0 0 1 5-9c1.8-1.6 4-2.8 5.6-4.7 1.2-1.3 2.2-3 4-3.8 1.7-.7 4-.6 5.7-.7 1.6 0 4.3-1.9 11.8-1.6 2.4 0 8.3 1.5 11.2 6.5a11.1 11.1 0 0 0 6.3 4.7c4.4 1.5 8 2.4 10.8 6.2l.3.3v.2a23.8 23.8 0 0 1 2.8 5c.8 2.2 3.6 6.3 6 5.6 4-1 5.2-4.5 6.3-5.5.3-.4.9 6-1 10.8a23.9 23.9 0 0 1-6 8.2c-3.4 3-6 3.3-8.2 2.7a8.3 8.3 0 0 1-6.1-5.4c-.3-.8-1.3-5.8-5.3-8.4-2.4-1.7-2.4 1.4-8.8-1.2a16.8 16.8 0 0 1-5.3-4.4c-1.4-2-5-2-8 3.2-1.1 2-4 3.7-8 5-2.5.8-1.7 4.9-2.4 7a18.1 18.1 0 0 0-4.2 9 18.3 18.3 0 0 0 .5 5.8c1.2 3 3.5 5.4 6 7.8l4 4a.4.4 0 0 0 .1 0 21.2 21.2 0 0 0 9.5 5.9l.8.2h.3c.5.3 1.2.4 1.8.6a1.2 1.2 0 0 0 .2 0l1.8.4 1.3.3h.1a1.7 1.7 0 0 1 .3.1 4.3 4.3 0 0 1 1.7 1.4 9.7 9.7 0 0 1 1.3 1.9l.2.4c1.2 2.5.5 5-.9 7.2l-1.2 1.8-2.7 3.5c-.8 1-2.5 3.8-3.6 4.5-1.9 1.1-7.3-1-7.5-1.3a21.3 21.3 0 0 1-5.8-5.7 8.1 8.1 0 0 1-.5-.8c-4-7.2-7.6-7.8-11-12.1l-.5-.6-1-1.4a27.9 27.9 0 0 1-.9-3.9 26 26 0 0 1-.2-1.4 2.2 2.2 0 0 1 0-.2l-.1-.6a49 49 0 0 1-.3-2.4V320a48 48 0 0 1-.1-4.7z" data-name="Path 2446"/>
      <g fill-rule="evenodd" clip-path="url(#e)" data-name="Group 1076" transform="translate(1261.3 256.1)">
        <path fill="#00497c" d="M71 15.2s5.5 9.7 5.3 13.2c-.2 3-.5 5.1-3.2 7-3.4 2.2-4.6 7.4-4.6 7.4L82 50.5 99.4 19z" data-name="Path 2447"/>
        <path fill="#0c0d18" d="M55.5 5.6a13.6 13.6 0 0 0-8.3-1.9c-4.3.7-8.8 1.6-9.6 3-1.6 2.7-3 5.3-6.7 6S26.3 19 26 21.2c-.3 2.2-3.2 6.6-2.5 10.6.2.7 1.8 2.1 1.8 2.4.8 5.8-12 20.9-12 20.9L1 56.2l-4.8-4.4L22.7-4.8l28.8 2.3z" data-name="Path 2448"/>
        <path fill="#0c0d18" d="M18.3 59.4s.7 5.4 2.5 7.3C24 70 37.3 79.9 37.3 79.9s11.3 11 10 15.6-8.7 0-8.7 0l-10.8-7.2-9.5-13.7z" data-name="Path 2449"/>
        <path fill="#0c0d18" d="M26.2 35.3c.3 0 1.8 2.4 1 4-.5 1-2.2 2.8-3.5 4.7a24.4 24.4 0 0 0-2.8 5.4c-.9 3-4 16.4-4.6 16.5s1.4-21 1.4-21 8-9.5 8.5-9.6z" data-name="Path 2450"/>
      </g>
      <path fill="#ed9ea2" fill-rule="evenodd" d="M1283.2 600c1.5 6.3-5.9 14.1-10.4 16.2-6.5 3 28.6 15.6 27 11.1a32.3 32.3 0 0 1 1.7-21c2.5-4.4-19.3-11-18.3-6.4z" data-name="Path 2452"/>
      <g fill="#c25367" fill-rule="evenodd" clip-path="url(#f)" data-name="Group 1077" transform="translate(1272 598.4)">
        <path d="M16.7 1.7S15 13.4 12 17.3s-13 8.1-13 8.1L-7.6 9.8 8.9-6.5z" data-name="Path 2453"/>
        <path d="M28.5 8.8c-2 .3-2.6 6.4-3.1 9.5s-1 6.5 0 9a29.2 29.2 0 0 0 3 4.9L35 15.6s-4.5-7.1-6.5-6.8z" data-name="Path 2454"/>
      </g>
      <path fill="#ed9ea2" fill-rule="evenodd" d="M1319.5 374.3s33 16.3 50.2 21.6c6.5 2 11 2.2 20.7 2.8a173.2 173.2 0 0 0 21 .1c3.6-.2 25.7-1.3 30.7 0 3.3.9 4.8 5.8 5.6 10.6a47 47 0 0 1 .8 7.5c0 3-.4 5-1.4 5.1-1.8 0-4.4-11.8-7.8-12.6s-2.8 6-9 6.3c-1.7.1-6.2-6.7-9.8-6.3-8.4.8-26.2 13-40.5 11.7-19.5-1.8-75.6-22.3-75.6-22.3z" data-name="Path 2456"/>
      <g clip-path="url(#g)" data-name="Group 1078" transform="translate(1304.4 374.3)">
        <path fill="#c25367" fill-rule="evenodd" d="M9.2 7.5a95 95 0 0 1 19.6 8.8c5.3 3 12.1 9.1 18.3 11.6 16 6.5 22.3 8.2 30.6 10 11.3 2.3 26.3-3.7 33.9-4.4 3.8-.3 9.6 2.1 13.6 2.1 3.5 0 4.7-4.9 10.3-2 6.4 3 7 13.7 7 14.7 0 1.7-19.2-4.3-19.2-4.3l-37.9 6.5-70.9-19.1-22.4-12.5S3.7 6.3 9.1 7.5z" data-name="Path 2457"/>
      </g>
      <path fill="#e9c7c7" fill-rule="evenodd" d="M1277.5 347c6.6 10.8 44.7 21.7 44.3 27.7-.5 9.4-10.4 15.6-13.4 20.5-4.6 7.6-33.3-12.7-38.6-20.5s3.6-34.4 7.7-27.6z" data-name="Path 2459"/>
      <g clip-path="url(#h)" data-name="Group 1079" transform="translate(1268.2 346)">
        <path fill="#d3a6a6" fill-rule="evenodd" d="M7 18.2c3.3.6 9.9 12.8 16 14.3 5.1 1.3 10.6 2.7 15.6 4.4a39 39 0 0 1 15.1 7.4c5.8 6.7-12.8 4.9-12.8 4.9L4.5 29.3S0 17 7.1 18.3z" data-name="Path 2460"/>
      </g>
      <path fill="#ed9ea2" fill-rule="evenodd" d="M1290.5 386.4s15.7 3 19.3 4.1c7.9 2.3 24.2 7.6 36 12.2 12.4 5 27 14.2 38.4 17.5a67.8 67.8 0 0 0 28.8 2c4-1 11.1-3.2 15-2s8.3 6.3 10 8.9c1.1 1.7 1.4 6 0 6.2-1 .1-1.6-1.7-3.5-3.3a22 22 0 0 0-4.2-2c-1.4-.8-3.7-1.4-5.2-1-2.5.9-7.2 5.8-10.6 6.3s-6.5-2.8-10-3.3c-5-.9-13.5-1.3-20.2-1.6-10.2-.5-41-1.3-41-1.3s-25-1.5-33.5-3.5a69.3 69.3 0 0 1-19.3-9c-2.7-2-10.8-9.4-10.8-9.4z" data-name="Path 2462"/>
      <g clip-path="url(#i)" data-name="Group 1080" transform="translate(1279.7 386.4)">
        <path fill="#c25367" fill-rule="evenodd" d="M13.8 20.6s16 .8 23.7 3c8.2 2.3 16 10.2 25.5 11 10.5 1 24.7 5 35 6.3 9 1.2 18.5.4 26.3 1.7 6.6 1.1 16.4-2 21 0 3.3 1.4 6.8 8.5 6.8 8.5l-108.8-3L5.6 35.8z" data-name="Path 2463"/>
      </g>
      <path fill="#efefef" fill-rule="evenodd" d="M1251.3 320c3.2-1 10.6 3.1 16.9 8.9a61.5 61.5 0 0 1 12.5 13.3c1 3.3.3 7 0 9.6-.8 7.5-3.5 15.1-2.2 20.4 1.4 5.4 16.5 12 23 15.3 8.1 4-11.8 33.6-15.8 28-3.8-5.3-19.2-7.7-19.2-7.7s2.9 17.3 2.1 25.5c-1.4 15.4-6.7 24.9-6.7 24.9s-21 1.5-29.3 5.6c-8.9 4.3-15.6 13.1-21.8 18.7-5 4.5-12.7 14.7-13.9 14.2-8.2-3.5-15.4-25.2-15.8-33-1.1-22.7 5.8-37.9 9.3-56.9 3.3-18.4 7.5-45.4 14-56.7 12.9-22 33.8-26.4 46.9-30.2z" data-name="Path 2465"/>
      <g fill-rule="evenodd" clip-path="url(#j)" data-name="Group 1081" transform="translate(1181 319.8)">
        <path fill="#d3a6a6" d="M114.3 90.8a73.5 73.5 0 0 0-13.9-6.3c-8.8-2.8-19.8-4.7-25.7-7.7-8.6-4.3-26.2-19.3-26.2-19.3l13.3 31.4L104 100z" data-name="Path 2466"/>
        <path fill="#e9c7c7" d="M79.6.1s-8.8 2.3-14.8 6C58.4 10 55 18.8 52.1 24 46.9 33 34.6 37 31.4 46.7c-3.1 9.4-2.7 19.6-6.3 28.8-3.9 10-14.3 30-16.2 41.3s2.6 29.9 3.8 38.3c.8 5.7 7.1 22.2 7.1 27.5s-25-19.3-25-19.3l-12.2-83.4L12.7-2z" data-name="Path 2467"/>
        <path fill="#e9c7c7" d="M47.9 77.9c-2.5 8.4-12.8 21.4-14.6 29.7-1.5 6.7 3.8 13.3 3.8 20 0 7.4-6.3 31-6.3 31H37l52-18.5 3-38.8-6.6-13.1s-13-5-17.5-10.3C63.3 72.4 47.9 57 47.9 57s1.9 14.1 0 20.8z" data-name="Path 2468"/>
      </g>
      <path fill="#ed9ea2" fill-rule="evenodd" d="M1330.3 578.3c3.8 3.9 4 13.8 1.7 17.3-3.3 5 25-2.5 22-5a27 27 0 0 1-8-15.7c-.1-4.2-18.5.6-15.7 3.4z" data-name="Path 2470"/>
      <g fill="#c25367" fill-rule="evenodd" clip-path="url(#k)" data-name="Group 1082" transform="translate(1330 573.2)">
        <path d="M4.2 2.8s3.9 9 3.5 13.1-5.8 11.5-5.8 11.5L-9.5 19-5 .3z" data-name="Path 2471"/>
        <path d="M15.7 2.7c-1.3 1.1 1 5.7 2 8.1s.7 7.1-1.1 8c-1.5.7 9.3.6 9.3.6L23.3 4.7s-6.3-3-7.6-2z" data-name="Path 2472"/>
      </g>
      <path fill="#d05337" fill-rule="evenodd" d="M1237.4 459.6s12.4-3.2 38.1-8.5c13.1-2.8 31.2-9.3 38.9-3.8 6 4.3 7.9 17 14 29.6 16.4 33.4 17.3 80.8 19.3 98.1.3 3-5 5.1-7.4 5.5-2.1.4-10 1.4-11.9-2.1-6.1-11-11.3-39.3-24.8-64-4.2-7.7-8.6-14-13-17.1-18.2-13.5-72 0-72 0z" data-name="Path 2474"/>
      <g clip-path="url(#l)" data-name="Group 1083" transform="translate(1218.5 445.2)">
        <path fill="#811d12" fill-rule="evenodd" d="M59.2 22.4c2 .1 6.2-1.4 13.1-3 3.2-.6 8.8-5.2 12-3.5 10.2 5.4 16.6 17.8 20.3 30.3 4 13.8 7.3 48 10.1 69.7.4 2.4 3.1 7.3 3.4 9.2.3 2.6-.7 6.9 0 8.9 1 3.6 2.3 2.4 0 2.9l-8 2-35.9-64.6s-17.9-52-15-51.9z" data-name="Path 2475"/>
      </g>
      <path fill="#d05337" fill-rule="evenodd" d="M1252.4 456s-1 0-13 3c-7.7 1.9-15.6 6.7-20.1 9.2-5.3 3-7 12.7-14 16a36.8 36.8 0 0 1-16.6 3s3.3 9.5 15.2 13.2c15.5 5 41.7 4.7 51.2 5.3 14.6.8 39 2 47.8 3 4.4.5 7.7 2.1 7 6.4-2.8 15.8-27.2 65.7-27.7 81.7-.3 8.3 17 16.6 22.7 10.5 13.3-14.2 48.2-76 56.7-95.8 3.1-7.2.3-17.6-5.5-22.8-7.7-6.8-26.4-13-40.1-17.8a792.4 792.4 0 0 0-63.6-14.8z" data-name="Path 2477"/>
      <g fill="#811d12" fill-rule="evenodd" clip-path="url(#m)" data-name="Group 1084" transform="translate(1188.7 456)">
        <path d="M8 29.2c7.5 0 19.2 8 29.4 9.2 13 1.6 37.4-.8 48.5 0 6.3.5 12.2 3.1 18.3 4.7 6.6 1.8 18 1.8 21.6 5.8s1.8 12.7 0 18.6c-1.4 4.4-1.6 13.4-4.7 20.8-2.2 5.3-6.7 9-9.5 13.7-3.7 6.1-3.9 14-5.6 18.2-2.8 6.6-9.3 14.2-9.8 18.9-.4 3.3 2.9 5.1 3.7 7 .4 1 0 3.7 0 3.7l-20.5-10.7 21.8-68L-3.7 55.4l-13.6-26.2z" data-name="Path 2478"/>
        <path d="M175.7 33.3S170 55 165 62.3c-5.9 9-16 25.8-22.3 36.7-6.8 11.5-13.9 21.8-18.4 32.2-3.2 7.6-9 17.5-10.8 22.3-.8 2.1 0 2.4 0 2.4l51.5-46.3 28.4-66.7s-11.9-2-17.8-5.1" data-name="Path 2479"/>
      </g>
      <path fill="#00497c" fill-rule="evenodd" d="M1280.2 609.5c.5 0-.9 1.1-1 1.8 0 1.4 3.4 5 5.7 5.8 6.3 2.5 10.5 2.9 12.8 2.4 1-.2 1-3.6 1.3-3.2a32.6 32.6 0 0 1 3 3.2c3.4 4.4 6.6 11.3 10.7 15.6 6.4 6.7 22.5 15.8 24.7 21.1 1 2.2-2.1 5.5-4.5 5.5-8.5.2-22.1-4.7-38.6-12.5-3.4-1.7-24.2-14.7-27.2-19.2-2.6-3.9-1.6-11.3 0-14s9.7-6.7 13.1-6.5z" data-name="Path 2481"/>
      <g clip-path="url(#n)" data-name="Group 1085" transform="translate(1265.5 609.5)">
        <path fill="#0d2945" fill-rule="evenodd" d="M17.9.6C20.6 2.7 10.5 12.5 13 18c2.7 5.9 13 13.7 21.3 18 10.2 5.3 24 15.2 39.7 13.8 3.4-.3-3.2 8.3-6.6 7.9C56.3 56 19 49.6 7.2 40.9-2.8 33.5-5.5 12-3.7 5.3S15.1-1.5 17.9.6z" data-name="Path 2482"/>
      </g>
      <path fill="#00497c" fill-rule="evenodd" d="M1333.4 589.3c.6-.3-.1 1.3 1.2 1.8a15.4 15.4 0 0 0 8.4 0c2.8-1 5.4-1.4 6.5-4.9.3-.9-.8-2.3 0-2.3 4.4.3 7.9 3.6 12.8 5.4 3.4 1.2 14 1.6 19.6 1.8 4.4.3 3.1 4.3 3 5-.2 1.8-17 6-24.6 8.1a131 131 0 0 1-20.5 4.5c-3 .2-7-.2-8.6-2.6s-1.3-8.9-.9-11.7c.3-2 1.8-4.6 3-5.1z" data-name="Path 2484"/>
      <g clip-path="url(#o)" data-name="Group 1086" transform="translate(1330 584)">
        <path fill="#0d2945" fill-rule="evenodd" d="M6 6h1.2C5.9 7.4 5 11 6 13.2c1.5 3.3 5.1 4.8 11.4 3.7 6.2-1 13.4.2 19.6-1.1 10.5-2.2 19.1-5.3 23-7.7 4.7-3 7.5 15 2.1 17.7C53.7 30.2 19 37.2 9 34 4.4 32.6-2 24.3-3.1 17c-.7-4.5 3.2-11.7 6-13.5C4.6 2.5 5.5 5 6 5.9z" data-name="Path 2485"/>
      </g>
      <path fill="#480a0a" fill-rule="evenodd" d="M1176.2 405c.8-3.3 11-2.2 16.2-2.5 12.1-.7 57-4.3 57-4.3l2.6 2.2 3.1 2s-49.7 7.6-63 9.5c-5.5.8-15.8 1.8-16.3-1.2a13.2 13.2 0 0 1 .4-5.7z" data-name="Path 2487"/>
      <g clip-path="url(#p)" data-name="Group 1088" transform="translate(1175.6 398.2)">
        <path fill="#250505" fill-rule="evenodd" d="M16.5 6.7l-3.1 8.6H-2.8l1.2-10.6L16 3.3z" data-name="Path 2488"/>
        <path fill="#8d1515" fill-rule="evenodd" d="M2.3 4s1.2 2.8 3 2.9c5.7.4 34.8-.5 41-2C48.6 4.2 53-.7 53-.7z" data-name="Path 2489"/>
        <g clip-path="url(#q)" data-name="Group 1087" transform="translate(2.3 -.7)">
          <path fill="#660e0e" fill-rule="evenodd" d="M18.2 4.2s-4.6 4.6-7.5 5.2-10-2-10-2l-2-5.6z" data-name="Path 2490"/>
        </g>
      </g>
      <path fill="#480a0a" fill-rule="evenodd" d="M1203.8 332.7c.9 1.3 4.6 1.8 8.4 2.7 12.3 2.8 38.7 9.1 46.6 13.7 8.5 4.8 18.7 16.5 19.5 21.5 0 0 0 1.1.2 1.2.7.4 1.4-.7 1.8-1.3 1.1-1.7.6-7.3-.5-9.1a50.3 50.3 0 0 0-16.6-19c-7.8-4.4-34.4-10-46.3-12.3-3.5-.7-7.4-3.4-9.5-3-2.2.5-4.4 4.2-3.6 5.6z" data-name="Path 2493"/>
      <g clip-path="url(#r)" data-name="Group 1090" transform="translate(1203.7 327.1)">
        <path fill="#250505" fill-rule="evenodd" d="M31.7 5.8l-8 6.1-28-5L4.2-2z" data-name="Path 2494"/>
        <path fill="#8d1515" fill-rule="evenodd" d="M4.8-1.2s-1.9 2.8-.4 3.4c7 2.7 42.7 11.3 53 17.2a58 58 0 0 1 16.2 16.9c1.4 2.2 2 6.5 1.2 8.2-.4 1 .8.6 1.2.7 3.3 1.5 3.5-18 3.5-18L57.3 7.4z" data-name="Path 2495"/>
        <g clip-path="url(#s)" data-name="Group 1089" transform="translate(3.8 -1.2)">
          <path fill="#660e0e" fill-rule="evenodd" d="M29.8 7.1c-5-1.5-4.7 3.7-7.4 3.3C17.3 9.5-4 2.9-4 2.9l5.3-4.7 28.6 9z" data-name="Path 2496"/>
        </g>
      </g>
      <path fill="#ed9ea2" fill-rule="evenodd" d="M1335.2 297.7a11.2 11.2 0 0 0-5.7 5.5 41 41 0 0 0-2.6 13.5c0 7.4-2.8 5.4-4.1 5.5a4.8 4.8 0 0 0-4.5 4.6c-.1 1-1.2 1-1.5 1.8-.3.9.2 1.5 0 2.4a8.3 8.3 0 0 1-1.9 2.8c-1.4 1.6-13.6 9.7-13.6 9.7l-15.2-16.7s-8.2 5.7-6.6 14.3-2.7 5.8-4.5 4.6c-4.7-3-21-18-23.1-23.5a3.8 3.8 0 0 1 0-2.3s12.7-1.5 20.4-20.4c1.1-2.9 3.7-5.3 4.3-9.4 3-22 19-24.8 19-24.8s11.1-4.8 28.5 11 11 21.4 11 21.4z" data-name="Path 2499"/>
      <g fill-rule="evenodd" clip-path="url(#t)" data-name="Group 1091" transform="translate(1251.7 264.6)">
        <path fill="#c25367" d="M33.9 21.5a24 24 0 0 0-4.3 6c-5 10-4.8 14.5-9.7 22-2.2 3.3-13.6 5.8-15.7 14.1-1.4 5.7-11.8-.8-11.7-7.1 0-4.6 7.4-11 7.4-11L27 19.2z" data-name="Path 2500"/>
        <path fill="rgba(219,218,218,0.42)" d="M77.4 34.6c-2.6 2.8-8.2 6.6-10.8 12.5-3 6.7-4.8 25.8-4.8 25.8L82.4 64s1.9-26.1 0-33.7c-.3-1.3-3 2-5 4.3z" data-name="Path 2501"/>
      </g>
      <path fill="#0d2945" fill-rule="evenodd" d="M1279.9 315.3c0-1.3.3-14 4-16.7 3.6-2.7 4-5 4-5.4-.1-3.6-3.5-4.4-4-4.5a4.8 4.8 0 0 0-4 .5c-1.4 1-2.4 3.4-3.3 4.9-1.7 2.8-3.5 4.9-3 8.3.5 3.7-3.8 7-6.4 7.7a10.3 10.3 0 0 1-6 0 7.8 7.8 0 0 0 4.5-2.7c1.2-1.3 1.3-2.8 1.7-4.5 1-3.6.4-7.3 2.4-10.6a32.5 32.5 0 0 0 2.7-4.4v-.3c1.4-3.7.5-7.8 1.3-11.6a16.2 16.2 0 0 1 5-9c1.8-1.6 4-2.8 5.6-4.7 1.2-1.3 2.2-3 4-3.8 1.7-.7 4-.6 5.7-.7 1.6 0 4.3-1.9 11.8-1.6 2.4 0 8.3 1.5 11.2 6.5a11.1 11.1 0 0 0 6.3 4.7c4.4 1.5 8 2.4 10.8 6.2l.3.3v.2a23.8 23.8 0 0 1 2.8 5c.8 2.2 3.6 6.3 6 5.6 4-1 5.2-4.5 6.3-5.5.3-.4.9 6-1 10.8a23.9 23.9 0 0 1-6 8.2c-3.4 3-6 3.3-8.2 2.7a8.3 8.3 0 0 1-6.1-5.4c-.3-.8-1.3-5.8-5.3-8.4-2.4-1.7-2.4 1.4-8.8-1.2a16.8 16.8 0 0 1-5.3-4.4c-1.4-2-5-2-8 3.2-1.1 2-4 3.7-8 5-2.5.8-1.7 4.9-2.4 7a18.1 18.1 0 0 0-4.2 9 18.3 18.3 0 0 0 .5 5.8c1.2 3 3.5 5.4 6 7.8l4 4a.4.4 0 0 0 .1 0 21.2 21.2 0 0 0 9.5 5.9l.8.2h.3c.5.3 1.2.4 1.8.6a1.2 1.2 0 0 0 .2 0l1.8.4 1.3.3h.1a1.7 1.7 0 0 1 .3.1 4.3 4.3 0 0 1 1.7 1.4 9.7 9.7 0 0 1 1.3 1.9l.2.4c1.2 2.5.5 5-.9 7.2l-1.2 1.8-2.7 3.5c-.8 1-2.5 3.8-3.6 4.5-1.9 1.1-7.3-1-7.5-1.3a21.3 21.3 0 0 1-5.8-5.7 8.1 8.1 0 0 1-.5-.8c-4-7.2-7.6-7.8-11-12.1l-.5-.6-1-1.4a27.9 27.9 0 0 1-.9-3.9 26 26 0 0 1-.2-1.4 2.2 2.2 0 0 1 0-.2l-.1-.6a49 49 0 0 1-.3-2.4V320a48 48 0 0 1-.1-4.7z" data-name="Path 2503"/>
      <g fill-rule="evenodd" clip-path="url(#e)" data-name="Group 1092" transform="translate(1261.3 256.1)">
        <path fill="#00497c" d="M71 15.2s5.5 9.7 5.3 13.2c-.2 3-.5 5.1-3.2 7-3.4 2.2-4.6 7.4-4.6 7.4L82 50.5 99.4 19z" data-name="Path 2504"/>
        <path fill="#0c0d18" d="M55.5 5.6a13.6 13.6 0 0 0-8.3-1.9c-4.3.7-8.8 1.6-9.6 3-1.6 2.7-3 5.3-6.7 6S26.3 19 26 21.2c-.3 2.2-3.2 6.6-2.5 10.6.2.7 1.8 2.1 1.8 2.4.8 5.8-12 20.9-12 20.9L1 56.2l-4.8-4.4L22.7-4.8l28.8 2.3z" data-name="Path 2505"/>
        <path fill="#0c0d18" d="M18.3 59.4s.7 5.4 2.5 7.3C24 70 37.3 79.9 37.3 79.9s11.3 11 10 15.6-8.7 0-8.7 0l-10.8-7.2-9.5-13.7z" data-name="Path 2506"/>
        <path fill="#0c0d18" d="M26.2 35.3a4 4 0 0 1 .6 3.8c-.5 1-2.3 2.7-3.6 4.6a23.7 23.7 0 0 0-2.7 5.5c-1 3-3.7 16.6-4.2 16.7s1.4-21 1.4-21 8-9.5 8.5-9.6z" data-name="Path 2507"/>
      </g>
      <path fill="#250000" fill-rule="evenodd" d="M1174.5 370.7l3.5-15.8c.1-.4.7-.6 1.2-.5a1 1 0 0 1 .7 1.3l-3.8 15.8-1-.5-.6-.3z" data-name="Path 2509"/>
      <g clip-path="url(#u)" data-name="Group 1093" transform="translate(1174.5 354.4)">
        <path fill="#8d1515" fill-rule="evenodd" d="M5.2 0l-4 17.2.6.2L6 .8l-.8-.9" data-name="Path 2510"/>
      </g>
      <path fill="#e9c7c7" fill-rule="evenodd" d="M1178.9 354.8a6.8 6.8 0 0 1 0-2.4 7.5 7.5 0 0 1 1.9-2.7 4.4 4.4 0 0 1 2-.4s-.8.2-1.6 1.7c-.8 1.3-.6 2.2-1 2.8a4.5 4.5 0 0 1-1.3 1" data-name="Path 2512"/>
      <g clip-path="url(#v)" data-name="Group 1094" transform="translate(1178.7 349.3)">
        <path fill="#efefef" fill-rule="evenodd" d="M4 0a7 7 0 0 0-2 1.3 10.5 10.5 0 0 0-1 2.5L0 5.5l2-.4z" data-name="Path 2513"/>
      </g>
      <path fill="#250000" fill-rule="evenodd" d="M1177.1 371.9l3.4-12.7c0-.4.6-.6 1.2-.4a1 1 0 0 1 .6 1.3l-3.8 12.2-.7-.2-.7-.2z" data-name="Path 2515"/>
      <g clip-path="url(#w)" data-name="Group 1095" transform="translate(1177.1 358.7)">
        <path fill="#8d1515" fill-rule="evenodd" d="M.8 13.7L5-.3 6.5 1 1.3 14.3z" data-name="Path 2516"/>
      </g>
      <path fill="#e9c7c7" fill-rule="evenodd" d="M1181 358.6s.1-4.1.6-4.5 2.7.5 2.8 1.3-2.3 4-2.3 4a.9.9 0 0 1-.8-.1.6.6 0 0 1-.3-.7z" data-name="Path 2518"/>
      <g clip-path="url(#x)" data-name="Group 1096" transform="translate(1181 354)">
        <path fill="#efefef" fill-rule="evenodd" d="M.8-.1s1.8.6 1.8 1.4c0 1-2 4.3-2 4.3l1.2.3L4 .8.8-.2" data-name="Path 2519"/>
      </g>
      <path fill="#250000" fill-rule="evenodd" d="M1172.2 369l1.5-10.8c.1-.4.7-.6 1.2-.4a1 1 0 0 1 .7 1.3l-2 11a7.8 7.8 0 0 1-.9-.5l-.5-.5z" data-name="Path 2521"/>
      <g clip-path="url(#y)" data-name="Group 1097" transform="translate(1172.2 357.7)">
        <path fill="#8d1515" fill-rule="evenodd" d="M3-.3h.4a8.4 8.4 0 0 0 .4 1.8L1.4 12.7l-.5-.1z" data-name="Path 2522"/>
      </g>
      <path fill="#e9c7c7" fill-rule="evenodd" d="M1174.8 358.3a6.8 6.8 0 0 0 1.6-1.9 7.5 7.5 0 0 0 .2-3.2c-.1-.7-1.3-1.6-1.3-1.6s.5.6.2 2.3c-.3 1.5-1 2-1.1 2.8a4.5 4.5 0 0 0 .4 1.6" data-name="Path 2524"/>
      <g clip-path="url(#z)" data-name="Group 1098" transform="translate(1174.4 351.6)">
        <path fill="#efefef" fill-rule="evenodd" d="M1 0a6.9 6.9 0 0 1 .7 2.3 10.5 10.5 0 0 1-.9 2.6L.4 6.7l2.4-1.1V1.3z" data-name="Path 2525"/>
      </g>
    </g>
    <g fill-rule="evenodd" data-name="Group 1207">
      <path fill="#00497c" d="M1094.2 531a84.3 84.3 0 0 1 10.4-9.7 37.3 37.3 0 0 1 9-4c1.2-.4 4-.7 4 0s-2.4 3.6-4 4.7c-1.8 1-4.3 1.4-6.2 2.3a38.9 38.9 0 0 0-5.8 2.9c-1.7 1.2-3.5 3-4.7 3.8-.8.4-3.3.6-2.7 0z" data-name="Path 2416"/>
      <path fill="#00497c" d="M1090.9 529.8a41.7 41.7 0 0 0-6-3.9 56.3 56.3 0 0 0-9-3.3 12.3 12.3 0 0 0-4.9 0c-3 .6-4.3 2.1-4 3.3s3.4 3.3 5.6 4c2.4.6 6.5 0 9.1 0 2.2 0 5.2-.4 6.7 0 1 .1 1.8 1.4 2.5 1.6.5.2 1.6.3 1.6 0s-1-1.2-1.6-1.7z" data-name="Path 2417"/>
      <path fill="#092056" d="M1092.6 530c.9-3 5-12.3 7.1-17.8 2-5.1 3.5-12.1 6-15.4 1.8-2.6 3.5-5 8.5-4.7a5.5 5.5 0 0 1 5.4 4.7c.3 1.4-2.3 3-3.6 4.2-1.8 1.7-5.1 3.8-7.3 6a86.8 86.8 0 0 0-9 11.6c-2.2 3.5-4 9.5-5.2 11.4-.3.5-2 .6-2 0z" data-name="Path 2418"/>
      <path fill="#00497c" d="M1090.4 519.1c1.2-3.3 3.2-10.8 5.7-14.5a29.6 29.6 0 0 1 9-8.4c2.2-1.3 5.9-1.7 8-.5 1.2.6 2 2.7 1.3 3.8-1 1.6-4.6 3.6-7 5.5a86.6 86.6 0 0 0-7.7 6.9c-2.2 2.2-5 5-6.2 7.2-1 1.8-1.3 4.9-2 5.9-.3.6-1.9.7-2 0a17 17 0 0 1 1-5.9z" data-name="Path 2419"/>
      <path fill="#092056" d="M1090.6 527.6c-.1-2.1-.2-7.9-1.1-10.6-.8-2.4-3.4-3.7-4.3-6a38 38 0 0 1-2.7-13.7c.5-6.2 1.5-11.1 7-14.4a9.4 9.4 0 0 1 8.7 0c5 2.7 5.4 6.7 5.4 10.6a54 54 0 0 1-1.9 11.3 27.8 27.8 0 0 1-2.8 7.2c-1 1.6-3.3 2.1-4 3.9-1 2.4-1.4 8-1.7 10.3-.2 1.2.4 3 0 3.7s-2.1.4-2.6 0 .1-1.5 0-2.3z" data-name="Path 2420"/>
      <path fill="#092056" d="M1089.8 523.4a109.5 109.5 0 0 0-8.5-7.6c-3-2.4-4.8-4.5-12.4-5.9-2.7-.5-6.4-.5-8.1 0-1.3.4-2.6 2.1-2.2 3.4a11.4 11.4 0 0 0 5 5.1c2.7 1.2 7.6 1.2 11 2a82.3 82.3 0 0 1 9.4 3 20.4 20.4 0 0 1 5.8 3c1.3 1.2 2.2 4.2 3 4.6s1.9-1.5 1.5-2.4a25 25 0 0 0-4.6-5.2z" data-name="Path 2421"/>
      <path fill="#00497c" d="M1075.8 489.7c-1-1-3.7 0-3.8 1.4-.2 2.6.4 9.9 2.5 14.2s7 8.7 9.9 12c2.3 2.6 5.7 5.8 7.1 7.7.8 1.1 1 3.6 1.5 3.9s2-1.5 1.8-2.5a41.5 41.5 0 0 0-3.3-10.3c-2-4.2-7.6-11.5-9.8-14.8-1-1.6-4.2-10-6-11.6z" data-name="Path 2422"/>
      <path fill="#0e3760" d="M1091.2 531.6c-.5-1.2.5-7 0-9.9a38.6 38.6 0 0 0-1.5-5.4c-1.3-4.1-5.1-8.5-5.3-12.8-.3-10.7 4.8-12.7 7.7-12.9 5.7-.4 7.4 3.4 8.4 6.4 1 3.2.6 8.5 0 11.7-.6 2.8-3.2 4.9-4 7.6-.4 1.5-1.4 3.3-1.6 5.4-.2 2.7-.4 8.8-.8 10-.3.8-2.5.8-2.9 0z" data-name="Path 2423"/>
      <path fill="#163d6d" d="M1090 532.2s-4.5-4.6-4.7-7.6c-.3-3 .8-8.3 3.2-10.3s9.2-2.7 11.5-1.8 2.9 4.6 2.3 7c-.6 2.5-5 6-6 8-.7 1.5.5 2.7-.4 4.3s-2.1 1.4-3.7 1.4a2.7 2.7 0 0 1-2.2-1z" data-name="Path 2424"/>
    </g>
  </g>
</svg>