<svg xmlns="http://www.w3.org/2000/svg" xmlns:xlink="http://www.w3.org/1999/xlink" width="500" height="610" viewBox="0 0 500 610">
  <defs>
    <clipPath id="clip-path">
      <rect id="Rectangle_829" data-name="Rectangle 829" width="500" height="610" transform="translate(1025.684 59)" fill="#fff" stroke="#707070" stroke-width="1"/>
    </clipPath>
    <clipPath id="clip-path-2">
      <path id="Path_2430" data-name="Path 2430" d="M149.383-238.361c-2.675-5.653-13.094,5.945-16.054,9.575-3.414,4.185-10.234,25.01-7.558,30.664s23.612,3.26,23.612,3.26S152.059-232.706,149.383-238.361Z" transform="translate(-125.163 239.888)" fill="none" clip-rule="evenodd"/>
    </clipPath>
    <clipPath id="clip-path-3">
      <path id="Path_2434" data-name="Path 2434" d="M221.32-238.431s15.606-9.384,10.9-21.725c-1.15-3.017-.44-7.521-5.033-10.592-24.607-16.456-28.505-10.818-57.925,6.71C151.72-253.584,127.08-170.763,129.5-151.506c1.584,12.621,39.768,6.4,39.768,6.4Z" transform="translate(-129.333 280.55)" fill="none" clip-rule="evenodd"/>
    </clipPath>
    <clipPath id="clip-path-4">
      <path id="Path_2437" data-name="Path 2437" d="M204.742-240.175c2.043-8.551-13.536-20.111-22.317-23.721-7.641-3.14-19.656-2.8-23.343,0-1.58,1.2-4.318,3.693-5.047,2.74a2.869,2.869,0,0,1,.762-2.74,129.088,129.088,0,0,1,15.789-10.349c5.055-2.789,11.154-5.9,15.813-7.078a22.589,22.589,0,0,1,12.139,0c6.144,1.948,20.08,6.313,25.714,17.426,7.427,14.646,1.708,18.34,1.708,18.34S203.508-235,204.742-240.175Z" transform="translate(-153.916 282.155)" fill="none" clip-rule="evenodd"/>
    </clipPath>
    <clipPath id="clip-path-5">
      <path id="Path_2451" data-name="Path 2451" d="M232.425-244.379c.056-1.263.328-13.952,3.951-16.679,3.654-2.75,4.03-5.06,4.017-5.462-.119-3.557-3.466-4.364-4.043-4.511a4.841,4.841,0,0,0-3.86.559c-1.449.987-2.476,3.367-3.4,4.877-1.715,2.79-3.493,4.894-2.99,8.316.55,3.705-3.731,7-6.429,7.667a10.28,10.28,0,0,1-5.886,0,7.769,7.769,0,0,0,4.426-2.71c1.218-1.291,1.261-2.753,1.738-4.472.989-3.578.367-7.32,2.374-10.586a32.493,32.493,0,0,0,2.65-4.428c.036-.083.074-.174.1-.257,1.394-3.677.469-7.8,1.22-11.6a16.177,16.177,0,0,1,5.006-9.012c1.815-1.629,3.988-2.846,5.611-4.667,1.246-1.39,2.19-3.083,3.979-3.843,1.723-.731,3.942-.567,5.766-.659,1.595-.082,4.258-1.907,11.716-1.674,2.493.079,8.3,1.481,11.211,6.506a11.131,11.131,0,0,0,6.363,4.7c4.363,1.537,7.911,2.378,10.8,6.212.083.11.165.219.248.338.023.067.047.134.07.2a23.757,23.757,0,0,1,2.731,5.033c.834,2.1,3.579,6.2,6.045,5.545,3.963-1.045,5.134-4.546,6.264-5.545.36-.319.874,5.963-1.036,10.876a23.884,23.884,0,0,1-6.011,8.173c-3.33,2.95-5.94,3.275-8.178,2.707a8.279,8.279,0,0,1-6.054-5.425c-.349-.832-1.288-5.741-5.3-8.435-2.423-1.628-2.407,1.4-8.835-1.153a16.752,16.752,0,0,1-5.251-4.357c-1.439-2-4.947-2.007-7.99,3.159-1.165,1.975-4.039,3.688-7.949,4.949-2.607.842-1.8,4.9-2.457,7.055a18.1,18.1,0,0,0-4.2,8.967,18.327,18.327,0,0,0,.486,5.791c0,.009.009.009.009.019,1.155,3.082,3.466,5.444,5.987,7.841,1.329,1.263,2.714,2.535,4.034,3.916a.391.391,0,0,0,.064.072,21.181,21.181,0,0,0,9.5,5.856c.248.083.5.155.761.238.092.027.193.045.293.083.586.164,1.21.329,1.88.484a1.2,1.2,0,0,0,.174.047c.56.136,1.155.265,1.778.393.414.092.835.174,1.275.266.055.017.11.017.157.036a1.719,1.719,0,0,1,.293.11,4.315,4.315,0,0,1,1.732,1.336l.023.027a9.746,9.746,0,0,1,1.214,1.867c.083.138.147.285.221.421,1.2,2.48.5,4.987-.889,7.238-.376.631-.8,1.225-1.229,1.812-.853,1.171-1.778,2.278-2.668,3.439-.779,1.034-2.566,3.871-3.648,4.539-1.87,1.134-7.224-1.1-7.5-1.281a21.334,21.334,0,0,1-5.795-5.7,8.111,8.111,0,0,1-.477-.787c-3.924-7.191-7.6-7.814-10.965-12.142-.174-.21-.329-.42-.486-.631-.357-.466-.7-.925-1.017-1.391a27.9,27.9,0,0,1-.917-3.852c-.055-.293-.1-.585-.146-.887-.028-.164-.055-.329-.074-.494a2.192,2.192,0,0,1-.036-.247c-.028-.191-.055-.383-.083-.576-.1-.768-.183-1.565-.248-2.369-.027-.385-.055-.76-.074-1.144C232.379-241.287,232.362-242.968,232.425-244.379Z" transform="translate(-213.784 303.542)" fill="none" clip-rule="evenodd"/>
    </clipPath>
    <clipPath id="clip-path-6">
      <path id="Path_2455" data-name="Path 2455" d="M233.039-45.867c1.5,6.418-5.9,14.218-10.466,16.321-6.5,2.992,28.612,15.551,27.065,11.056-1.491-4.333-1.682-15.151,1.662-21.028C253.784-43.884,231.969-50.443,233.039-45.867Z" transform="translate(-221.77 47.422)" fill="none" clip-rule="evenodd"/>
    </clipPath>
    <clipPath id="clip-path-7">
      <path id="Path_2458" data-name="Path 2458" d="M261.127-215.1s32.966,16.287,50.185,21.59c6.484,2,10.972,2.211,20.713,2.754a173.233,173.233,0,0,0,21.063.14c3.486-.231,25.656-1.333,30.569-.02,3.385.906,4.794,5.771,5.654,10.568a47.075,47.075,0,0,1,.754,7.516c.028,2.944-.38,5.121-1.4,5.143-1.8.039-4.335-11.768-7.772-12.659s-2.8,6.07-8.976,6.365c-1.766.086-6.184-6.749-9.787-6.365-8.385.891-26.2,13-40.521,11.714-19.518-1.758-75.594-22.262-75.594-22.262Z" transform="translate(-246.017 215.103)" fill="none" clip-rule="evenodd"/>
    </clipPath>
    <clipPath id="clip-path-8">
      <path id="Path_2461" data-name="Path 2461" d="M228.311-235.214c6.522,10.695,44.658,21.611,44.313,27.582-.544,9.411-10.494,15.6-13.462,20.523-4.58,7.592-33.329-12.708-38.6-20.523S224.181-241.985,228.311-235.214Z" transform="translate(-218.935 236.308)" fill="none" clip-rule="evenodd"/>
    </clipPath>
    <clipPath id="clip-path-9">
      <path id="Path_2464" data-name="Path 2464" d="M238.344-206.028s15.739,3.03,19.318,4.07c7.843,2.278,24.2,7.552,35.967,12.237,12.406,4.938,27.011,14.185,38.466,17.4,9.732,2.731,21.586,3.576,28.714,2.015,4.035-.883,11.163-3.185,15.073-2.015s8.281,6.4,9.938,8.919c1.134,1.725,1.4,5.966,0,6.19-.914.146-1.568-1.693-3.466-3.3a22.09,22.09,0,0,0-4.159-2.044c-1.414-.684-3.776-1.333-5.272-.851-2.514.807-7.137,5.707-10.559,6.19s-6.519-2.742-9.977-3.3c-5.045-.808-13.516-1.235-20.291-1.555-10.2-.482-40.928-1.34-40.928-1.34s-24.98-1.436-33.5-3.427c-6.36-1.484-15.394-6.323-19.318-9.09-2.729-1.925-10.762-9.293-10.762-9.293Z" transform="translate(-227.582 206.028)" fill="none" clip-rule="evenodd"/>
    </clipPath>
    <clipPath id="clip-path-10">
      <path id="Path_2469" data-name="Path 2469" d="M224.107-255.764c3.19-.926,10.593,3.187,16.885,8.96,8.518,7.813,12.166,11.86,12.554,13.261.933,3.374.283,7.078,0,9.674-.817,7.507-3.531,15.1-2.2,20.316,1.4,5.48,16.442,12.083,23.016,15.3,8.115,3.972-11.882,33.618-15.809,28.112-3.824-5.365-19.174-7.756-19.174-7.756s2.849,17.267,2.1,25.45c-1.415,15.426-6.753,24.9-6.753,24.9s-20.956,1.574-29.286,5.621c-8.9,4.324-15.6,13.141-21.831,18.726-4.983,4.469-12.631,14.712-13.849,14.187-8.19-3.529-15.381-25.176-15.782-32.914-1.184-22.822,5.78-37.962,9.222-56.937,3.338-18.394,7.579-45.483,14.1-56.712C190.111-247.612,211.035-251.968,224.107-255.764Z" transform="translate(-153.846 255.895)" fill="none" clip-rule="evenodd"/>
    </clipPath>
    <clipPath id="clip-path-11">
      <path id="Path_2473" data-name="Path 2473" d="M265.4-61.2c3.863,3.914,4.031,13.833,1.7,17.311-3.318,4.947,25.094-2.517,22.035-5.043-2.948-2.434-7.8-10.046-7.98-15.676C281.015-68.788,262.642-63.987,265.4-61.2Z" transform="translate(-265.115 66.247)" fill="none" clip-rule="evenodd"/>
    </clipPath>
    <clipPath id="clip-path-12">
      <path id="Path_2476" data-name="Path 2476" d="M200.772-147.6s12.4-3.213,38.081-8.567c13.126-2.736,31.22-9.252,38.829-3.816,6.128,4.379,7.914,17.06,14.052,29.595C308.126-96.92,309.011-49.5,311-32.231c.349,3.026-5.051,5.085-7.326,5.481-2.168.377-9.98,1.4-11.94-2.128-6.122-11.014-11.3-39.3-24.787-63.953-4.2-7.672-8.606-13.924-12.951-17.132-18.309-13.514-72.115,0-72.115,0Z" transform="translate(-181.881 162.087)" fill="none" clip-rule="evenodd"/>
    </clipPath>
    <clipPath id="clip-path-13">
      <path id="Path_2480" data-name="Path 2480" d="M223.279-153.909s-1.075.005-13.036,2.94c-7.6,1.864-15.56,6.663-20.071,9.174-5.3,2.949-6.9,12.664-13.982,15.952a36.833,36.833,0,0,1-16.64,3.042s3.381,9.5,15.241,13.256c15.465,4.9,41.685,4.647,51.251,5.218,14.559.869,39.021,2.13,47.8,3.1,4.362.484,7.678,2.071,6.924,6.384-2.758,15.8-27.192,65.662-27.679,81.634-.254,8.336,17.042,16.659,22.734,10.551,13.242-14.214,48.2-76.056,56.721-95.836,3.1-7.2.278-17.628-5.586-22.842-7.613-6.766-26.308-12.893-40.092-17.763C272.023-144.338,223.279-153.909,223.279-153.909Z" transform="translate(-159.55 153.909)" fill="none" clip-rule="evenodd"/>
    </clipPath>
    <clipPath id="clip-path-14">
      <path id="Path_2483" data-name="Path 2483" d="M231.655-39.054c.5.038-.886,1.054-.947,1.746-.122,1.412,3.311,4.946,5.63,5.855,6.283,2.465,10.471,2.856,12.781,2.37,1.075-.226.955-3.58,1.283-3.241a32.623,32.623,0,0,1,3.007,3.241C256.836-24.728,260-17.76,264.1-13.5c6.459,6.707,22.549,15.821,24.793,21.1.93,2.189-2.149,5.455-4.531,5.518C275.868,13.35,262.2,8.4,245.74.571c-3.4-1.62-24.216-14.648-27.178-19.135-2.587-3.916-1.628-11.285,0-14.071S228.289-39.306,231.655-39.054Z" transform="translate(-216.961 39.066)" fill="none" clip-rule="evenodd"/>
    </clipPath>
    <clipPath id="clip-path-15">
      <path id="Path_2486" data-name="Path 2486" d="M268.5-52.879c.62-.249-.107,1.325,1.233,1.866a15.446,15.446,0,0,0,8.377,0c2.793-1.019,5.4-1.467,6.493-4.94.284-.9-.754-2.32,0-2.268,4.45.309,7.89,3.606,12.852,5.342,3.355,1.174,13.971,1.593,19.531,1.866,4.429.217,3.174,4.245,3.059,5.026-.26,1.762-17.076,5.984-24.6,8.073-6.759,1.876-15.706,4.149-20.566,4.464-2.983.193-7.015-.2-8.589-2.576s-1.225-8.885-.857-11.694C265.69-49.7,267.2-52.357,268.5-52.879Z" transform="translate(-265.116 58.222)" fill="none" clip-rule="evenodd"/>
    </clipPath>
    <clipPath id="clip-path-16">
      <path id="Path_2492" data-name="Path 2492" d="M150.414-190.452c.789-3.311,10.9-2.151,16.165-2.464,12.126-.722,56.948-4.326,56.948-4.326s1.736,1.558,2.651,2.241c.963.719,3.129,2.071,3.129,2.071s-49.749,7.473-63.017,9.4c-5.519.8-15.744,1.848-16.327-1.168A13.151,13.151,0,0,1,150.414-190.452Z" transform="translate(-149.805 197.242)" fill="none" clip-rule="evenodd"/>
    </clipPath>
    <clipPath id="clip-path-17">
      <path id="Path_2491" data-name="Path 2491" d="M151.52-193.029s1.172,2.747,2.966,2.865c5.694.373,34.835-.534,40.944-2.05,2.524-.625,6.859-5.545,6.859-5.545Z" transform="translate(-151.52 197.759)" fill="none" clip-rule="evenodd"/>
    </clipPath>
    <clipPath id="clip-path-18">
      <path id="Path_2498" data-name="Path 2498" d="M170.942-244.876c.815,1.368,4.535,1.821,8.4,2.7,12.229,2.79,38.622,9.142,46.537,13.7,8.473,4.876,18.679,16.51,19.492,21.546,0,.015.044,1.1.19,1.181.693.361,1.455-.739,1.8-1.273,1.151-1.774.586-7.335-.465-9.161-2.747-4.774-8.269-14.1-16.616-18.873-7.819-4.468-34.411-10.06-46.268-12.4-3.556-.7-7.378-3.353-9.558-2.924C172.321-249.957,170.128-246.244,170.942-244.876Z" transform="translate(-170.768 250.426)" fill="none" clip-rule="evenodd"/>
    </clipPath>
    <clipPath id="clip-path-19">
      <path id="Path_2497" data-name="Path 2497" d="M174.572-251.314s-1.865,2.807-.332,3.406c6.912,2.7,42.668,11.271,52.868,17.142,5.683,3.271,12.454,11,16.25,16.914,1.446,2.253,2,6.538,1.237,8.228-.412.907.785.549,1.2.728,3.288,1.42,3.5-18.015,3.5-18.015l-22.183-19.767Z" transform="translate(-173.635 251.314)" fill="none" clip-rule="evenodd"/>
    </clipPath>
    <clipPath id="clip-path-20">
      <path id="Path_2502" data-name="Path 2502" d="M290.12-264.153a11.15,11.15,0,0,0-5.637,5.493,41.06,41.06,0,0,0-2.642,13.531c.007,7.368-2.794,5.43-4.1,5.529a4.757,4.757,0,0,0-4.513,4.538c-.108,1.021-1.229,1.023-1.512,1.828-.312.889.229,1.48,0,2.361a8.324,8.324,0,0,1-1.853,2.894c-1.419,1.51-13.593,9.7-13.593,9.7l-15.27-16.788s-8.147,5.745-6.538,14.356-2.674,5.8-4.533,4.611c-4.7-3.006-21.009-17.942-23.1-23.5a3.805,3.805,0,0,1,0-2.338s12.758-1.506,20.373-20.363c1.163-2.882,3.759-5.365,4.328-9.412,3.086-21.929,19-24.79,19-24.79s11.13-4.793,28.525,11.055S290.12-264.153,290.12-264.153Z" transform="translate(-206.647 297.184)" fill="none" clip-rule="evenodd"/>
    </clipPath>
    <clipPath id="clip-path-22">
      <path id="Path_2511" data-name="Path 2511" d="M148.95-213.68l3.588-15.858c.079-.412.632-.611,1.169-.42a1.053,1.053,0,0,1,.673,1.293l-3.768,15.792s-.862-.369-1.08-.486C149.346-213.459,148.95-213.68,148.95-213.68Z" transform="translate(-148.95 230.031)" fill="none" clip-rule="evenodd"/>
    </clipPath>
    <clipPath id="clip-path-23">
      <path id="Path_2514" data-name="Path 2514" d="M152.266-228.3a6.755,6.755,0,0,1,0-2.473,7.487,7.487,0,0,1,1.907-2.626,4.4,4.4,0,0,1,2-.393s-.716.168-1.564,1.653c-.763,1.335-.593,2.166-.984,2.806a4.477,4.477,0,0,1-1.358,1.033" transform="translate(-152.138 233.791)" fill="none" clip-rule="evenodd"/>
    </clipPath>
    <clipPath id="clip-path-24">
      <path id="Path_2517" data-name="Path 2517" d="M150.944-213.6l3.351-12.665c.079-.412.631-.611,1.169-.42a1.053,1.053,0,0,1,.673,1.293l-3.825,12.209-.71-.2C151.4-213.438,150.944-213.6,150.944-213.6Z" transform="translate(-150.944 226.755)" fill="none" clip-rule="evenodd"/>
    </clipPath>
    <clipPath id="clip-path-25">
      <path id="Path_2520" data-name="Path 2520" d="M153.843-225.655s.086-4.154.62-4.583,2.667.536,2.786,1.3-2.269,4-2.269,4a.869.869,0,0,1-.821-.084A.6.6,0,0,1,153.843-225.655Z" transform="translate(-153.835 230.344)" fill="none" clip-rule="evenodd"/>
    </clipPath>
    <clipPath id="clip-path-26">
      <path id="Path_2523" data-name="Path 2523" d="M147.248-216.175l1.561-10.87c.079-.412.632-.611,1.169-.418a1.051,1.051,0,0,1,.673,1.292l-2,11.113a7.756,7.756,0,0,1-.886-.625C147.54-215.879,147.248-216.175,147.248-216.175Z" transform="translate(-147.248 227.536)" fill="none" clip-rule="evenodd"/>
    </clipPath>
    <clipPath id="clip-path-27">
      <path id="Path_2526" data-name="Path 2526" d="M149.269-225.384a6.751,6.751,0,0,0,1.6-1.884,7.475,7.475,0,0,0,.25-3.232c-.139-.663-1.269-1.591-1.269-1.591s.438.591.121,2.27c-.284,1.51-.953,2.034-1.071,2.774a4.474,4.474,0,0,0,.366,1.664" transform="translate(-148.892 232.092)" fill="none" clip-rule="evenodd"/>
    </clipPath>
  </defs>
  <g id="Mask_Group_1" data-name="Mask Group 1" transform="translate(-1025.684 -59)" clip-path="url(#clip-path)">
    <g id="Group_1113" data-name="Group 1113" transform="translate(918.101 -0.191)">
      <path id="Path_1709" data-name="Path 1709" d="M-10476.417-6647.191s-3.591,93.881-125.409,171.589,10.923,327.846-175.036,327.846-276.523,133.641-276.523,133.641l-48.3-631.2Z" transform="translate(11101.684 6647.191)" fill="#081b2c"/>
      <path id="Path_1763" data-name="Path 1763" d="M381.776,369.495q.36.406.719.809Q382.136,369.9,381.776,369.495Z" transform="translate(39.119 -65.792)" fill="#53a3a0"/>
      <path id="Path_1783" data-name="Path 1783" d="M424.511,450.333l.618.883Z" transform="translate(92.119 34.101)" fill="#121324"/>
      <g id="Group_1104" data-name="Group 1104" transform="matrix(0.998, -0.07, 0.07, 0.998, 32.224, 239.033)">
        <path id="Path_2528" data-name="Path 2528" d="M36.627.061C26.8-1.032,23.7,14.009,16.054,29.044c-5.989,11.777-8.4,11.12-10.466,17.364C4.138,50.805-.374,59.227.035,67.1c.4,7.663,3.836,16.447,7.031,18.588,10.855,7.28,7.533,15.765,11.535,16.836s7.513-8.28,12.481-10.41c9.289-3.979,15.744-7.135,18.274-14.809,7.867-23.864,4.171-40.338,1.815-53.158C49.389,14.449,46.081,1.112,36.627.061Z" transform="translate(77.284 0.011)" fill="#163d6d" fill-rule="evenodd"/>
        <path id="Path_2529" data-name="Path 2529" d="M72.993,4.835c.03,9.224-8.877,11.367-16.783,24.361-6.195,10.18-4.684,11.792-8.441,16.306C45.125,48.68,42.8,53.424,36.789,56.73,30.94,59.947,24.511,60.7,21.57,59.158c-9.992-5.252-18.418,4.578-20.907,1.9s2.957-9.776,2.431-14.7c-.983-9.2,2.386-14.915,7-20.46C24.456,8.656,40.955,2.481,51.879.495,62.2-1.382,72.985,2.621,72.993,4.835Z" transform="translate(99.697 73.215)" fill="#092056" fill-rule="evenodd"/>
        <path id="Path_2530" data-name="Path 2530" d="M29.72,14.364c-1.044-2.736,4.506-8.936-7.276-12.638C10.33-2.081,5.9,1.28,2.752,3.542.034,5.5-.77,11.047.792,13.26s7.9,3,12.071,3.23c4.21.232,10.55-2.115,13.191-1.84,1.414.147,2.042,3.538,2.653,3.491S30.171,15.544,29.72,14.364Z" transform="translate(34.958 190.976)" fill="#163d6d" fill-rule="evenodd"/>
        <path id="Path_2531" data-name="Path 2531" d="M83.111,27.56c.563-1.1-2.124-3.588-4-7.116-2.083-3.91-6.915-7.232-9.611-9.023C62.974,7.089,49.884,2.908,40.921,1.181,32.711-.4,22.349-.34,15.718,1.066,10.341,2.207,1.516,7.329.179,9.3s5.226,2.552,7.3,3.862c4,2.527,10.9,9.816,17.64,11.618,7.819,2.092,18.721,3.974,29.442,1.875,5.038-.986,11.377-4.167,15.146-4.353,2.61-.129,6.265.513,7.518,2.011C78.273,25.566,82.635,28.492,83.111,27.56Z" transform="translate(0.014 100.893)" fill="#0e3760" fill-rule="evenodd"/>
        <path id="Path_2532" data-name="Path 2532" d="M.216,12.745C3.1,10.118,9.053,5.192,23.047,1.979,32.016-.081,44.165-.4,54.039.438,63.7,1.26,76.7,4.427,82.288,7.022,85.321,8.43,88.449,14.44,87.557,16s-7.165-.6-10.619.395a97.372,97.372,0,0,0-12.964,4.4c-4.823,2.178-8.945,5-12.573,5.637-5.785,1.016-11.678-.6-17.2-2.534-16.1-5.636-14.588-8.08-20.041-9.539C9.7,13.173,4.014,15.4,1.481,15.152.615,15.069-.464,13.366.216,12.745Z" transform="translate(90.002 160.141)" fill="#0e3760" fill-rule="evenodd"/>
        <path id="Path_2533" data-name="Path 2533" d="M60,44.551c-.738-3.6-1.512-13.557-9.367-22.616C45.6,16.128,38.066,9.566,30.72,5.8A62.64,62.64,0,0,0,9.057,0C6.415-.107,1.615,4.342.569,8.539c-4.533,18.194,19.483,27.848,24.014,28.6,13.2,2.2,21.168,1.486,25.44,2.629,3.494.935,6.274,5.422,8.065,6.335C58.7,46.42,60.175,45.4,60,44.551Z" transform="translate(17.155 134.005)" fill="#092056" fill-rule="evenodd"/>
        <path id="Path_2534" data-name="Path 2534" d="M.032,229.659C6,211.18,12.067,192.735,17.933,174.224c6-18.919,13.7-41.769,18.073-58.081,3.511-13.084,5.27-26.566,8.191-39.791,1.29-5.842,1.536-15.342,3.8-25.448C53.247,27.523,61.389-.065,61.659.009S54.624,28.054,49.932,51.42C47.838,61.849,47.7,71.042,46.517,76.973c-2.543,12.8-4.879,25.988-7.78,38.359Q34.5,133.41,29.111,151.2c-3.7,12.244-8.8,24.931-12.6,37.593C12.52,202.1,7.921,224.224,5.174,231.035c-.721,1.788-3.428-.917-5.142-1.376" transform="translate(48.252 47.623)" fill="#0c0d18" fill-rule="evenodd"/>
        <path id="Path_2535" data-name="Path 2535" d="M66.392.009c-12.445,9.5-28.377,20.376-37.335,28.507-6.367,5.779-11.813,13.9-16.413,20.278-4.118,5.715-9.129,14.3-11.186,18.021C.743,68.109-.578,72.292.3,71.119c2.189-2.917,9.088-14.882,14.29-21.8A161.423,161.423,0,0,1,31.777,29.244C40.411,21.027,54.854,9.755,66.392.009" transform="translate(87.202 84.789)" fill="#0c0d18" fill-rule="evenodd"/>
        <path id="Path_2536" data-name="Path 2536" d="M1.247,12.723C6.536,10.281,23.722,2.861,32.185,1.018,38.754-.412,43.334.065,48.205.152c3.1.056,10.046,1.324,13.107,1.763,5.931.851,25.848,6.207,25.77,6.5S69.733,4.769,60.947,3.276C51.868,1.732,41.346.918,31.681,2.9,21.6,4.964,5.516,14.08.457,15.669-.545,15.984.285,13.168,1.247,12.723Z" transform="translate(80.681 164.218)" fill="#0c0d18" fill-rule="evenodd"/>
        <path id="Path_2537" data-name="Path 2537" d="M69.051,24.4c-2.924-3.127-11.306-12.46-18.375-15.667S34.748,5.591,26.639,5.158C18.269,4.71.083-.294,0,.014s17.891,6.1,26.142,6.995c8.038.868,18.991.921,23.82,4.39,1.233.886,7.734,5.212,8.879,6.222,3.043,2.684,6.77,8.217,9.379,9.88C69.054,28.031,69.737,25.138,69.051,24.4Z" transform="translate(21.829 110.222)" fill="#0c0d18" fill-rule="evenodd"/>
        <path id="Path_2538" data-name="Path 2538" d="M42.715,26.29C39.4,22.454,29.209,10.307,22.09,5.929,15.557,1.911.065-.222,0,.018S15.359,3.006,21.7,7.374c7,4.82,16.8,18.414,20.3,21.566C42.638,29.512,43.279,26.941,42.715,26.29Z" transform="translate(37.417 154.071)" fill="#0c0d18" fill-rule="evenodd"/>
        <path id="Path_2539" data-name="Path 2539" d="M31.336,14.683c-.7-.881-3.222-2.155-4.79-4.509-2.08-3.124-3.424-7.451-5.8-8.467C16.578-.075,10.526-.231,7.514.208,6.063.42-.174,2.059,0,2.107s5.824-.719,7.522-.842c2.952-.214,9.34.132,12.855,1.8,2.2,1.041,3.4,5.4,5.013,8.31.9,1.617,2.495,2.249,3.1,2.9.763.821,1.816,2.4,2.289,2.464S31.754,15.207,31.336,14.683Z" transform="translate(39.035 197.706)" fill="#0c0d18" fill-rule="evenodd"/>
      </g>
      <g id="Group_1196" data-name="Group 1196" transform="matrix(-0.998, -0.07, 0.07, -0.998, 375.211, 385.863)" opacity="0.355">
        <path id="Path_2528-2" data-name="Path 2528" d="M34.209,122.507c-9.186,1.305-12.08-16.663-19.223-34.624C9.39,73.813,7.132,74.6,5.206,67.139,3.851,61.885-.365,51.825.018,42.417.391,33.263,3.6,22.769,6.589,20.211,16.733,11.515,13.629,1.378,17.369.1s7.02,9.892,11.662,12.437c8.68,4.754,14.712,8.524,17.075,17.692,7.351,28.509,3.9,48.189,1.694,63.5C46.135,105.319,43.043,121.252,34.209,122.507Z" transform="translate(73.188 211.017)" fill="#163d6d" fill-rule="evenodd"/>
        <path id="Path_2529-2" data-name="Path 2529" d="M68.2,67.731c.029-11.019-8.294-13.58-15.682-29.1-5.788-12.161-4.376-14.087-7.887-19.48-2.471-3.8-4.643-9.463-10.26-13.413C28.9,1.891,22.9.986,20.148,2.832,10.811,9.106,2.937-2.638.611.564S3.374,12.243,2.883,18.122C1.964,29.113,5.112,35.94,9.426,42.564c13.417,20.6,28.834,27.978,39.042,30.351C58.109,75.157,68.19,70.376,68.2,67.731Z" transform="translate(94.127 172.641)" fill="#092056" fill-rule="evenodd"/>
        <path id="Path_2530-2" data-name="Path 2530" d="M27.77,4.508c-.975,3.268,4.21,10.675-6.8,15.1-11.321,4.547-15.463.533-18.4-2.17C.029,15.1-.723,8.469.738,5.826s7.38-3.583,11.28-3.858c3.934-.277,9.859,2.527,12.326,2.2C25.665,3.991,26.252-.06,26.823,0S28.191,3.1,27.77,4.508Z" transform="translate(33.629 83.794)" fill="#163d6d" fill-rule="evenodd"/>
        <path id="Path_2531-2" data-name="Path 2531" d="M77.659.2c.526,1.319-1.985,4.286-3.742,8.5-1.946,4.67-6.462,8.64-8.981,10.779-6.1,5.175-18.327,10.169-26.7,12.232-7.672,1.887-17.354,1.817-23.551.137C9.658,30.49,1.412,24.37.163,22.018s4.884-3.049,6.82-4.613C10.719,14.386,17.173,5.679,23.468,3.526c7.307-2.5,17.494-4.747,27.512-2.239,4.708,1.179,10.631,4.978,14.153,5.2,2.439.154,5.854-.613,7.025-2.4C73.138,2.586,77.214-.909,77.659.2Z" transform="translate(-0.025 180.02)" fill="#0e3760" fill-rule="evenodd"/>
        <path id="Path_2532-2" data-name="Path 2532" d="M.2,16.726c2.691,3.139,8.257,9.023,21.333,12.863,8.381,2.461,19.734,2.846,28.961,1.842,9.024-.982,21.178-4.765,26.4-7.864,2.835-1.682,5.758-8.862,4.924-10.729s-6.7.719-9.922-.472A78.228,78.228,0,0,1,59.776,7.1C55.27,4.5,51.418,1.13,48.028.368c-5.405-1.214-10.912.715-16.075,3.026-15.041,6.732-13.632,9.652-18.727,11.4-4.168,1.425-9.479-1.23-11.846-.939C.571,13.95-.437,15.985.2,16.726Z" transform="translate(85.065 110.348)" fill="#0e3760" fill-rule="evenodd"/>
        <path id="Path_2533-2" data-name="Path 2533" d="M56.062,1.921c-.69,4.3-1.414,16.2-8.754,27.018C42.6,35.875,35.563,43.714,28.7,48.214,22.335,52.385,13,54.9,8.456,55.137c-2.469.131-6.955-5.183-7.932-10.2C-3.712,23.2,18.731,11.672,22.965,10.769,35.3,8.138,42.746,8.994,46.737,7.629,50,6.513,52.6,1.152,54.273.061,54.845-.312,56.225.907,56.062,1.921Z" transform="translate(16.996 118.38)" fill="#092056" fill-rule="evenodd"/>
        <path id="Path_2534-2" data-name="Path 2534" d="M0,2.365C5.575,24.44,11.244,46.475,16.725,68.59c5.6,22.6,12.8,49.9,16.886,69.386,3.28,15.631,4.924,31.737,7.653,47.535,1.205,6.978,1.435,18.328,3.554,30.4,4.9,27.932,12.509,60.889,12.761,60.8s-6.573-33.5-10.957-61.418c-1.956-12.459-2.089-23.44-3.19-30.526-2.376-15.286-4.559-31.046-7.269-45.825q-3.96-21.6-8.994-42.853C23.708,81.464,18.942,66.308,15.4,51.181,11.668,35.286,7.371,8.857,4.805.721,4.131-1.415,1.6,1.817,0,2.365" transform="translate(46.082 -0.006)" fill="#0c0d18" fill-rule="evenodd"/>
        <path id="Path_2535-2" data-name="Path 2535" d="M62.027,85.2C50.4,73.845,35.511,60.854,27.141,51.141c-5.95-6.9-11.038-16.6-15.336-24.226C7.957,20.088,3.274,9.831,1.352,5.386.684,3.841-.55-1.156.273.245,2.319,3.729,8.765,18.025,13.626,26.292c4.9,8.337,10.141,16.778,16.058,23.979C37.75,60.088,51.246,73.554,62.027,85.2" transform="translate(82.454 147.112)" fill="#0c0d18" fill-rule="evenodd"/>
        <path id="Path_2536-2" data-name="Path 2536" d="M1.164,3.549c4.941,2.917,21,11.782,28.909,13.984,6.138,1.709,10.418,1.139,14.97,1.035,2.9-.066,9.388-1.581,12.248-2.106C62.832,15.445,81.444,9.048,81.372,8.7s-16.212,4.35-24.422,6.134c-8.484,1.844-18.316,2.815-27.348.45C20.181,12.818,5.152,1.928.425.029-.511-.347.264,3.017,1.164,3.549Z" transform="translate(76.354 118.681)" fill="#0c0d18" fill-rule="evenodd"/>
        <path id="Path_2537-2" data-name="Path 2537" d="M64.521,3.766C61.788,7.5,53.956,18.651,47.35,22.483S32.466,26.24,24.889,26.758C17.067,27.292.073,33.269,0,32.9s16.719-7.291,24.429-8.355c7.511-1.036,17.746-1.1,22.259-5.243,1.152-1.058,7.227-6.226,8.3-7.433,2.844-3.206,6.327-9.816,8.765-11.8C64.524-.566,65.161,2.891,64.521,3.766Z" transform="translate(21.36 169.014)" fill="#0c0d18" fill-rule="evenodd"/>
        <path id="Path_2538-2" data-name="Path 2538" d="M39.911,3.259c-3.1,4.582-12.621,19.093-19.273,24.323C14.533,32.382.056,34.93,0,34.642s14.352-3.569,20.28-8.786c6.542-5.758,15.7-22,18.971-25.763C39.839-.59,40.438,2.481,39.911,3.259Z" transform="translate(35.927 114.885)" fill="#0c0d18" fill-rule="evenodd"/>
        <path id="Path_2539-2" data-name="Path 2539" d="M29.28,2.453C28.624,3.506,26.269,5.028,24.8,7.84c-1.944,3.732-3.2,8.9-5.421,10.114-3.895,2.128-9.549,2.315-12.364,1.79A62.926,62.926,0,0,1,0,17.476c.167-.057,5.442.859,7.029,1.006,2.758.255,8.727-.158,12.013-2.147,2.053-1.243,3.175-6.451,4.685-9.928.839-1.932,2.331-2.686,2.9-3.465C27.338,1.961,28.322.08,28.764,0S29.67,1.827,29.28,2.453Z" transform="translate(37.439 77.429)" fill="#0c0d18" fill-rule="evenodd"/>
      </g>
    </g>
    <g id="Group_1206" data-name="Group 1206" transform="translate(1142.613 256.148)">
      <path id="Path_2425" data-name="Path 2425" d="M305.388-166.879s47.454-3.724,61.666-4.365c8.032-.362,24.121,0,24.121,0l-11.929,7.373Z" transform="translate(-64.095 347.962)" fill="#bebebe" fill-rule="evenodd"/>
      <path id="Path_2426" data-name="Path 2426" d="M305.282-150.379h77.579L410.8-220.606l3.47,2.489-28.313,71.789H308.647C306.527-146.327,305.282-150.379,305.282-150.379Z" transform="translate(-64.131 331.423)" fill="#d8d8d8" fill-rule="evenodd"/>
      <path id="Path_2427" data-name="Path 2427" d="M393.864-218.7l-28.357,71.661,10.443-9.379,11.7-27.631Z" transform="translate(-43.724 332.062)" fill="#bebebe" fill-rule="evenodd"/>
      <path id="Path_2428" data-name="Path 2428" d="M149.383-238.361c-2.675-5.653-13.094,5.945-16.054,9.575-3.414,4.185-10.234,25.01-7.558,30.664s23.612,3.26,23.612,3.26S152.059-232.706,149.383-238.361Z" transform="translate(-125.163 324.941)" fill="#660e0e" fill-rule="evenodd"/>
      <g id="Group_1073" data-name="Group 1073" transform="translate(0 85.053)" clip-path="url(#clip-path-2)">
        <path id="Path_2429" data-name="Path 2429" d="M145.925-228.181c-4.083-.746-12.023,25.18-24.5,22.513-5.2-1.11,10.712,11.785,10.712,11.785l13.787-7.309S150.008-227.435,145.925-228.181Z" transform="translate(-126.783 243.818)" fill="#480a0a" fill-rule="evenodd"/>
      </g>
      <path id="Path_2431" data-name="Path 2431" d="M143.3-226.724s-.426-1.41-5.2-2c-7.036-.875-7.9,5.76-8.462,5.965s-1.334.607-1.806-.554c-.972-2.4,4.061-10.584,7.73-13.535s13.325-5.044,13.325-5.044-2.02,5.057-2.951,7.587S143.3-226.724,143.3-226.724Z" transform="translate(-124.301 324.265)" fill="#8d1515" fill-rule="evenodd"/>
      <path id="Path_2432" data-name="Path 2432" d="M221.32-238.431s15.606-9.384,10.9-21.725c-1.15-3.017-.44-7.521-5.033-10.592-24.607-16.456-28.505-10.818-57.925,6.71C151.72-253.584,127.08-170.763,129.5-151.506c1.584,12.621,39.768,6.4,39.768,6.4Z" transform="translate(-123.75 311.272)" fill="#250505" fill-rule="evenodd"/>
      <g id="Group_1074" data-name="Group 1074" transform="translate(5.583 30.721)" clip-path="url(#clip-path-3)">
        <path id="Path_2433" data-name="Path 2433" d="M178.707-261.209c22.235-10,41.176,32.534,41.176,32.534l-44.925,82.532s-43.3,7.44-44.533-12.573a15.37,15.37,0,0,1,.031-2.239C132.685-187.227,156.472-251.212,178.707-261.209Z" transform="translate(-128.971 286.54)" fill="#480a0a" fill-rule="evenodd"/>
      </g>
      <path id="Path_2435" data-name="Path 2435" d="M204.742-240.175c2.043-8.551-13.536-20.111-22.317-23.721-7.641-3.14-19.656-2.8-23.343,0-1.58,1.2-4.318,3.693-5.047,2.74a2.869,2.869,0,0,1,.762-2.74,129.088,129.088,0,0,1,15.789-10.349c5.055-2.789,11.154-5.9,15.813-7.078a22.589,22.589,0,0,1,12.139,0c6.144,1.948,20.08,6.313,25.714,17.426,7.427,14.646,1.708,18.34,1.708,18.34S203.508-235,204.742-240.175Z" transform="translate(-115.42 310.732)" fill="#8d1515" fill-rule="evenodd"/>
      <g id="Group_1075" data-name="Group 1075" transform="translate(38.496 28.576)" clip-path="url(#clip-path-4)">
        <path id="Path_2436" data-name="Path 2436" d="M153.127-266.885c4.869-1.908,9.978-7.623,23.2-5.5a33.656,33.656,0,0,1,16.252,6.9c29.617,24.528,1.078,30.052,7.144,31.424,1.917.434,2.058-4.969,2.058-4.969L151.495-260.36S151.036-266.066,153.127-266.885Z" transform="translate(-154.751 285.284)" fill="#660e0e" fill-rule="evenodd"/>
      </g>
      <path id="Path_2438" data-name="Path 2438" d="M173.231-274.323c1.114-.228,3.251-2.179,2.2-2.6-1.079-.434-6.554-.434-8.668,0a11.3,11.3,0,0,0-4.707,2.6c-.787.834-.93,2.143-.517,2.309.436.176,2.538-1.414,4.5-1.772C168.916-274.309,171.976-274.065,173.231-274.323Z" transform="translate(-112.915 312.38)" fill="#250505" fill-rule="evenodd"/>
      <path id="Path_2439" data-name="Path 2439" d="M179.645-278.647c.985-.2,2.876-1.93,1.943-2.3-.955-.385-5.8-.385-7.673,0a10.007,10.007,0,0,0-4.168,2.3c-.7.738-.823,1.9-.458,2.044.387.156,2.247-1.252,3.984-1.569C175.824-278.636,178.531-278.419,179.645-278.647Z" transform="translate(-110.279 311.039)" fill="#250505" fill-rule="evenodd"/>
      <path id="Path_2440" data-name="Path 2440" d="M132.3-200.888a9.149,9.149,0,0,0-2.276,1.637A11.428,11.428,0,0,0,128.8-194.3c.135.847,2.33,1.191,2.33,1.191l1.173-4.44" transform="translate(-123.938 338.051)" fill="#250505" fill-rule="evenodd"/>
      <path id="Path_2441" data-name="Path 2441" d="M149.972-252.976a22.309,22.309,0,0,0-3.568,1.828,8.937,8.937,0,0,0-1.722,4.167c0,.808,1.73,1.674,1.73,1.674l3.029-4.62" transform="translate(-118.549 320.541)" fill="#250505" fill-rule="evenodd"/>
      <path id="Path_2442" data-name="Path 2442" d="M146.3-221.421l7.891,6.329s-2.623,1.78-5.677,8.169c-1.711,3.582-4.274,17.457-4.274,17.457s.27-14.734.526-19.31C145-213.015,146.3-221.421,146.3-221.421Z" transform="translate(-118.7 331.149)" fill="#250505" fill-rule="evenodd"/>
      <path id="Path_2443" data-name="Path 2443" d="M145.76-221.394c.182-.45,6.128,2.654,9.424,3.725,3.239,1.052,10.541,2.253,10.359,2.7s-4.632,1.765-11.45,0S145.578-220.942,145.76-221.394Z" transform="translate(-118.188 331.143)" fill="#8d1515" fill-rule="evenodd"/>
      <path id="Path_2444" data-name="Path 2444" d="M154.327-212.441l4.054-15.1.523-.23,5.824,1.573-4.243,13.753-.375.248-.178.131Z" transform="translate(-115.281 329.015)" fill="#d05337" fill-rule="evenodd"/>
      <path id="Path_2445" data-name="Path 2445" d="M153.909-212.344l4.586-15.246,5.824,1.573-4.235,13.895s-1.617.148-2.891.112A29.881,29.881,0,0,1,153.909-212.344Z" transform="translate(-115.422 329.075)" fill="#feb062" fill-rule="evenodd"/>
      <path id="Path_2446" data-name="Path 2446" d="M232.425-244.379c.056-1.263.328-13.952,3.951-16.679,3.654-2.75,4.03-5.06,4.017-5.462-.119-3.557-3.466-4.364-4.043-4.511a4.841,4.841,0,0,0-3.86.559c-1.449.987-2.476,3.367-3.4,4.877-1.715,2.79-3.493,4.894-2.99,8.316.55,3.705-3.731,7-6.429,7.667a10.28,10.28,0,0,1-5.886,0,7.769,7.769,0,0,0,4.426-2.71c1.218-1.291,1.261-2.753,1.738-4.472.989-3.578.367-7.32,2.374-10.586a32.493,32.493,0,0,0,2.65-4.428c.036-.083.074-.174.1-.257,1.394-3.677.469-7.8,1.22-11.6a16.177,16.177,0,0,1,5.006-9.012c1.815-1.629,3.988-2.846,5.611-4.667,1.246-1.39,2.19-3.083,3.979-3.843,1.723-.731,3.942-.567,5.766-.659,1.595-.082,4.258-1.907,11.716-1.674,2.493.079,8.3,1.481,11.211,6.506a11.131,11.131,0,0,0,6.363,4.7c4.363,1.537,7.911,2.378,10.8,6.212.083.11.165.219.248.338.023.067.047.134.07.2a23.757,23.757,0,0,1,2.731,5.033c.834,2.1,3.579,6.2,6.045,5.545,3.963-1.045,5.134-4.546,6.264-5.545.36-.319.874,5.963-1.036,10.876a23.884,23.884,0,0,1-6.011,8.173c-3.33,2.95-5.94,3.275-8.178,2.707a8.279,8.279,0,0,1-6.054-5.425c-.349-.832-1.288-5.741-5.3-8.435-2.423-1.628-2.407,1.4-8.835-1.153a16.752,16.752,0,0,1-5.251-4.357c-1.439-2-4.947-2.007-7.99,3.159-1.165,1.975-4.039,3.688-7.949,4.949-2.607.842-1.8,4.9-2.457,7.055a18.1,18.1,0,0,0-4.2,8.967,18.327,18.327,0,0,0,.486,5.791c0,.009.009.009.009.019,1.155,3.082,3.466,5.444,5.987,7.841,1.329,1.263,2.714,2.535,4.034,3.916a.391.391,0,0,0,.064.072,21.181,21.181,0,0,0,9.5,5.856c.248.083.5.155.761.238.092.027.193.045.293.083.586.164,1.21.329,1.88.484a1.2,1.2,0,0,0,.174.047c.56.136,1.155.265,1.778.393.414.092.835.174,1.275.266.055.017.11.017.157.036a1.719,1.719,0,0,1,.293.11,4.315,4.315,0,0,1,1.732,1.336l.023.027a9.746,9.746,0,0,1,1.214,1.867c.083.138.147.285.221.421,1.2,2.48.5,4.987-.889,7.238-.376.631-.8,1.225-1.229,1.812-.853,1.171-1.778,2.278-2.668,3.439-.779,1.034-2.566,3.871-3.648,4.539-1.87,1.134-7.224-1.1-7.5-1.281a21.334,21.334,0,0,1-5.795-5.7,8.111,8.111,0,0,1-.477-.787c-3.924-7.191-7.6-7.814-10.965-12.142-.174-.21-.329-.42-.486-.631-.357-.466-.7-.925-1.017-1.391a27.9,27.9,0,0,1-.917-3.852c-.055-.293-.1-.585-.146-.887-.028-.164-.055-.329-.074-.494a2.192,2.192,0,0,1-.036-.247c-.028-.191-.055-.383-.083-.576-.1-.768-.183-1.565-.248-2.369-.027-.385-.055-.76-.074-1.144C232.379-241.287,232.362-242.968,232.425-244.379Z" transform="translate(-95.134 303.542)" fill="#0d2945" fill-rule="evenodd"/>
      <g id="Group_1076" data-name="Group 1076" transform="translate(118.65 0)" clip-path="url(#clip-path-5)">
        <path id="Path_2447" data-name="Path 2447" d="M267.465-292.16s5.5,9.667,5.251,13.168c-.216,3.052-.428,5.146-3.166,6.953-3.417,2.257-4.572,7.44-4.572,7.44l13.426,7.754,17.465-31.515Z" transform="translate(-196.438 307.369)" fill="#00497c" fill-rule="evenodd"/>
        <path id="Path_2448" data-name="Path 2448" d="M270.253-296.684a13.557,13.557,0,0,0-8.321-1.909c-4.318.627-8.8,1.59-9.574,2.94-1.565,2.72-3.045,5.329-6.74,6.1s-4.524,6.092-4.845,8.363c-.305,2.151-3.216,6.53-2.5,10.52.131.727,1.773,2.193,1.8,2.413.814,5.864-12.074,20.9-12.074,20.9l-12.246,1.208-4.835-4.392,26.493-56.623,28.891,2.345Z" transform="translate(-214.752 302.326)" fill="#0c0d18" fill-rule="evenodd"/>
        <path id="Path_2449" data-name="Path 2449" d="M227.476-259.089s.665,5.433,2.461,7.277c3.291,3.38,16.552,13.263,16.552,13.263S257.742-227.6,256.524-223s-8.76,0-8.76,0L236.99-230.17l-9.514-13.73Z" transform="translate(-209.145 318.486)" fill="#0c0d18" fill-rule="evenodd"/>
        <path id="Path_2450" data-name="Path 2450" d="M235.918-277.151c.233-.036,1.753,2.412.969,3.955-.5.991-2.165,2.837-3.461,4.753a24.423,24.423,0,0,0-2.79,5.425c-.905,2.956-4.124,16.416-4.673,16.5s1.461-20.967,1.461-20.967S235.368-277.063,235.918-277.151Z" transform="translate(-209.689 312.414)" fill="#0c0d18" fill-rule="evenodd"/>
      </g>
      <path id="Path_2452" data-name="Path 2452" d="M233.039-45.867c1.5,6.418-5.9,14.218-10.466,16.321-6.5,2.992,28.612,15.551,27.065,11.056-1.491-4.333-1.682-15.151,1.662-21.028C253.784-43.884,231.969-50.443,233.039-45.867Z" transform="translate(-92.428 389.641)" fill="#ed9ea2" fill-rule="evenodd"/>
      <g id="Group_1077" data-name="Group 1077" transform="translate(129.342 342.219)" clip-path="url(#clip-path-6)">
        <path id="Path_2453" data-name="Path 2453" d="M240.413-44.108S238.7-32.42,235.728-28.46,222.6-20.35,222.6-20.35l-6.461-15.667,16.464-16.3Z" transform="translate(-223.679 45.777)" fill="#c25367" fill-rule="evenodd"/>
        <path id="Path_2454" data-name="Path 2454" d="M243.972-40.829c-2.05.3-2.588,6.426-3.1,9.5s-.959,6.47,0,8.932a29.21,29.21,0,0,0,3.1,4.945l6.551-16.581S246.022-41.131,243.972-40.829Z" transform="translate(-215.491 49.635)" fill="#c25367" fill-rule="evenodd"/>
      </g>
      <path id="Path_2456" data-name="Path 2456" d="M261.127-215.1s32.966,16.287,50.185,21.59c6.484,2,10.972,2.211,20.713,2.754a173.233,173.233,0,0,0,21.063.14c3.486-.231,25.656-1.333,30.569-.02,3.385.906,4.794,5.771,5.654,10.568a47.075,47.075,0,0,1,.754,7.516c.028,2.944-.38,5.121-1.4,5.143-1.8.039-4.335-11.768-7.772-12.659s-2.8,6.07-8.976,6.365c-1.766.086-6.184-6.749-9.787-6.365-8.385.891-26.2,13-40.521,11.714-19.518-1.758-75.594-22.262-75.594-22.262Z" transform="translate(-84.212 333.272)" fill="#ed9ea2" fill-rule="evenodd"/>
      <g id="Group_1078" data-name="Group 1078" transform="translate(161.805 118.169)" clip-path="url(#clip-path-7)">
        <path id="Path_2457" data-name="Path 2457" d="M257.19-209.486c4.365.967,12.518,4.878,19.66,8.863,5.247,2.928,12.084,9.09,18.252,11.578,16.07,6.487,22.3,8.169,30.589,9.912,11.32,2.38,26.28-3.59,33.878-4.308,3.881-.366,9.681,2.076,13.675,2.076,3.5,0,4.631-4.86,10.288-2.076,6.359,3.131,6.914,13.824,6.914,14.749,0,1.748-19.168-4.261-19.168-4.261l-37.814,6.46L262.51-185.612,240.122-198.1S251.715-210.7,257.19-209.486Z" transform="translate(-248.014 216.963)" fill="#c25367" fill-rule="evenodd"/>
      </g>
      <path id="Path_2459" data-name="Path 2459" d="M228.311-235.214c6.522,10.695,44.658,21.611,44.313,27.582-.544,9.411-10.494,15.6-13.462,20.523-4.58,7.592-33.329-12.708-38.6-20.523S224.181-241.985,228.311-235.214Z" transform="translate(-93.389 326.144)" fill="#e9c7c7" fill-rule="evenodd"/>
      <g id="Group_1079" data-name="Group 1079" transform="translate(125.546 89.836)" clip-path="url(#clip-path-8)">
        <path id="Path_2460" data-name="Path 2460" d="M225.218-222.642c3.248.587,9.788,12.816,15.975,14.309,5.1,1.229,10.6,2.707,15.577,4.335,6.95,2.274,12.848,4.841,15.082,7.433,5.772,6.7-12.821,4.864-12.821,4.864l-36.348-19.839S218.126-223.923,225.218-222.642Z" transform="translate(-218.153 240.871)" fill="#d3a6a6" fill-rule="evenodd"/>
      </g>
      <path id="Path_2462" data-name="Path 2462" d="M238.344-206.028s15.739,3.03,19.318,4.07c7.843,2.278,24.2,7.552,35.967,12.237,12.406,4.938,27.011,14.185,38.466,17.4,9.732,2.731,21.586,3.576,28.714,2.015,4.035-.883,11.163-3.185,15.073-2.015s8.281,6.4,9.938,8.919c1.134,1.725,1.4,5.966,0,6.19-.914.146-1.568-1.693-3.466-3.3a22.09,22.09,0,0,0-4.159-2.044c-1.414-.684-3.776-1.333-5.272-.851-2.514.807-7.137,5.707-10.559,6.19s-6.519-2.742-9.977-3.3c-5.045-.808-13.516-1.235-20.291-1.555-10.2-.482-40.928-1.34-40.928-1.34s-24.98-1.436-33.5-3.427c-6.36-1.484-15.394-6.323-19.318-9.09-2.729-1.925-10.762-9.293-10.762-9.293Z" transform="translate(-90.459 336.323)" fill="#ed9ea2" fill-rule="evenodd"/>
      <g id="Group_1080" data-name="Group 1080" transform="translate(137.123 130.295)" clip-path="url(#clip-path-9)">
        <path id="Path_2463" data-name="Path 2463" d="M239.938-190.6s16,.767,23.743,2.966c8.206,2.332,16.006,10.186,25.493,11.025,10.455.925,24.718,4.948,34.937,6.281,9.061,1.181,18.594.386,26.378,1.718,6.566,1.122,16.39-1.944,20.929,0,3.33,1.426,6.87,8.511,6.87,8.511l-108.8-3.05L231.76-175.375Z" transform="translate(-226.166 211.214)" fill="#c25367" fill-rule="evenodd"/>
      </g>
      <path id="Path_2465" data-name="Path 2465" d="M224.107-255.764c3.19-.926,10.593,3.187,16.885,8.96,8.518,7.813,12.166,11.86,12.554,13.261.933,3.374.283,7.078,0,9.674-.817,7.507-3.531,15.1-2.2,20.316,1.4,5.48,16.442,12.083,23.016,15.3,8.115,3.972-11.882,33.618-15.809,28.112-3.824-5.365-19.174-7.756-19.174-7.756s2.849,17.267,2.1,25.45c-1.415,15.426-6.753,24.9-6.753,24.9s-20.956,1.574-29.286,5.621c-8.9,4.324-15.6,13.141-21.831,18.726-4.983,4.469-12.631,14.712-13.849,14.187-8.19-3.529-15.381-25.176-15.782-32.914-1.184-22.822,5.78-37.962,9.222-56.937,3.338-18.394,7.579-45.483,14.1-56.712C190.111-247.612,211.035-251.968,224.107-255.764Z" transform="translate(-115.443 319.56)" fill="#efefef" fill-rule="evenodd"/>
      <g id="Group_1081" data-name="Group 1081" transform="translate(38.403 63.665)" clip-path="url(#clip-path-10)">
        <path id="Path_2466" data-name="Path 2466" d="M255.833-179.517a73.483,73.483,0,0,0-13.857-6.319c-8.792-2.817-19.83-4.726-25.735-7.719-8.52-4.316-26.168-19.31-26.168-19.31L203.386-181.5l42.158,11.248Z" transform="translate(-141.571 270.36)" fill="#d3a6a6" fill-rule="evenodd"/>
        <path id="Path_2467" data-name="Path 2467" d="M237.853-255.23s-8.779,2.218-14.8,5.953c-6.413,3.976-9.771,12.695-12.711,17.867-5.2,9.151-17.481,13.045-20.708,22.787-3.1,9.35-2.711,19.536-6.271,28.721-3.876,10-14.284,30.066-16.205,41.3s2.631,29.906,3.793,38.317c.794,5.748,7.131,22.227,7.131,27.521s-25.028-19.337-25.028-19.337l-12.22-83.333,30.117-82.038Z" transform="translate(-158.256 255.363)" fill="#e9c7c7" fill-rule="evenodd"/>
        <path id="Path_2468" data-name="Path 2468" d="M193.922-192.376c-2.431,8.424-12.789,21.452-14.588,29.748-1.439,6.641,3.794,13.233,3.794,20.028,0,7.337-6.3,30.958-6.3,30.958h6.3l52-18.519,3.006-38.829-6.56-13.085s-12.956-4.905-17.546-10.3c-4.647-5.464-20.105-20.8-20.105-20.8S195.845-199.038,193.922-192.376Z" transform="translate(-146.058 270.255)" fill="#e9c7c7" fill-rule="evenodd"/>
      </g>
      <path id="Path_2470" data-name="Path 2470" d="M265.4-61.2c3.863,3.914,4.031,13.833,1.7,17.311-3.318,4.947,25.094-2.517,22.035-5.043-2.948-2.434-7.8-10.046-7.98-15.676C281.015-68.788,262.642-63.987,265.4-61.2Z" transform="translate(-77.741 383.312)" fill="#ed9ea2" fill-rule="evenodd"/>
      <g id="Group_1082" data-name="Group 1082" transform="translate(187.374 317.065)" clip-path="url(#clip-path-11)">
        <path id="Path_2471" data-name="Path 2471" d="M271.743-63.566s3.872,9.058,3.485,13.162-5.8,11.465-5.8,11.465L258-47.278l4.61-18.734Z" transform="translate(-267.524 66.326)" fill="#c25367" fill-rule="evenodd"/>
        <path id="Path_2472" data-name="Path 2472" d="M276.931-64.138c-1.327,1.1.959,5.693,1.928,8.1s.815,7.091-1.016,7.978c-1.462.707,9.272.544,9.272.544l-2.565-14.635S278.257-65.242,276.931-64.138Z" transform="translate(-261.248 66.876)" fill="#c25367" fill-rule="evenodd"/>
      </g>
      <path id="Path_2474" data-name="Path 2474" d="M200.772-147.6s12.4-3.213,38.081-8.567c13.126-2.736,31.22-9.252,38.829-3.816,6.128,4.379,7.914,17.06,14.052,29.595C308.126-96.92,309.011-49.5,311-32.231c.349,3.026-5.051,5.085-7.326,5.481-2.168.377-9.98,1.4-11.94-2.128-6.122-11.014-11.3-39.3-24.787-63.953-4.2-7.672-8.606-13.924-12.951-17.132-18.309-13.514-72.115,0-72.115,0Z" transform="translate(-105.944 351.094)" fill="#d05337" fill-rule="evenodd"/>
      <g id="Group_1083" data-name="Group 1083" transform="translate(75.937 189.008)" clip-path="url(#clip-path-12)">
        <path id="Path_2475" data-name="Path 2475" d="M226.142-143.56c1.952.06,6.293-1.447,13.184-2.977,3.184-.708,8.739-5.227,11.973-3.521,10.237,5.4,16.608,17.771,20.275,30.239,4.057,13.792,7.364,47.929,10.156,69.669.309,2.4,3.087,7.306,3.315,9.29.3,2.581-.613,6.812,0,8.835,1.11,3.659,2.331,2.434,0,2.909l-8.013,2.008L241.205-91.663S223.286-143.648,226.142-143.56Z" transform="translate(-166.988 166.002)" fill="#811d12" fill-rule="evenodd"/>
      </g>
      <path id="Path_2477" data-name="Path 2477" d="M223.279-153.909s-1.075.005-13.036,2.94c-7.6,1.864-15.56,6.663-20.071,9.174-5.3,2.949-6.9,12.664-13.982,15.952a36.833,36.833,0,0,1-16.64,3.042s3.381,9.5,15.241,13.256c15.465,4.9,41.685,4.647,51.251,5.218,14.559.869,39.021,2.13,47.8,3.1,4.362.484,7.678,2.071,6.924,6.384-2.758,15.8-27.192,65.662-27.679,81.634-.254,8.336,17.042,16.659,22.734,10.551,13.242-14.214,48.2-76.056,56.721-95.836,3.1-7.2.278-17.628-5.586-22.842-7.613-6.766-26.308-12.893-40.092-17.763C272.023-144.338,223.279-153.909,223.279-153.909Z" transform="translate(-113.511 353.844)" fill="#d05337" fill-rule="evenodd"/>
      <g id="Group_1084" data-name="Group 1084" transform="translate(46.039 199.935)" clip-path="url(#clip-path-13)">
        <path id="Path_2478" data-name="Path 2478" d="M171.931-132.075c7.469,0,19.19,8.03,29.389,9.24,12.988,1.541,37.4-.786,48.532,0,6.274.444,12.186,3.117,18.267,4.721,6.642,1.75,17.987,1.732,21.586,5.786s1.814,12.632,0,18.541c-1.364,4.44-1.573,13.461-4.7,20.836-2.224,5.253-6.669,8.972-9.492,13.7C271.844-53.1,271.634-45.2,269.9-41.006c-2.726,6.6-9.285,14.116-9.779,18.851-.344,3.282,2.895,5.111,3.733,7.059.415.966,0,3.654,0,3.654L243.368-22.155,265.151-90.11,160.273-105.823l-13.647-26.252Z" transform="translate(-163.929 161.249)" fill="#811d12" fill-rule="evenodd"/>
        <path id="Path_2479" data-name="Path 2479" d="M306.576-128.956s-5.65,21.6-10.58,29.038c-5.89,8.888-15.915,25.746-22.345,36.629C266.876-51.819,259.8-41.5,255.336-31.1c-3.261,7.6-9.055,17.466-10.866,22.321-.793,2.127,0,2.362,0,2.362L296-52.736l28.417-66.625s-11.892-1.949-17.837-5.147" transform="translate(-130.895 162.297)" fill="#811d12" fill-rule="evenodd"/>
      </g>
      <path id="Path_2481" data-name="Path 2481" d="M231.655-39.054c.5.038-.886,1.054-.947,1.746-.122,1.412,3.311,4.946,5.63,5.855,6.283,2.465,10.471,2.856,12.781,2.37,1.075-.226.955-3.58,1.283-3.241a32.623,32.623,0,0,1,3.007,3.241C256.836-24.728,260-17.76,264.1-13.5c6.459,6.707,22.549,15.821,24.793,21.1.93,2.189-2.149,5.455-4.531,5.518C275.868,13.35,262.2,8.4,245.74.571c-3.4-1.62-24.216-14.648-27.178-19.135-2.587-3.916-1.628-11.285,0-14.071S228.289-39.306,231.655-39.054Z" transform="translate(-94.058 392.45)" fill="#00497c" fill-rule="evenodd"/>
      <g id="Group_1085" data-name="Group 1085" transform="translate(122.903 353.384)" clip-path="url(#clip-path-14)">
        <path id="Path_2482" data-name="Path 2482" d="M235.878-38.3c2.783,2.095-7.374,11.838-4.848,17.254,2.742,5.881,13.05,13.723,21.3,18.029,10.164,5.305,24.089,15.188,39.693,13.8,3.406-.3-3.188,8.308-6.579,7.859-11.139-1.475-48.4-8-60.256-16.707-10-7.346-12.64-28.847-10.859-35.553S233.1-40.393,235.878-38.3Z" transform="translate(-218.027 38.916)" fill="#0d2945" fill-rule="evenodd"/>
      </g>
      <path id="Path_2484" data-name="Path 2484" d="M268.5-52.879c.62-.249-.107,1.325,1.233,1.866a15.446,15.446,0,0,0,8.377,0c2.793-1.019,5.4-1.467,6.493-4.94.284-.9-.754-2.32,0-2.268,4.45.309,7.89,3.606,12.852,5.342,3.355,1.174,13.971,1.593,19.531,1.866,4.429.217,3.174,4.245,3.059,5.026-.26,1.762-17.076,5.984-24.6,8.073-6.759,1.876-15.706,4.149-20.566,4.464-2.983.193-7.015-.2-8.589-2.576s-1.225-8.885-.857-11.694C265.69-49.7,267.2-52.357,268.5-52.879Z" transform="translate(-77.74 386.01)" fill="#00497c" fill-rule="evenodd"/>
      <g id="Group_1086" data-name="Group 1086" transform="translate(187.376 327.788)" clip-path="url(#clip-path-15)">
        <path id="Path_2485" data-name="Path 2485" d="M271.956-53.125c.044.061,1.181-.063,1.131,0-1.241,1.61-2.107,5.143-1.131,7.38,1.454,3.331,5.088,4.808,11.321,3.707,6.216-1.1,13.471.216,19.685-1.108,10.443-2.225,19.092-5.3,22.883-7.7,4.764-3.016,7.536,15,2.225,17.7-8.491,4.306-43.146,11.31-53.175,8.138-4.612-1.458-11.031-9.757-12.084-17.03-.655-4.508,3.17-11.725,6.085-13.524C270.387-56.482,271.311-54.013,271.956-53.125Z" transform="translate(-265.922 59.049)" fill="#0d2945" fill-rule="evenodd"/>
      </g>
      <path id="Path_2487" data-name="Path 2487" d="M150.414-190.452c.789-3.311,10.9-2.151,16.165-2.464,12.126-.722,56.948-4.326,56.948-4.326s1.736,1.558,2.651,2.241c.963.719,3.129,2.071,3.129,2.071s-49.749,7.473-63.017,9.4c-5.519.8-15.744,1.848-16.327-1.168A13.151,13.151,0,0,1,150.414-190.452Z" transform="translate(-116.813 339.277)" fill="#480a0a" fill-rule="evenodd"/>
      <g id="Group_1088" data-name="Group 1088" transform="translate(32.992 142.035)" clip-path="url(#clip-path-16)">
        <path id="Path_2488" data-name="Path 2488" d="M166.99-191.411l-3.1,8.672H147.707l1.238-10.648L166.52-194.8Z" transform="translate(-150.516 198.062)" fill="#250505" fill-rule="evenodd"/>
        <path id="Path_2489" data-name="Path 2489" d="M151.52-193.029s1.172,2.747,2.966,2.865c5.694.373,34.835-.534,40.944-2.05,2.524-.625,6.859-5.545,6.859-5.545Z" transform="translate(-149.224 197.068)" fill="#8d1515" fill-rule="evenodd"/>
        <g id="Group_1087" data-name="Group 1087" transform="translate(2.296 -0.691)" clip-path="url(#clip-path-17)">
          <path id="Path_2490" data-name="Path 2490" d="M170-194.056s-4.521,4.65-7.411,5.194-10.1-1.971-10.1-1.971l-1.921-5.558Z" transform="translate(-151.842 198.219)" fill="#660e0e" fill-rule="evenodd"/>
        </g>
      </g>
      <path id="Path_2493" data-name="Path 2493" d="M170.942-244.876c.815,1.368,4.535,1.821,8.4,2.7,12.229,2.79,38.622,9.142,46.537,13.7,8.473,4.876,18.679,16.51,19.492,21.546,0,.015.044,1.1.19,1.181.693.361,1.455-.739,1.8-1.273,1.151-1.774.586-7.335-.465-9.161-2.747-4.774-8.269-14.1-16.616-18.873-7.819-4.468-34.411-10.06-46.268-12.4-3.556-.7-7.378-3.353-9.558-2.924C172.321-249.957,170.128-246.244,170.942-244.876Z" transform="translate(-109.71 321.398)" fill="#480a0a" fill-rule="evenodd"/>
      <g id="Group_1090" data-name="Group 1090" transform="translate(61.059 70.972)" clip-path="url(#clip-path-18)">
        <path id="Path_2494" data-name="Path 2494" d="M203.558-244.125l-7.974,6.106-28.042-4.933,8.472-8.962Z" transform="translate(-171.861 249.926)" fill="#250505" fill-rule="evenodd"/>
        <path id="Path_2495" data-name="Path 2495" d="M174.572-251.314s-1.865,2.807-.332,3.406c6.912,2.7,42.668,11.271,52.868,17.142,5.683,3.271,12.454,11,16.25,16.914,1.446,2.253,2,6.538,1.237,8.228-.412.907.785.549,1.2.728,3.288,1.42,3.5-18.015,3.5-18.015l-22.183-19.767Z" transform="translate(-169.797 250.127)" fill="#8d1515" fill-rule="evenodd"/>
        <g id="Group_1089" data-name="Group 1089" transform="translate(3.839 -1.187)" clip-path="url(#clip-path-19)">
          <path id="Path_2496" data-name="Path 2496" d="M204.455-243.728c-4.938-1.527-4.7,3.7-7.34,3.268-5.171-.847-26.548-7.513-26.548-7.513l5.329-4.718S207.5-242.787,204.455-243.728Z" transform="translate(-174.675 250.851)" fill="#660e0e" fill-rule="evenodd"/>
        </g>
      </g>
      <path id="Path_2499" data-name="Path 2499" d="M290.12-264.153a11.15,11.15,0,0,0-5.637,5.493,41.06,41.06,0,0,0-2.642,13.531c.007,7.368-2.794,5.43-4.1,5.529a4.757,4.757,0,0,0-4.513,4.538c-.108,1.021-1.229,1.023-1.512,1.828-.312.889.229,1.48,0,2.361a8.324,8.324,0,0,1-1.853,2.894c-1.419,1.51-13.593,9.7-13.593,9.7l-15.27-16.788s-8.147,5.745-6.538,14.356-2.674,5.8-4.533,4.611c-4.7-3.006-21.009-17.942-23.1-23.5a3.805,3.805,0,0,1,0-2.338s12.758-1.506,20.373-20.363c1.163-2.882,3.759-5.365,4.328-9.412,3.086-21.929,19-24.79,19-24.79s11.13-4.793,28.525,11.055S290.12-264.153,290.12-264.153Z" transform="translate(-97.552 305.68)" fill="#ed9ea2" fill-rule="evenodd"/>
      <g id="Group_1091" data-name="Group 1091" transform="translate(109.095 8.496)" clip-path="url(#clip-path-20)">
        <path id="Path_2500" data-name="Path 2500" d="M242.431-280.522a23.942,23.942,0,0,0-4.26,6.082c-5,9.848-4.805,14.429-9.705,21.89-2.212,3.368-13.651,5.83-15.7,14.123-1.406,5.7-11.822-.808-11.724-7.1.07-4.554,7.381-11.071,7.381-11.071l27.248-26.163Z" transform="translate(-208.545 302.03)" fill="#c25367" fill-rule="evenodd"/>
        <path id="Path_2501" data-name="Path 2501" d="M268.414-270.173c-2.639,2.79-8.246,6.593-10.858,12.508-2.962,6.706-4.719,25.871-4.719,25.871l20.554-8.93s1.868-26.119,0-33.682C273.052-275.782,270.483-272.361,268.414-270.173Z" transform="translate(-190.996 304.734)" fill="rgba(219,218,218,0.42)" fill-rule="evenodd"/>
      </g>
      <path id="Path_2503" data-name="Path 2503" d="M232.425-244.379c.056-1.263.328-13.952,3.951-16.679,3.654-2.75,4.03-5.06,4.017-5.462-.119-3.557-3.466-4.364-4.043-4.511a4.841,4.841,0,0,0-3.86.559c-1.449.987-2.476,3.367-3.4,4.877-1.715,2.79-3.493,4.894-2.99,8.316.55,3.705-3.731,7-6.429,7.667a10.28,10.28,0,0,1-5.886,0,7.769,7.769,0,0,0,4.426-2.71c1.218-1.291,1.261-2.753,1.738-4.472.989-3.578.367-7.32,2.374-10.586a32.493,32.493,0,0,0,2.65-4.428c.036-.083.074-.174.1-.257,1.394-3.677.469-7.8,1.22-11.6a16.177,16.177,0,0,1,5.006-9.012c1.815-1.629,3.988-2.846,5.611-4.667,1.246-1.39,2.19-3.083,3.979-3.843,1.723-.731,3.942-.567,5.766-.659,1.595-.082,4.258-1.907,11.716-1.674,2.493.079,8.3,1.481,11.211,6.506a11.131,11.131,0,0,0,6.363,4.7c4.363,1.537,7.911,2.378,10.8,6.212.083.11.165.219.248.338.023.067.047.134.07.2a23.757,23.757,0,0,1,2.731,5.033c.834,2.1,3.579,6.2,6.045,5.545,3.963-1.045,5.134-4.546,6.264-5.545.36-.319.874,5.963-1.036,10.876a23.884,23.884,0,0,1-6.011,8.173c-3.33,2.95-5.94,3.275-8.178,2.707a8.279,8.279,0,0,1-6.054-5.425c-.349-.832-1.288-5.741-5.3-8.435-2.423-1.628-2.407,1.4-8.835-1.153a16.752,16.752,0,0,1-5.251-4.357c-1.439-2-4.947-2.007-7.99,3.159-1.165,1.975-4.039,3.688-7.949,4.949-2.607.842-1.8,4.9-2.457,7.055a18.1,18.1,0,0,0-4.2,8.967,18.327,18.327,0,0,0,.486,5.791c0,.009.009.009.009.019,1.155,3.082,3.466,5.444,5.987,7.841,1.329,1.263,2.714,2.535,4.034,3.916a.391.391,0,0,0,.064.072,21.181,21.181,0,0,0,9.5,5.856c.248.083.5.155.761.238.092.027.193.045.293.083.586.164,1.21.329,1.88.484a1.2,1.2,0,0,0,.174.047c.56.136,1.155.265,1.778.393.414.092.835.174,1.275.266.055.017.11.017.157.036a1.719,1.719,0,0,1,.293.11,4.315,4.315,0,0,1,1.732,1.336l.023.027a9.746,9.746,0,0,1,1.214,1.867c.083.138.147.285.221.421,1.2,2.48.5,4.987-.889,7.238-.376.631-.8,1.225-1.229,1.812-.853,1.171-1.778,2.278-2.668,3.439-.779,1.034-2.566,3.871-3.648,4.539-1.87,1.134-7.224-1.1-7.5-1.281a21.334,21.334,0,0,1-5.795-5.7,8.111,8.111,0,0,1-.477-.787c-3.924-7.191-7.6-7.814-10.965-12.142-.174-.21-.329-.42-.486-.631-.357-.466-.7-.925-1.017-1.391a27.9,27.9,0,0,1-.917-3.852c-.055-.293-.1-.585-.146-.887-.028-.164-.055-.329-.074-.494a2.192,2.192,0,0,1-.036-.247c-.028-.191-.055-.383-.083-.576-.1-.768-.183-1.565-.248-2.369-.027-.385-.055-.76-.074-1.144C232.379-241.287,232.362-242.968,232.425-244.379Z" transform="translate(-95.134 303.542)" fill="#0d2945" fill-rule="evenodd"/>
      <g id="Group_1092" data-name="Group 1092" transform="translate(118.65 0)" clip-path="url(#clip-path-5)">
        <path id="Path_2504" data-name="Path 2504" d="M267.465-292.16s5.5,9.667,5.251,13.168c-.216,3.052-.428,5.146-3.166,6.953-3.417,2.257-4.572,7.44-4.572,7.44l13.426,7.754,17.465-31.515Z" transform="translate(-196.438 307.369)" fill="#00497c" fill-rule="evenodd"/>
        <path id="Path_2505" data-name="Path 2505" d="M270.253-296.684a13.557,13.557,0,0,0-8.321-1.909c-4.318.627-8.8,1.59-9.574,2.94-1.565,2.72-3.045,5.329-6.74,6.1s-4.524,6.092-4.845,8.363c-.305,2.151-3.216,6.53-2.5,10.52.131.727,1.773,2.193,1.8,2.413.814,5.864-12.074,20.9-12.074,20.9l-12.246,1.208-4.835-4.392,26.493-56.623,28.891,2.345Z" transform="translate(-214.752 302.326)" fill="#0c0d18" fill-rule="evenodd"/>
        <path id="Path_2506" data-name="Path 2506" d="M227.476-259.089s.665,5.433,2.461,7.277c3.291,3.38,16.552,13.263,16.552,13.263S257.742-227.6,256.524-223s-8.76,0-8.76,0L236.99-230.17l-9.514-13.73Z" transform="translate(-209.145 318.486)" fill="#0c0d18" fill-rule="evenodd"/>
        <path id="Path_2507" data-name="Path 2507" d="M235.918-277.151a4.069,4.069,0,0,1,.552,3.855c-.5.991-2.271,2.688-3.567,4.606a23.662,23.662,0,0,0-2.729,5.5c-.905,2.957-3.662,16.593-4.211,16.681s1.461-20.967,1.461-20.967S235.368-277.063,235.918-277.151Z" transform="translate(-209.689 312.414)" fill="#0c0d18" fill-rule="evenodd"/>
      </g>
      <path id="Path_2509" data-name="Path 2509" d="M148.95-213.68l3.588-15.858c.079-.412.632-.611,1.169-.42a1.053,1.053,0,0,1,.673,1.293l-3.768,15.792s-.862-.369-1.08-.486C149.346-213.459,148.95-213.68,148.95-213.68Z" transform="translate(-117.103 328.254)" fill="#250000" fill-rule="evenodd"/>
      <g id="Group_1093" data-name="Group 1093" transform="translate(31.848 98.224)" clip-path="url(#clip-path-22)">
        <path id="Path_2510" data-name="Path 2510" d="M153.873-230.068l-4.027,17.208.561.278,4.217-16.637-.751-.85" transform="translate(-148.646 230.018)" fill="#8d1515" fill-rule="evenodd"/>
      </g>
      <path id="Path_2512" data-name="Path 2512" d="M152.266-228.3a6.755,6.755,0,0,1,0-2.473,7.487,7.487,0,0,1,1.907-2.626,4.4,4.4,0,0,1,2-.393s-.716.168-1.564,1.653c-.763,1.335-.593,2.166-.984,2.806a4.477,4.477,0,0,1-1.358,1.033" transform="translate(-116.022 326.99)" fill="#e9c7c7" fill-rule="evenodd"/>
      <g id="Group_1094" data-name="Group 1094" transform="translate(36.116 93.199)" clip-path="url(#clip-path-23)">
        <path id="Path_2513" data-name="Path 2513" d="M156.141-233.8a6.911,6.911,0,0,0-2.016,1.275,10.511,10.511,0,0,0-1.058,2.557c-.253.6-.85,1.688-.85,1.688l1.908-.441Z" transform="translate(-152.112 233.789)" fill="#efefef" fill-rule="evenodd"/>
      </g>
      <path id="Path_2515" data-name="Path 2515" d="M150.944-213.6l3.351-12.665c.079-.412.631-.611,1.169-.42a1.053,1.053,0,0,1,.673,1.293l-3.825,12.209-.71-.2C151.4-213.438,150.944-213.6,150.944-213.6Z" transform="translate(-116.427 329.356)" fill="#250000" fill-rule="evenodd"/>
      <g id="Group_1095" data-name="Group 1095" transform="translate(34.517 102.601)" clip-path="url(#clip-path-24)">
        <path id="Path_2516" data-name="Path 2516" d="M151.526-213.033l4.342-13.928,1.34,1.191-5.141,13.376Z" transform="translate(-150.747 226.685)" fill="#8d1515" fill-rule="evenodd"/>
      </g>
      <path id="Path_2518" data-name="Path 2518" d="M153.843-225.655s.086-4.154.62-4.583,2.667.536,2.786,1.3-2.269,4-2.269,4a.869.869,0,0,1-.821-.084A.6.6,0,0,1,153.843-225.655Z" transform="translate(-115.447 328.149)" fill="#e9c7c7" fill-rule="evenodd"/>
      <g id="Group_1096" data-name="Group 1096" transform="translate(38.388 97.804)" clip-path="url(#clip-path-25)">
        <path id="Path_2519" data-name="Path 2519" d="M154.5-230.451s1.782.661,1.751,1.41c-.039.963-1.984,4.377-1.984,4.377l1.208.263,2.244-5.15-3.219-.9" transform="translate(-153.688 230.309)" fill="#efefef" fill-rule="evenodd"/>
      </g>
      <path id="Path_2521" data-name="Path 2521" d="M147.248-216.175l1.561-10.87c.079-.412.632-.611,1.169-.418a1.051,1.051,0,0,1,.673,1.292l-2,11.113a7.756,7.756,0,0,1-.886-.625C147.54-215.879,147.248-216.175,147.248-216.175Z" transform="translate(-117.679 329.093)" fill="#250000" fill-rule="evenodd"/>
      <g id="Group_1097" data-name="Group 1097" transform="translate(29.569 101.557)" clip-path="url(#clip-path-26)">
        <path id="Path_2522" data-name="Path 2522" d="M149.942-227.724s.475-.094.451,0a8.36,8.36,0,0,0,.459,1.8l-2.4,11.193-.565-.16Z" transform="translate(-147.03 227.459)" fill="#8d1515" fill-rule="evenodd"/>
      </g>
      <path id="Path_2524" data-name="Path 2524" d="M149.269-225.384a6.751,6.751,0,0,0,1.6-1.884,7.475,7.475,0,0,0,.25-3.232c-.139-.663-1.269-1.591-1.269-1.591s.438.591.121,2.27c-.284,1.51-.953,2.034-1.071,2.774a4.474,4.474,0,0,0,.366,1.664" transform="translate(-117.122 327.561)" fill="#e9c7c7" fill-rule="evenodd"/>
      <g id="Group_1098" data-name="Group 1098" transform="translate(31.77 95.469)" clip-path="url(#clip-path-27)">
        <path id="Path_2525" data-name="Path 2525" d="M149.768-232.094a6.889,6.889,0,0,1,.708,2.274,10.48,10.48,0,0,1-.853,2.632c-.2.624-.447,1.836-.447,1.836l2.407-1.178v-4.256Z" transform="translate(-148.796 232.091)" fill="#efefef" fill-rule="evenodd"/>
      </g>
    </g>
    <g id="Group_1207" data-name="Group 1207" transform="translate(1058.531 481.872)">
      <path id="Path_2416" data-name="Path 2416" d="M96.166-70.192a84.258,84.258,0,0,1,10.354-9.614,37.264,37.264,0,0,1,8.954-4.064c1.3-.428,4.108-.709,4.108,0s-2.453,3.626-4.108,4.7c-1.7,1.1-4.2,1.406-6.157,2.288a38.859,38.859,0,0,0-5.721,2.919c-1.755,1.178-3.514,3.086-4.772,3.774C98.047-69.767,95.6-69.51,96.166-70.192Z" transform="translate(-60.496 119.278)" fill="#00497c" fill-rule="evenodd"/>
      <path id="Path_2417" data-name="Path 2417" d="M95.344-71.838a41.665,41.665,0,0,0-5.978-3.879,56.288,56.288,0,0,0-9-3.295,12.317,12.317,0,0,0-4.878,0c-2.96.519-4.343,2.1-4.089,3.295s3.411,3.3,5.61,3.879c2.462.647,6.519,0,9.16,0,2.229,0,5.157-.287,6.686,0,.991.186,1.812,1.434,2.487,1.721.479.2,1.562.287,1.562,0S95.966-71.376,95.344-71.838Z" transform="translate(-62.981 119.786)" fill="#00497c" fill-rule="evenodd"/>
      <path id="Path_2418" data-name="Path 2418" d="M94.7-68.889c.859-2.965,4.928-12.254,7.1-17.787,2.014-5.124,3.526-12.132,5.944-15.409,1.894-2.567,3.572-5.029,8.582-4.734a5.473,5.473,0,0,1,5.37,4.734c.3,1.408-2.243,2.933-3.577,4.2-1.81,1.715-5.133,3.77-7.285,6.092A86.84,86.84,0,0,0,101.8-80.277c-2.194,3.542-3.972,9.49-5.155,11.388C96.3-68.339,94.521-68.266,94.7-68.889Z" transform="translate(-60.636 117.011)" fill="#092056" fill-rule="evenodd"/>
      <path id="Path_2419" data-name="Path 2419" d="M92.822-80.048c1.154-3.322,3.188-10.777,5.673-14.526A29.621,29.621,0,0,1,107.439-103c2.287-1.278,5.919-1.615,8.1-.464,1.184.625,2.014,2.7,1.272,3.81-1.039,1.559-4.6,3.585-7.014,5.545a86.555,86.555,0,0,0-7.729,6.82c-2.127,2.223-4.942,5.057-6.212,7.243-1.033,1.778-1.232,4.892-1.9,5.87-.392.577-1.961.685-2.094,0A17.081,17.081,0,0,1,92.822-80.048Z" transform="translate(-60.924 117.28)" fill="#00497c" fill-rule="evenodd"/>
      <path id="Path_2420" data-name="Path 2420" d="M93.667-70.345c-.191-2.15-.245-7.86-1.144-10.632-.756-2.331-3.432-3.689-4.248-6-1.159-3.282-3.024-9.049-2.7-13.69.427-6.174,1.458-11.126,6.951-14.349a9.4,9.4,0,0,1,8.693,0c4.914,2.645,5.455,6.68,5.4,10.59a54.092,54.092,0,0,1-1.87,11.3A27.832,27.832,0,0,1,101.969-86c-.98,1.6-3.316,2.192-4.017,3.929-.961,2.382-1.458,8.034-1.75,10.366-.15,1.2.422,3.02,0,3.624s-2.112.378-2.535,0S93.734-69.592,93.667-70.345Z" transform="translate(-61.556 116.082)" fill="#092056" fill-rule="evenodd"/>
      <path id="Path_2421" data-name="Path 2421" d="M94.967-77.121a109.5,109.5,0,0,0-8.458-7.524c-3.056-2.387-4.835-4.556-12.441-5.919-2.641-.473-6.344-.566-8.05,0-1.278.424-2.615,2.117-2.189,3.395a11.438,11.438,0,0,0,5.031,5.129c2.655,1.191,7.509,1.195,10.9,2.014a82.278,82.278,0,0,1,9.442,2.9,20.387,20.387,0,0,1,5.766,2.989c1.391,1.213,2.239,4.278,3,4.656s1.917-1.5,1.569-2.389C99.036-73.139,96.624-75.5,94.967-77.121Z" transform="translate(-63.748 118.609)" fill="#092056" fill-rule="evenodd"/>
      <path id="Path_2422" data-name="Path 2422" d="M79.771-108.972c-.977-.933-3.683.086-3.793,1.433-.213,2.612.453,9.884,2.517,14.24s7.036,8.631,9.875,11.915c2.306,2.668,5.725,5.855,7.157,7.789.808,1.091.889,3.583,1.433,3.813s1.944-1.427,1.831-2.437a41.533,41.533,0,0,0-3.264-10.36c-2.037-4.2-7.63-11.486-9.8-14.714C84.6-98.97,81.536-107.287,79.771-108.972Z" transform="translate(-62.521 116.761)" fill="#00497c" fill-rule="evenodd"/>
      <path id="Path_2423" data-name="Path 2423" d="M94.1-67.126c-.524-1.218.431-7.064,0-9.9a38.618,38.618,0,0,0-1.556-5.382C91.272-86.581,87.406-91,87.283-95.3c-.3-10.656,4.76-12.617,7.635-12.825,5.75-.417,7.476,3.335,8.424,6.4.983,3.173.659,8.45,0,11.671-.577,2.813-3.183,4.887-3.96,7.652-.411,1.463-1.43,3.259-1.608,5.382-.224,2.669-.4,8.77-.819,9.9C96.628-66.232,94.476-66.251,94.1-67.126Z" transform="translate(-61.382 116.879)" fill="#0e3760" fill-rule="evenodd"/>
      <path id="Path_2424" data-name="Path 2424" d="M92.752-68.479S88.3-73.128,88.061-76.1c-.241-2.994.792-8.316,3.246-10.343s9.184-2.68,11.48-1.814,2.889,4.622,2.3,7.01c-.621,2.522-5.021,5.994-6.026,8.123-.661,1.4.526,2.649-.376,4.19s-2.139,1.417-3.717,1.417A2.654,2.654,0,0,1,92.752-68.479Z" transform="translate(-61.306 118.843)" fill="#163d6d" fill-rule="evenodd"/>
    </g>
  </g>
</svg>
